{"glyphs":{"0":{"ha":1000,"x_min":157,"x_max":1088,"o":"m 504 -8 q 414 -18 467 -18 q 309 7 360 -18 q 223 76 257 33 q 157 298 157 160 q 378 777 157 575 q 502 872 446 838 q 593 924 558 905 q 664 958 627 943 q 815 991 747 991 q 934 966 882 991 q 1020 898 986 941 q 1088 675 1088 812 q 977 333 1088 494 q 710 86 877 188 q 504 -8 587 12 m 936 589 q 919 700 936 642 q 869 802 903 757 q 667 899 795 899 q 468 814 554 899 q 350 618 393 741 q 311 419 311 507 q 327 273 311 332 q 378 170 344 214 q 587 73 452 73 q 772 165 686 73 q 892 370 846 243 q 936 589 936 486 z "},"1":{"ha":509,"x_min":113,"x_max":530,"o":"m 530 92 q 512 80 524 88 l 484 62 q 376 0 392 0 l 113 0 l 115 3 q 174 58 159 38 q 213 138 201 92 l 329 636 l 171 555 l 176 576 l 484 739 l 371 251 q 311 123 353 176 q 279 92 296 104 l 530 92 z "},"2":{"ha":743,"x_min":48,"x_max":887,"o":"m 204 92 l 712 92 q 654 57 694 87 q 593 13 613 26 q 559 0 573 0 l 48 0 q 241 219 134 126 q 325 286 275 249 q 430 366 375 323 q 539 455 485 408 q 636 551 593 502 q 733 751 733 661 q 680 863 733 819 q 572 905 629 905 q 482 889 514 905 q 429 846 450 873 q 391 707 391 795 q 397 654 391 679 l 244 562 q 237 628 237 587 q 258 713 237 670 q 311 791 278 756 q 522 939 365 848 q 696 996 621 996 q 826 960 770 996 q 887 846 887 919 q 677 537 887 706 q 627 498 648 513 q 580 462 606 482 q 523 417 554 442 q 458 363 492 392 q 389 303 423 334 q 324 243 355 273 q 267 186 292 213 q 204 92 214 127 z "},"3":{"ha":745,"x_min":-35,"x_max":856,"o":"m 245 646 q 398 739 383 739 l 856 739 q 450 357 608 465 q 625 328 572 354 q 704 266 678 302 q 730 152 730 229 q 685 -3 730 74 q 562 -132 641 -79 q 170 -285 336 -285 q 8 -255 76 -285 q -35 -207 -35 -235 q 148 -64 -35 -151 q 117 -111 117 -91 q 130 -143 117 -131 q 161 -163 142 -155 q 204 -177 180 -172 q 251 -186 228 -182 q 341 -191 294 -191 q 435 -171 387 -191 q 514 -115 482 -151 q 579 79 579 -42 q 359 261 579 243 q 294 265 326 264 q 335 295 315 281 q 388 335 356 309 q 462 399 420 360 q 544 479 504 438 q 623 562 584 520 q 701 646 662 604 l 245 646 z "},"4":{"ha":916,"x_min":61,"x_max":1008,"o":"m 1008 386 q 722 241 851 263 q 618 92 705 156 l 840 92 q 781 57 821 87 q 721 13 741 26 q 686 0 701 0 l 463 0 q 524 41 507 19 q 556 104 547 72 q 588 233 572 161 l 61 233 q 627 745 482 578 q 683 815 656 780 q 729 873 710 851 q 764 905 749 895 q 795 923 779 914 q 828 940 812 932 q 857 956 844 948 l 893 977 l 741 325 l 796 325 q 962 358 887 325 q 1008 386 988 370 m 710 756 q 217 326 503 529 l 610 326 l 710 756 z "},"5":{"ha":757,"x_min":6,"x_max":905,"o":"m 211 -30 q 162 -95 162 -68 q 286 -159 162 -136 q 349 -165 328 -165 q 416 -149 379 -165 q 538 -43 496 -111 q 580 112 580 24 q 462 279 580 246 q 388 289 425 289 q 319 284 350 289 q 257 271 288 279 q 195 254 226 263 q 134 238 165 245 q 243 543 196 362 q 269 646 256 595 l 422 739 l 905 739 q 874 717 896 732 q 827 686 852 702 q 752 646 766 646 l 399 646 q 294 342 352 474 q 531 378 376 378 q 718 285 673 378 q 733 198 733 252 q 708 88 733 145 q 641 -21 683 31 q 543 -115 598 -72 q 427 -190 488 -158 q 192 -256 300 -256 q 109 -244 154 -256 q 47 -225 64 -233 q 6 -189 6 -208 q 62 -117 6 -163 q 121 -81 85 -99 q 211 -30 189 -47 z "},"6":{"ha":874,"x_min":140,"x_max":1035,"o":"m 891 1000 q 1035 952 1035 1000 q 1012 909 1035 932 q 977 891 998 902 q 935 869 956 881 q 863 822 880 838 q 882 858 882 841 q 699 910 882 910 q 438 749 549 910 q 311 450 346 615 q 614 612 472 574 q 681 620 645 620 q 760 603 718 620 q 835 556 802 586 q 906 397 906 490 q 814 198 906 302 q 606 38 730 103 q 382 -26 480 -26 q 201 50 267 -26 q 140 226 140 121 q 170 423 140 331 q 252 600 200 515 q 376 757 304 684 q 531 884 448 830 q 891 1000 710 1000 m 747 297 q 732 384 747 342 q 690 458 718 426 q 539 532 630 532 q 391 467 460 532 q 298 331 336 416 l 298 327 q 355 141 298 211 q 532 66 418 66 q 686 137 623 66 q 747 297 747 205 z "},"7":{"ha":663,"x_min":-21,"x_max":838,"o":"m 164 646 q 317 739 302 739 l 838 739 q 657 412 726 534 q 555 232 588 290 q 490 128 523 174 q 421 42 457 83 q 345 -39 386 1 q 257 -118 303 -79 q 164 -190 212 -157 q -20 -292 63 -261 l -21 -287 q -4 -278 -12 -282 q 35 -254 5 -273 q 109 -204 66 -235 q 190 -138 152 -173 q 426 178 302 -35 q 562 425 484 279 q 685 646 640 570 l 164 646 z "},"8":{"ha":821,"x_min":132,"x_max":928,"o":"m 132 161 q 384 490 132 339 q 321 534 338 514 q 289 617 289 572 q 313 707 289 661 q 375 794 336 752 q 465 873 414 836 q 567 937 515 910 q 762 996 680 996 q 876 960 829 996 q 928 855 928 920 q 774 610 928 749 q 663 522 723 564 q 770 451 736 484 q 836 322 836 388 q 744 153 836 239 q 540 25 663 77 q 334 -25 422 -25 q 191 23 246 -25 q 132 161 132 75 m 765 700 q 777 767 777 733 q 762 826 777 800 q 722 869 747 852 q 605 903 674 903 q 488 852 532 903 q 447 731 447 804 q 581 564 447 635 q 646 531 616 546 q 765 700 731 608 m 666 157 q 679 228 679 189 q 666 296 679 267 q 630 348 652 325 q 580 391 608 372 q 520 426 551 410 q 459 456 490 442 q 401 481 428 469 q 295 315 323 418 q 286 243 286 282 q 303 170 286 204 q 350 113 321 136 q 497 67 408 67 q 666 157 627 67 z "},"9":{"ha":871,"x_min":23,"x_max":916,"o":"m 195 -70 q 176 -105 176 -91 q 185 -127 176 -119 q 209 -141 194 -136 q 241 -151 223 -147 q 275 -156 258 -155 q 349 -159 307 -159 q 442 -141 391 -159 q 534 -93 492 -123 q 608 -20 575 -62 q 666 71 641 22 q 741 275 713 161 q 438 113 579 150 q 370 105 406 105 q 291 123 333 105 q 217 172 249 141 q 147 333 147 239 q 240 541 147 433 q 451 705 324 637 q 674 772 576 772 q 857 694 793 772 q 916 517 916 623 q 885 321 916 412 q 803 146 855 230 q 679 -9 750 63 q 524 -134 607 -81 q 168 -248 345 -248 q 23 -200 23 -248 q 33 -172 23 -184 q 48 -156 42 -160 q 67 -146 54 -151 q 98 -131 80 -140 q 195 -70 168 -94 m 757 406 q 766 476 766 436 q 745 556 766 516 q 689 624 724 596 q 516 679 618 679 q 357 602 416 679 q 303 430 303 532 q 372 267 303 336 q 535 198 441 198 q 648 241 591 198 q 757 406 728 304 z "}," ":{"ha":339,"x_min":0,"x_max":0,"o":""},"!":{"ha":373,"x_min":113,"x_max":494,"o":"m 494 966 q 477 882 494 936 q 450 793 460 828 l 375 531 q 368 507 374 526 q 356 462 363 488 q 340 407 349 436 q 326 354 332 378 q 306 292 309 297 q 288 278 303 286 q 254 262 273 271 q 193 229 202 238 q 342 886 342 867 q 326 906 342 906 q 275 873 319 906 l 277 882 q 382 951 328 923 q 477 994 460 994 q 494 966 494 994 m 311 72 l 157 -20 l 113 93 l 266 185 l 311 72 z "},"\"":{"ha":474,"x_min":265,"x_max":651,"o":"m 631 994 q 651 969 651 994 q 640 912 651 944 q 614 848 629 880 q 555 748 579 775 q 513 702 530 720 q 477 665 495 684 q 489 750 482 707 q 495 836 495 792 q 469 907 495 907 q 631 994 564 994 m 428 994 q 448 969 448 994 q 437 912 448 944 q 410 848 426 880 q 351 748 376 775 q 309 702 327 720 q 274 665 292 684 q 285 750 279 707 q 292 836 292 792 q 265 907 292 907 q 428 994 360 994 z "},"#":{"ha":728,"x_min":88,"x_max":810,"o":"m 810 511 q 755 477 798 508 q 657 418 677 418 l 611 418 q 579 351 595 384 q 548 283 564 317 l 718 283 q 663 249 705 280 q 564 191 584 191 l 504 191 q 469 113 486 153 q 429 38 451 73 q 372 -2 417 20 q 305 -35 327 -24 q 276 -54 283 -45 q 395 191 343 82 l 330 191 q 295 113 313 153 q 263 51 277 73 q 237 21 250 29 q 210 4 225 12 q 177 -12 194 -4 q 145 -28 160 -20 q 102 -54 110 -45 q 222 191 176 97 l 88 191 q 119 208 99 193 q 163 239 140 222 q 241 283 222 283 l 265 283 q 296 351 281 317 q 327 418 311 384 l 182 418 q 213 435 193 420 q 256 467 233 450 q 335 511 316 511 l 368 511 q 387 557 377 534 q 405 597 397 580 q 416 627 412 615 q 427 650 420 639 q 454 674 433 661 q 502 699 476 686 q 580 742 572 732 q 480 511 526 612 l 541 511 q 561 557 551 534 q 578 597 571 580 q 590 627 586 615 q 600 648 595 639 q 616 666 605 658 q 643 682 628 674 q 676 699 659 690 q 708 714 693 707 q 754 742 745 732 q 653 511 694 603 l 810 511 m 500 418 l 438 418 q 375 283 420 380 l 438 283 q 469 351 454 317 q 500 418 484 384 z "},"$":{"ha":729,"x_min":98,"x_max":863,"o":"m 444 187 q 605 315 605 187 q 491 420 605 386 q 425 439 458 430 q 359 458 391 448 q 301 483 326 468 q 245 568 245 515 q 458 802 245 681 q 509 829 486 818 l 535 943 q 580 977 538 957 q 639 1006 622 998 q 688 1035 677 1025 l 650 873 q 669 872 660 872 l 687 872 q 766 863 725 872 q 825 846 808 853 q 863 812 863 831 q 785 730 863 778 q 725 698 754 710 q 679 671 695 686 q 709 715 709 701 q 698 739 709 730 q 671 754 688 747 q 635 766 655 761 q 595 774 614 771 q 536 781 555 781 q 399 663 399 781 q 513 553 399 586 q 578 536 545 545 q 644 517 612 527 q 701 493 676 508 q 758 402 758 460 q 591 199 758 307 q 479 138 530 159 l 453 24 q 416 -1 434 11 q 345 -43 372 -31 q 300 -68 317 -54 l 337 94 l 269 94 q 134 119 191 94 q 98 159 98 135 q 213 255 98 196 q 276 290 266 283 q 250 254 250 272 q 262 226 250 236 q 292 209 273 216 q 332 198 310 202 q 376 191 355 193 q 444 187 410 187 z "},"%":{"ha":1324,"x_min":199,"x_max":1375,"o":"m 943 -13 q 870 1 901 -13 q 819 38 840 14 q 779 159 779 85 q 800 287 779 233 q 857 386 821 341 q 1082 557 922 467 q 1210 602 1161 602 q 1288 587 1258 602 q 1336 548 1317 572 q 1375 421 1375 498 q 1302 230 1375 336 q 1134 60 1234 129 q 943 -13 1028 -13 m 1221 1110 q 833 491 1105 838 q 391 -8 581 169 q 322 -62 351 -45 q 274 -88 293 -78 q 199 -132 223 -113 q 796 553 508 160 q 1057 991 969 789 q 1062 1005 1059 997 q 1073 1023 1064 1013 q 1101 1045 1082 1033 q 1141 1067 1120 1057 q 1183 1088 1162 1078 q 1221 1110 1204 1099 m 369 376 q 296 389 326 376 q 245 427 265 403 q 204 548 204 474 q 225 675 204 621 q 282 774 246 730 q 507 945 347 856 q 633 990 586 990 q 710 976 681 990 q 760 937 739 961 q 801 814 801 887 q 729 621 801 726 q 561 450 661 519 q 369 376 456 376 m 1215 266 q 1223 336 1223 301 q 1212 404 1223 371 q 1177 460 1200 437 q 1050 511 1130 511 q 1032 509 1042 511 q 939 330 962 433 q 932 262 932 297 q 941 194 932 228 q 970 134 951 161 q 1090 78 1013 78 q 1117 80 1103 78 q 1215 266 1187 150 m 640 654 q 648 724 648 689 q 636 792 648 760 q 602 849 625 825 q 476 899 555 899 q 457 897 466 899 q 365 719 388 821 q 357 651 357 686 q 367 583 357 616 q 396 523 376 549 q 515 466 439 466 q 543 469 529 466 q 640 654 612 538 z "},"&":{"ha":1464,"x_min":117,"x_max":1639,"o":"m 1032 300 q 1183 623 1183 464 q 1177 682 1183 659 q 1101 688 1138 688 q 958 659 1019 688 q 1092 743 1056 726 q 1251 779 1166 779 q 1360 772 1292 779 q 1527 756 1493 756 q 1639 765 1591 756 q 1596 740 1620 759 q 1555 709 1572 721 q 1519 688 1538 698 q 1480 672 1499 677 q 1403 663 1449 663 q 1333 665 1358 663 q 1056 272 1300 461 q 1193 119 1167 138 q 1426 117 1287 51 q 1217 3 1299 27 q 1139 -8 1179 -8 q 1067 10 1099 -8 q 1007 56 1034 28 q 955 115 979 83 q 909 173 931 146 q 391 -15 611 -15 q 212 24 289 -15 q 117 168 117 72 q 391 479 117 334 q 462 515 429 499 q 353 635 353 545 q 439 798 353 709 q 626 938 517 879 q 804 997 735 997 q 951 921 911 997 q 965 861 965 895 q 728 574 965 707 q 966 377 840 526 q 1032 300 1000 337 m 659 905 q 598 899 628 905 q 505 720 505 812 q 574 624 505 654 q 645 601 609 609 q 699 586 681 592 q 780 660 747 595 q 808 761 808 716 q 767 870 808 836 q 659 905 726 905 m 902 182 q 824 274 863 227 q 742 363 785 321 q 541 495 644 461 q 441 471 490 484 q 355 435 393 458 q 272 267 272 383 q 360 121 272 173 q 534 78 433 78 q 821 138 675 78 q 902 182 866 157 z "},"'":{"ha":271,"x_min":265,"x_max":448,"o":"m 428 994 q 448 969 448 994 q 437 912 448 944 q 410 848 426 880 q 351 748 376 775 q 309 702 327 720 q 274 665 292 684 q 285 750 279 707 q 292 836 292 792 q 265 907 292 907 q 428 994 360 994 z "},"(":{"ha":636,"x_min":132,"x_max":922,"o":"m 922 1155 q 865 1121 897 1145 q 771 1063 805 1076 q 709 1041 737 1050 q 656 1021 682 1032 q 548 946 604 999 q 443 824 491 894 q 359 675 394 753 q 285 350 285 511 q 363 39 285 170 q 517 -95 420 -56 q 629 -115 567 -115 q 593 -137 614 -121 q 550 -168 572 -152 q 476 -208 494 -208 q 210 -52 303 -208 q 132 261 132 81 q 220 613 132 434 q 446 899 308 791 q 922 1155 699 1094 z "},")":{"ha":643,"x_min":-44,"x_max":743,"o":"m -44 -208 q 15 -172 -18 -197 q 109 -115 75 -127 q 174 -94 142 -104 q 387 45 294 -54 q 564 377 517 182 q 587 543 587 471 q 579 672 587 616 q 554 782 571 728 q 511 885 537 836 q 447 972 484 934 q 252 1063 366 1055 q 311 1100 269 1069 q 372 1143 353 1131 q 408 1156 391 1156 q 494 1133 437 1156 q 601 1060 551 1111 q 682 946 651 1010 q 743 667 743 825 q 628 269 743 462 q 338 -41 521 88 q -44 -208 155 -170 z "},"*":{"ha":674,"x_min":208,"x_max":797,"o":"m 492 701 q 497 785 497 742 q 482 930 497 890 q 480 942 480 935 q 499 955 480 948 q 543 967 518 962 q 611 979 597 979 q 633 979 625 979 q 642 968 642 978 q 636 938 642 958 q 622 893 631 918 q 602 841 613 868 q 581 789 591 814 q 545 713 555 732 q 724 849 661 782 q 734 854 730 854 q 746 848 739 854 q 760 831 753 841 q 773 808 766 821 q 785 783 780 795 q 797 747 797 755 q 780 730 797 739 q 738 712 764 722 q 682 695 713 703 q 623 680 652 686 q 540 662 563 665 q 631 573 591 602 q 681 539 671 543 q 695 533 691 534 q 703 530 699 532 q 713 521 713 526 q 705 506 713 516 q 685 481 697 495 q 659 454 673 468 q 631 427 645 439 q 591 400 600 400 q 573 416 583 400 q 552 456 563 432 q 532 510 542 481 q 514 567 522 540 q 496 647 496 628 q 325 432 382 538 q 322 427 323 430 q 314 425 320 425 q 289 434 307 425 q 253 457 271 444 q 208 507 208 490 q 245 545 208 519 q 311 588 283 570 q 365 621 339 606 q 439 663 425 655 q 360 684 410 668 q 292 709 311 701 q 249 741 249 728 q 280 783 249 751 q 324 825 311 814 q 358 850 353 850 q 370 837 364 850 q 391 805 376 825 q 422 766 405 785 q 492 701 451 734 z "},"+":{"ha":707,"x_min":129,"x_max":772,"o":"m 772 417 q 720 386 757 414 q 667 347 682 357 q 618 325 633 325 l 505 325 l 470 172 q 424 137 467 158 q 363 109 380 117 q 317 80 323 87 l 374 325 l 129 325 q 178 355 138 326 q 233 394 218 384 q 282 417 267 417 l 395 417 l 431 570 q 477 605 434 584 q 537 633 520 625 q 584 662 577 654 l 527 417 l 772 417 z "},",":{"ha":319,"x_min":82,"x_max":275,"o":"m 235 185 q 275 66 274 96 l 275 62 q 204 -104 275 -24 q 132 -165 162 -153 q 85 -190 102 -177 q 180 -74 151 -138 q 191 -26 191 -51 q 170 -1 191 -1 q 127 -20 165 -1 l 82 93 l 235 185 z "},"-":{"ha":802,"x_min":176,"x_max":819,"o":"m 819 417 q 768 387 808 415 q 714 348 729 358 q 665 325 680 325 l 176 325 q 225 355 186 326 q 279 394 264 384 q 329 417 313 417 l 819 417 z "},".":{"ha":312,"x_min":82,"x_max":280,"o":"m 280 72 l 127 -20 l 82 93 l 235 185 l 280 72 z "},"/":{"ha":647,"x_min":54,"x_max":814,"o":"m 814 976 q 360 283 607 602 q 327 240 347 267 q 286 184 307 213 q 210 95 231 115 q 169 65 189 76 q 130 44 149 54 q 54 0 77 18 q 619 812 371 378 q 627 824 620 813 q 641 849 633 836 q 669 891 660 882 q 697 911 677 900 q 736 933 716 923 q 776 952 756 943 q 814 976 796 962 z "},":":{"ha":370,"x_min":112,"x_max":411,"o":"m 411 506 l 258 414 l 213 527 l 366 619 l 411 506 m 310 72 l 157 -20 l 112 93 l 265 185 l 310 72 z "},";":{"ha":372,"x_min":112,"x_max":411,"o":"m 411 506 l 258 414 l 213 527 l 366 619 l 411 506 m 265 185 q 305 60 305 88 q 296 2 305 31 q 270 -55 286 -28 q 190 -146 237 -109 q 153 -168 172 -160 q 115 -190 133 -176 q 210 -74 180 -138 q 220 -26 220 -51 q 200 -1 220 -1 q 157 -20 189 -1 l 112 93 l 265 185 z "},"<":{"ha":634,"x_min":122,"x_max":734,"o":"m 439 -1 l 437 0 q 304 119 370 49 l 201 228 q 122 302 163 267 q 250 380 183 329 q 283 400 260 388 q 339 431 307 413 q 403 469 372 450 q 552 589 492 525 q 582 619 566 603 q 618 646 598 635 q 659 667 639 658 q 734 710 716 693 q 407 452 625 578 q 288 385 345 416 q 446 245 368 316 q 590 92 524 175 q 551 70 576 87 q 508 42 525 53 q 476 21 490 31 q 439 -1 442 -1 z "},"=":{"ha":829,"x_min":170,"x_max":843,"o":"m 843 511 q 792 480 830 508 q 739 441 754 452 q 690 418 705 418 l 214 418 q 266 450 229 421 q 318 488 303 478 q 367 511 353 511 l 843 511 m 800 323 q 748 292 787 321 q 695 254 710 264 q 646 231 661 231 l 170 231 q 220 261 180 233 q 275 300 260 290 q 323 323 309 323 l 800 323 z "},">":{"ha":637,"x_min":83,"x_max":694,"o":"m 377 711 l 380 710 q 512 591 446 661 l 616 483 q 694 408 653 443 q 622 367 665 394 q 567 331 578 339 q 533 310 556 322 q 477 279 510 297 q 414 241 445 260 q 264 121 323 184 q 201 65 224 78 q 157 43 178 52 q 83 0 100 17 q 410 258 191 130 q 529 326 471 294 q 318 516 376 455 q 227 618 259 576 q 268 641 243 625 q 309 668 292 657 q 340 689 326 680 q 377 711 374 711 z "},"?":{"ha":716,"x_min":212,"x_max":859,"o":"m 337 220 l 337 223 q 476 430 336 326 q 598 529 564 494 q 657 598 633 563 q 713 749 713 677 q 655 867 713 823 q 526 907 604 907 q 409 840 457 907 q 365 708 365 779 q 372 656 365 682 l 219 564 q 212 620 212 590 q 221 680 212 649 q 247 739 231 711 q 322 828 279 793 q 408 892 365 863 q 499 945 452 921 q 689 1000 607 1000 q 811 954 764 1000 q 859 832 859 907 q 754 621 859 715 q 659 544 722 592 q 568 469 595 495 q 492 331 492 396 q 479 298 492 307 q 449 279 466 288 q 414 262 433 271 q 378 245 395 253 q 337 220 341 227 m 477 72 l 323 -20 l 279 93 l 433 185 l 477 72 z "},"@":{"ha":1029,"x_min":100,"x_max":1104,"o":"m 800 137 l 804 137 q 939 391 902 255 q 952 483 952 437 q 937 566 952 528 q 895 629 922 603 q 744 682 838 682 q 504 602 621 682 q 326 406 393 525 q 256 161 256 283 q 372 -57 256 -2 q 465 -77 411 -76 q 407 -113 447 -82 q 346 -157 366 -144 q 311 -170 326 -170 q 152 -96 208 -170 q 100 75 100 -30 q 231 412 100 246 q 595 684 349 562 q 912 779 789 779 q 1055 720 1004 779 q 1104 571 1104 665 q 1003 301 1104 448 q 747 66 884 129 q 656 44 699 44 q 612 85 612 44 q 619 123 612 100 q 452 56 517 56 q 343 113 370 56 q 334 168 334 132 q 354 248 334 203 q 406 335 373 293 q 481 413 438 376 q 570 477 524 450 q 753 536 669 536 q 825 504 801 536 q 870 528 851 518 q 920 557 911 548 q 896 505 911 536 q 864 437 881 474 q 828 361 846 400 q 796 286 810 322 q 763 170 763 204 q 800 137 763 136 m 490 252 q 608 150 490 150 q 674 251 634 150 q 692 331 692 298 q 688 382 692 364 q 674 412 684 399 q 618 441 653 441 q 561 421 583 441 q 522 372 538 401 q 490 252 490 312 z "},"A":{"ha":958,"x_min":-11,"x_max":1023,"o":"m 143 92 q 186 92 151 92 q 247 94 222 92 q 298 100 272 96 q 390 129 356 110 q 230 33 270 48 q 160 11 189 17 q 15 0 102 0 l -11 0 l -9 3 q 36 42 14 22 q 96 99 58 61 q 182 198 134 138 q 275 323 231 259 q 362 451 319 387 q 448 582 404 516 q 538 714 492 648 q 608 820 584 781 q 636 868 631 859 q 648 884 641 876 l 596 884 q 393 855 469 884 q 585 960 509 940 q 693 975 635 974 q 801 976 751 976 q 828 581 815 777 q 852 276 841 385 q 864 149 863 168 q 871 116 865 131 q 926 83 883 83 q 1023 113 970 83 q 970 78 1002 99 q 903 37 938 56 q 773 -12 817 -12 q 716 34 726 -12 q 696 206 701 99 q 684 397 691 313 q 385 359 614 354 q 143 92 276 210 m 593 451 q 680 454 636 451 q 656 757 667 611 q 450 452 559 609 q 460 454 458 454 l 593 451 z "},"B":{"ha":846,"x_min":137,"x_max":918,"o":"m 239 884 q 392 976 377 976 l 712 977 q 840 960 802 977 q 899 919 879 944 q 918 846 918 894 q 897 756 918 798 q 842 682 876 715 q 686 574 798 639 q 860 473 816 559 q 876 399 876 443 q 854 310 876 355 q 797 225 833 266 q 716 150 762 185 q 621 87 670 115 q 365 1 481 7 q 292 0 328 0 l 137 0 q 187 62 178 45 q 214 140 202 87 l 388 884 l 239 884 m 447 573 q 566 576 511 576 q 646 573 622 576 q 766 756 766 608 q 568 888 766 888 q 520 887 543 888 l 447 573 m 703 218 q 721 308 721 260 q 707 384 721 356 q 671 430 694 412 q 618 459 648 448 q 555 475 588 470 q 427 484 506 484 q 397 359 412 421 q 374 257 383 298 q 356 198 364 217 q 339 159 349 178 q 292 92 321 124 l 481 92 q 703 218 650 92 z "},"C":{"ha":937,"x_min":149,"x_max":1152,"o":"m 1080 990 q 1104 984 1080 990 q 1140 971 1128 978 q 1152 960 1152 965 q 1139 945 1152 954 q 1108 923 1127 935 q 1066 896 1089 910 q 1023 870 1044 882 q 962 838 972 841 q 970 843 964 840 q 981 852 975 847 q 996 868 996 863 q 966 885 996 873 q 795 909 904 909 q 593 871 686 909 q 437 764 501 832 q 304 398 304 623 q 382 160 304 250 q 612 66 465 66 q 928 143 732 66 q 575 -16 778 26 q 444 -29 511 -29 q 320 -5 377 -29 q 226 61 264 18 q 149 293 149 147 q 278 654 149 483 q 589 907 397 810 q 964 1002 778 1002 q 1080 990 1032 1002 z "},"D":{"ha":1059,"x_min":131,"x_max":1141,"o":"m 349 0 l 131 0 q 214 140 188 47 q 227 193 221 166 l 389 884 l 239 884 q 275 904 254 889 q 319 936 296 920 q 393 976 374 976 l 694 977 q 997 907 877 977 q 1141 648 1141 823 q 1015 303 1141 458 q 713 79 900 161 q 349 0 534 0 m 870 222 q 960 376 930 286 q 991 555 991 466 q 971 693 991 644 q 917 777 951 743 q 837 832 882 811 q 739 865 791 853 q 520 884 652 884 l 368 230 q 345 158 355 178 q 292 90 327 126 l 517 90 q 870 222 745 90 z "},"E":{"ha":774,"x_min":118,"x_max":971,"o":"m 258 884 q 411 976 396 976 l 971 976 q 919 945 956 973 q 867 906 882 916 q 818 884 832 884 l 516 884 l 439 555 l 769 555 q 717 524 754 552 q 665 486 680 495 q 616 463 630 463 l 418 463 l 367 241 q 315 117 351 167 q 286 92 302 99 l 663 92 q 794 127 703 92 q 624 26 747 85 q 550 0 568 0 l 118 0 q 201 119 169 51 q 223 190 212 142 q 251 312 234 238 q 286 463 269 387 l 191 463 q 248 500 220 481 q 304 536 275 519 l 385 884 l 258 884 z "},"F":{"ha":742,"x_min":120,"x_max":1004,"o":"m 1004 976 q 952 945 989 973 q 900 906 915 916 q 851 884 865 884 l 518 884 l 433 515 l 762 515 q 710 483 748 512 q 657 445 672 454 q 608 422 623 422 l 411 422 l 374 263 q 317 125 357 186 q 286 92 303 104 l 503 92 q 451 61 488 90 q 399 23 414 33 q 350 0 364 0 l 120 0 q 203 121 172 54 q 239 251 215 144 q 279 422 264 357 l 184 422 q 240 459 212 441 q 296 496 268 478 l 387 884 l 260 884 q 278 896 266 888 q 306 915 290 905 q 337 936 321 925 q 369 956 354 947 q 413 976 404 976 l 1004 976 z "},"G":{"ha":1105,"x_min":153,"x_max":1238,"o":"m 1163 981 q 1219 957 1199 969 q 1238 939 1238 945 q 1226 923 1238 932 q 1196 901 1214 913 q 1155 876 1177 889 q 1112 850 1132 863 q 1053 819 1068 825 q 1061 825 1055 821 q 1072 834 1067 829 q 1085 856 1085 845 q 1066 877 1085 866 q 1019 896 1048 888 q 955 909 990 903 q 886 918 920 914 q 767 924 825 924 q 643 904 708 924 q 526 850 578 885 q 432 767 473 816 q 363 661 391 719 q 307 399 307 542 q 396 157 307 247 q 638 68 486 68 q 848 99 754 68 q 905 127 882 110 l 975 422 l 780 422 q 798 434 786 426 q 826 453 810 443 q 858 475 841 464 q 890 494 875 486 q 933 515 924 515 l 1210 515 q 1151 480 1180 503 q 1111 450 1122 458 l 1057 215 q 803 47 959 119 q 510 -26 643 -26 q 252 57 347 -26 q 153 304 153 144 q 275 662 153 492 q 574 918 389 820 q 943 1015 758 1015 q 1163 981 1055 1015 z "},"H":{"ha":1135,"x_min":119,"x_max":1345,"o":"m 896 884 q 1049 976 1034 976 l 1345 976 q 1295 945 1334 974 q 1240 907 1255 917 q 1192 884 1206 884 l 1155 884 l 1010 263 q 983 176 996 199 q 922 92 964 136 l 1139 92 q 1089 62 1128 90 q 1035 23 1050 33 q 986 0 1001 0 l 756 0 q 817 66 803 42 q 855 162 840 102 l 925 463 l 420 463 l 373 263 q 347 174 357 197 q 286 92 328 136 l 503 92 q 452 62 492 90 q 398 23 413 33 q 349 0 364 0 l 119 0 q 204 113 180 41 q 218 162 212 136 l 386 884 l 259 884 q 412 976 397 976 l 708 976 q 658 945 697 974 q 604 907 618 917 q 555 884 570 884 l 517 884 l 441 555 l 946 555 l 1023 884 l 896 884 z "},"I":{"ha":502,"x_min":120,"x_max":722,"o":"m 260 884 q 413 976 398 976 l 722 976 q 668 943 711 975 q 604 898 625 911 q 569 884 582 884 l 518 884 l 374 263 q 316 127 355 185 q 286 92 302 106 l 503 92 q 451 61 488 90 q 399 23 414 33 q 350 0 364 0 l 120 0 q 181 64 166 38 q 218 162 204 102 l 387 884 l 260 884 z "},"J":{"ha":480,"x_min":-370,"x_max":720,"o":"m 257 884 q 410 976 395 976 l 720 976 q 660 939 701 970 q 600 896 620 909 q 566 884 581 884 l 515 884 q 430 517 473 699 q 345 151 388 336 q 141 -195 302 -33 q -87 -346 35 -302 q -212 -368 -149 -368 q -281 -353 -241 -368 q -336 -328 -321 -337 q -370 -290 -370 -308 q -201 -168 -370 -260 q -176 -155 -183 -159 q -220 -199 -220 -185 q -192 -225 -220 -206 q -142 -255 -163 -245 q -55 -277 -96 -277 q 17 -260 -14 -277 q 73 -217 48 -244 q 117 -155 98 -190 q 151 -83 136 -120 q 192 58 170 -33 l 384 884 l 257 884 z "},"K":{"ha":1132,"x_min":121,"x_max":1230,"o":"m 977 884 q 605 589 838 766 q 953 164 879 238 q 1097 91 1025 91 q 1206 123 1138 91 q 999 9 1105 43 q 931 -3 961 -3 q 878 7 901 -3 q 836 34 856 18 q 799 70 817 50 q 731 146 782 90 q 441 493 646 241 q 720 714 644 654 q 840 810 795 775 q 927 884 884 846 l 808 884 q 827 896 814 888 q 854 915 839 905 q 886 936 869 925 q 918 956 903 947 q 962 976 953 976 l 1230 976 q 1172 940 1213 970 q 1111 896 1131 909 q 1077 884 1090 884 l 977 884 m 260 884 q 414 976 399 976 l 723 976 q 671 945 708 973 q 618 906 633 916 q 570 884 584 884 l 519 884 l 374 263 q 347 174 358 195 q 287 92 329 136 l 504 92 q 452 61 489 90 q 399 23 414 33 q 351 0 365 0 l 121 0 q 237 236 197 65 l 387 884 l 260 884 z "},"L":{"ha":763,"x_min":114,"x_max":798,"o":"m 260 884 q 414 976 399 976 l 723 976 q 671 945 708 973 q 618 906 633 916 q 570 884 584 884 l 519 884 q 443 546 480 715 q 362 208 405 376 q 323 134 351 163 q 278 92 296 104 l 664 92 q 798 129 745 92 q 618 12 714 45 q 553 0 584 0 l 114 0 q 203 111 181 52 q 219 162 212 134 l 387 884 l 260 884 z "},"M":{"ha":1512,"x_min":87,"x_max":1544,"o":"m 463 92 q 310 0 325 0 l 87 0 q 197 183 142 44 q 429 884 279 391 l 258 884 q 368 957 330 938 q 411 976 406 976 l 582 976 q 651 788 616 882 q 712 624 686 695 q 756 505 738 552 q 791 410 774 457 q 847 214 829 305 q 1032 449 941 332 q 1190 652 1122 566 q 1301 795 1258 739 q 1372 884 1343 852 q 1420 928 1400 916 q 1462 953 1440 941 q 1507 976 1485 965 q 1544 996 1529 987 q 1488 692 1516 843 q 1442 447 1459 541 q 1419 318 1425 353 q 1405 244 1414 283 q 1335 92 1383 149 l 1535 92 q 1476 55 1517 86 q 1415 12 1434 24 q 1382 0 1396 0 l 1180 0 q 1237 103 1220 43 q 1300 404 1260 184 q 1365 764 1341 625 q 1191 546 1277 655 q 1049 367 1105 437 q 967 263 992 296 q 923 206 943 231 q 890 161 904 180 q 865 131 876 142 q 834 106 854 119 q 789 79 813 94 q 741 52 764 65 q 707 33 718 39 q 664 242 697 142 q 607 401 630 342 q 562 521 584 460 l 496 701 q 353 276 387 357 q 296 155 319 195 q 246 92 273 115 l 463 92 z "},"N":{"ha":1237,"x_min":127,"x_max":1459,"o":"m 1050 884 q 1203 976 1188 976 l 1459 976 q 1400 941 1432 968 q 1309 884 1341 894 q 1285 776 1299 829 q 1248 627 1271 722 q 1082 140 1202 433 q 1067 104 1074 123 q 1052 73 1061 85 q 1027 46 1044 60 q 992 20 1011 33 q 954 -5 972 7 q 924 -23 935 -16 l 924 -12 q 891 91 924 33 q 833 193 882 107 q 494 730 707 412 l 427 437 q 407 347 417 395 q 380 252 396 299 q 285 92 343 144 l 504 92 q 351 0 366 0 l 127 0 q 208 119 182 60 q 273 326 245 205 q 387 884 340 612 l 233 884 q 387 976 372 976 l 642 976 q 573 930 620 967 q 807 578 720 722 q 936 369 895 435 q 1017 233 978 302 q 1171 884 1120 554 l 1050 884 z "},"O":{"ha":1188,"x_min":145,"x_max":1286,"o":"m 510 -55 q 370 -36 439 -55 q 252 24 302 -16 q 145 274 145 111 q 263 633 145 460 q 553 901 375 799 q 919 1006 736 1006 q 1177 916 1074 1006 q 1286 669 1286 823 q 1131 290 1286 485 q 779 11 984 108 q 510 -55 640 -55 m 1129 585 q 1101 723 1129 660 q 1024 827 1074 786 q 759 911 926 911 q 503 833 611 911 q 351 635 405 762 q 302 372 302 517 q 406 117 302 205 q 673 35 503 35 q 919 117 810 35 q 1074 320 1017 191 q 1129 585 1129 442 z "},"P":{"ha":833,"x_min":113,"x_max":997,"o":"m 235 884 q 389 976 374 976 l 753 976 q 975 877 914 976 q 997 793 997 842 q 982 703 997 744 q 941 625 966 661 q 881 557 915 589 q 808 499 846 526 q 674 420 746 455 q 439 357 547 357 q 401 359 420 357 q 361 214 376 248 q 267 92 332 140 l 481 92 q 422 57 463 87 q 362 13 382 26 q 328 0 342 0 l 113 0 q 186 70 168 41 q 228 182 211 110 l 391 884 l 235 884 m 430 482 q 610 450 553 450 q 712 470 668 450 q 787 524 757 489 q 846 707 846 593 q 553 884 846 884 l 524 884 l 430 482 z "},"Q":{"ha":1193,"x_min":151,"x_max":1486,"o":"m 758 22 q 525 -28 648 -28 q 259 52 359 -28 q 151 300 151 139 q 271 650 151 480 q 561 906 383 808 q 920 1006 742 1006 q 1178 916 1074 1006 q 1286 669 1286 823 q 1168 350 1286 509 q 915 112 1069 215 q 1006 36 960 75 q 1104 -35 1053 -3 q 1326 -107 1219 -107 q 1486 -70 1379 -107 q 1252 -189 1379 -157 q 1164 -200 1208 -200 q 1003 -156 1078 -200 q 871 -67 928 -111 q 758 22 814 -22 m 1132 587 q 1103 722 1132 660 q 1023 826 1074 785 q 759 911 920 911 q 421 755 546 911 q 306 397 306 612 q 413 145 306 235 q 680 62 514 62 q 918 140 810 62 q 1075 332 1016 212 q 1132 587 1132 450 z "},"R":{"ha":979,"x_min":130,"x_max":1057,"o":"m 724 976 q 996 821 996 976 q 810 549 996 673 q 663 469 743 504 q 718 431 698 454 q 749 391 738 408 q 771 358 760 375 l 903 163 q 919 138 911 151 q 938 115 928 125 q 983 90 961 90 q 1057 112 1018 90 q 891 6 987 35 q 837 -3 859 -3 q 806 1 815 -3 q 789 14 797 6 q 776 31 782 22 q 764 49 770 40 l 629 249 q 585 315 604 287 q 543 363 566 344 q 408 400 499 400 l 376 263 q 349 174 360 195 q 289 92 331 136 l 506 92 q 451 58 493 90 q 353 0 372 0 l 130 0 q 221 162 197 58 l 389 884 l 243 884 q 396 976 381 976 l 724 976 m 724 526 q 793 581 764 546 q 831 657 822 616 q 841 726 841 699 q 830 778 841 753 q 802 820 820 802 q 761 850 785 838 q 712 870 738 863 q 605 884 665 884 l 521 884 l 431 495 l 536 495 q 724 526 659 495 z "},"S":{"ha":788,"x_min":62,"x_max":922,"o":"m 251 216 q 219 166 219 190 q 231 130 219 143 q 263 108 243 117 q 306 93 282 99 q 353 83 330 87 q 437 77 395 77 q 523 89 478 77 q 604 123 568 100 q 681 278 681 176 q 543 433 681 378 q 463 462 504 448 q 383 491 422 476 q 313 526 344 507 q 245 639 245 570 q 346 812 245 724 q 563 943 432 888 q 766 995 686 995 q 866 983 829 995 q 912 965 903 972 q 922 950 922 958 q 910 930 922 942 q 880 905 898 919 q 839 878 861 892 q 796 852 817 863 q 734 819 745 823 q 765 855 765 840 q 746 880 765 871 q 701 894 726 888 q 617 902 659 902 q 536 894 575 902 q 467 866 496 886 q 399 732 399 823 q 536 582 399 631 q 615 555 574 568 q 694 529 655 543 q 762 494 732 515 q 830 383 830 449 q 802 265 830 317 q 728 170 774 214 q 623 92 682 126 q 502 33 564 57 q 268 -16 372 -16 q 170 -4 215 -16 q 105 19 124 9 q 62 70 62 41 q 251 216 62 127 z "},"T":{"ha":844,"x_min":203,"x_max":1122,"o":"m 203 884 q 357 976 342 976 l 1122 976 q 1072 945 1111 974 q 1017 907 1032 917 q 968 884 983 884 l 690 884 l 546 263 q 484 124 525 180 q 451 92 469 103 l 675 92 q 624 61 662 90 q 570 23 585 33 q 522 0 536 0 l 285 0 q 352 63 336 38 q 391 162 377 104 l 558 884 l 203 884 z "},"U":{"ha":1179,"x_min":220,"x_max":1413,"o":"m 1413 977 q 1354 940 1394 970 q 1294 897 1314 909 q 1260 884 1274 884 l 1210 884 l 1065 264 q 970 93 1036 149 l 1194 93 q 1135 56 1175 86 q 1075 13 1095 26 q 1041 1 1055 1 l 818 1 q 887 92 874 62 q 906 146 900 121 q 709 40 780 69 q 459 -18 568 -18 q 237 90 284 -18 q 220 175 220 129 q 237 321 220 243 l 368 884 l 254 884 q 273 897 260 888 q 300 916 285 905 q 332 937 315 926 q 363 956 349 947 q 408 977 398 977 l 690 977 q 630 940 670 970 q 570 897 590 909 q 536 884 551 884 l 500 884 l 378 360 q 368 269 368 317 q 389 183 368 221 q 443 121 409 144 q 617 75 507 75 q 846 136 718 75 q 911 170 884 153 l 1078 884 l 951 884 q 969 897 957 888 q 997 916 981 905 q 1028 937 1012 926 q 1060 956 1045 947 q 1104 977 1095 977 l 1413 977 z "},"V":{"ha":989,"x_min":160,"x_max":1153,"o":"m 1081 983 q 1153 917 1153 983 q 684 191 1153 749 q 624 118 653 155 q 568 59 594 81 q 522 26 543 37 q 481 5 502 15 q 408 -40 427 -22 q 407 151 407 -11 q 402 434 407 313 q 386 625 397 555 q 371 718 374 694 q 360 765 367 741 q 345 812 354 789 q 322 853 336 835 q 248 893 292 893 q 209 886 225 893 l 182 873 q 160 867 172 869 q 409 987 326 987 q 499 901 467 987 q 560 212 564 720 q 560 132 560 163 q 610 193 581 157 q 675 273 640 229 q 747 365 709 316 q 821 465 785 414 q 889 567 857 516 q 945 663 921 617 q 998 821 998 763 q 930 892 998 892 q 880 884 907 892 q 931 911 909 895 q 974 944 953 928 q 1081 983 1027 983 z "},"W":{"ha":1465,"x_min":155,"x_max":1630,"o":"m 839 883 q 989 976 911 926 q 1092 354 1065 907 q 1098 184 1095 281 q 1193 321 1122 220 q 1303 481 1263 422 q 1379 597 1344 541 q 1469 774 1457 721 q 1474 812 1474 793 q 1470 846 1474 831 q 1459 872 1467 861 q 1407 899 1442 899 q 1356 887 1381 899 q 1404 916 1380 898 q 1453 949 1428 933 q 1552 989 1512 989 q 1611 966 1592 989 q 1630 908 1630 943 q 1609 831 1630 875 q 1561 744 1587 787 q 1503 650 1535 700 q 1437 548 1472 600 q 1368 445 1403 496 q 1302 349 1333 394 q 1246 267 1272 304 q 1206 209 1220 230 q 1180 169 1192 188 q 1156 130 1168 149 q 1110 68 1127 85 q 1073 39 1093 52 q 1028 13 1053 26 q 982 -14 1004 -1 q 947 -33 959 -26 q 944 125 945 46 q 940 283 943 205 q 914 600 932 466 q 783 394 851 494 q 668 227 714 294 q 600 124 623 159 q 559 70 577 88 q 521 39 541 52 q 476 13 500 26 q 395 -33 414 -22 l 395 -20 l 397 195 l 397 258 q 290 868 397 755 q 240 893 266 893 q 155 871 197 893 q 336 975 233 938 q 393 987 370 987 q 426 982 415 987 q 454 960 437 976 q 484 906 470 943 q 508 819 498 869 q 526 711 519 770 q 537 592 532 653 q 543 470 541 531 q 546 355 545 410 q 547 256 547 301 l 547 182 q 604 265 571 218 q 672 366 637 312 q 743 478 708 420 q 806 591 779 536 q 869 782 869 718 q 839 883 869 847 z "},"X":{"ha":1107,"x_min":9,"x_max":1352,"o":"m 1112 884 q 753 568 999 779 q 841 384 778 511 q 930 210 905 257 q 1000 93 987 101 q 1043 77 1027 77 q 1071 80 1058 77 q 1097 89 1084 84 q 1124 100 1111 94 q 1145 109 1137 106 q 964 -1 1053 32 q 907 -14 930 -14 q 871 -9 884 -14 q 846 5 857 -3 q 736 193 812 35 q 612 451 659 351 l 168 93 l 412 93 q 377 71 398 87 q 334 40 355 56 q 259 0 277 0 l 9 0 l 600 474 q 497 679 547 580 q 436 802 446 779 q 411 846 425 825 q 334 895 378 895 q 243 868 292 895 q 433 977 338 941 q 491 989 467 989 q 529 979 515 989 q 554 956 543 970 q 572 924 564 941 q 604 862 580 907 q 739 594 665 743 q 1056 884 953 797 l 890 884 q 948 921 908 890 q 1009 964 989 951 q 1043 977 1029 977 l 1352 977 q 1293 940 1333 970 q 1233 897 1253 909 q 1199 884 1213 884 l 1112 884 z "},"Y":{"ha":851,"x_min":146,"x_max":1023,"o":"m 614 422 q 561 207 572 233 q 540 161 551 180 q 490 92 519 121 l 707 92 q 652 58 694 89 q 554 0 574 0 l 317 0 q 382 68 364 39 q 426 174 413 118 l 466 346 q 469 393 469 363 q 410 670 469 500 q 290 883 355 827 q 245 904 264 904 q 214 901 227 904 q 189 893 201 898 q 146 871 170 886 q 320 979 224 947 q 384 989 353 989 q 473 937 438 989 q 593 627 546 825 q 616 472 612 541 q 856 774 803 652 q 869 836 869 806 q 851 883 869 865 q 806 901 833 901 q 762 896 779 901 q 803 918 783 902 q 845 950 823 933 q 941 993 901 993 q 1023 928 1023 993 q 677 484 1023 815 q 614 422 637 446 z "},"Z":{"ha":846,"x_min":7,"x_max":1000,"o":"m 511 981 l 879 970 q 1000 975 951 970 q 909 891 950 938 q 817 786 867 844 q 709 660 767 728 q 595 528 650 592 q 490 406 541 465 q 385 290 439 347 q 153 85 264 163 q 399 101 288 101 q 726 92 399 101 q 864 127 776 92 q 671 11 779 45 q 601 0 635 0 l 7 0 q 391 377 167 115 q 592 612 532 541 q 693 731 651 684 q 771 815 736 779 q 846 883 806 852 q 726 878 797 878 l 400 888 q 279 883 328 888 q 427 975 402 970 q 511 981 459 981 z "},"[":{"ha":480,"x_min":24,"x_max":770,"o":"m 460 -119 q 307 -212 322 -212 l 24 -212 q 120 -31 90 -160 l 374 1061 q 479 1133 376 1078 q 527 1153 517 1153 l 770 1153 q 720 1122 759 1151 q 665 1084 680 1094 q 616 1061 631 1061 l 506 1061 l 257 -9 q 205 -98 248 -54 q 180 -119 193 -111 l 460 -119 z "},"\\":{"ha":664,"x_min":294,"x_max":644,"o":"m 491 0 q 294 884 338 414 q 371 930 334 905 q 448 976 408 954 q 617 170 489 526 q 644 92 631 132 q 609 69 629 83 q 568 42 589 56 q 491 0 516 9 z "},"]":{"ha":481,"x_min":-52,"x_max":694,"o":"m 257 1061 q 410 1153 395 1153 l 694 1153 q 599 978 621 1074 l 344 -119 q 239 -191 337 -139 q 191 -212 200 -212 l -52 -212 q 0 -180 -37 -209 q 52 -142 37 -152 q 101 -119 87 -119 l 212 -119 l 460 951 q 534 1061 469 991 l 257 1061 z "},"^":{"ha":472,"x_min":0,"x_max":472,"o":"m 472 593 q 403 547 474 581 q 319 500 326 509 l 272 762 l 153 593 q 96 552 140 573 q 30 521 52 532 q 0 500 9 511 l 254 863 q 301 895 259 871 q 358 928 342 918 q 407 955 387 943 l 472 593 z "},"_":{"ha":675,"x_min":-33,"x_max":610,"o":"m 610 -136 q 560 -166 600 -138 q 506 -205 521 -195 q 457 -228 472 -228 l -33 -228 q 17 -198 -22 -227 q 71 -159 56 -169 q 121 -136 105 -136 l 610 -136 z "},"`":{"ha":307,"x_min":0,"x_max":307,"o":"m 307 943 q 288 930 300 939 q 260 911 275 922 q 228 891 245 901 q 197 871 212 880 q 153 850 163 852 q 60 945 95 890 q 0 1065 24 1000 q 66 1110 5 1076 q 152 1157 148 1157 q 156 1153 157 1157 q 159 1141 156 1149 q 184 1085 163 1125 q 307 943 233 991 z "},"a":{"ha":756,"x_min":106,"x_max":777,"o":"m 290 -14 q 106 168 106 -14 q 180 412 106 292 q 365 598 250 526 q 608 673 483 673 q 708 656 663 673 q 777 633 754 640 l 673 188 q 665 135 665 153 q 730 81 665 81 q 771 85 751 81 q 727 54 750 71 q 680 23 704 37 q 576 -11 621 -11 q 514 14 527 -11 q 509 38 509 24 q 517 90 509 60 q 466 55 492 73 q 410 22 439 37 q 290 -14 344 -14 m 254 235 q 414 78 254 78 q 471 94 440 78 q 532 147 525 122 l 610 483 q 557 558 591 534 q 477 582 523 582 q 401 565 431 582 q 348 519 372 547 q 307 454 324 490 q 277 379 289 418 q 254 235 254 302 z "},"b":{"ha":764,"x_min":149,"x_max":821,"o":"m 366 547 q 644 666 527 666 q 810 549 775 666 q 821 464 821 513 q 800 355 821 414 q 743 241 779 296 q 659 139 707 186 q 555 56 610 91 q 329 -22 437 -22 q 199 25 250 -22 q 149 151 149 73 q 155 205 149 179 l 311 878 q 323 948 323 928 q 277 998 323 998 q 219 987 260 998 q 288 1032 252 1008 q 361 1078 323 1055 q 509 1158 446 1128 l 366 547 m 648 238 q 654 256 648 238 q 665 310 660 273 q 670 385 670 347 q 660 458 670 422 q 630 519 650 494 q 501 575 586 575 q 392 518 442 575 q 333 405 349 468 l 294 237 q 290 191 290 219 q 302 139 290 163 q 336 97 315 114 q 432 64 378 64 q 519 78 486 64 q 576 116 551 92 q 619 171 602 140 q 648 238 637 203 z "},"c":{"ha":635,"x_min":104,"x_max":781,"o":"m 611 525 q 623 536 616 528 q 629 549 629 545 q 621 559 629 553 q 599 570 612 565 q 570 579 586 575 q 538 587 554 584 q 479 593 505 593 q 420 579 453 593 q 361 542 387 566 q 316 488 336 519 q 285 422 297 456 q 260 291 260 353 q 275 191 260 229 q 319 130 291 154 q 475 81 374 81 q 639 122 556 81 q 397 0 535 32 q 309 -11 353 -11 q 226 2 264 -11 q 161 41 188 16 q 104 189 104 94 q 194 424 104 304 q 405 608 278 536 q 646 683 535 683 q 769 653 721 683 q 781 640 781 647 q 770 622 781 632 q 743 598 760 611 q 706 573 726 586 q 667 549 686 560 q 611 525 625 526 z "},"d":{"ha":795,"x_min":106,"x_max":930,"o":"m 745 947 q 701 998 745 998 q 671 994 686 998 q 641 987 656 991 q 783 1078 712 1033 q 930 1158 854 1122 l 705 188 q 697 135 697 159 q 762 81 697 81 q 803 85 783 81 q 759 54 782 71 q 711 23 736 37 q 607 -11 652 -11 q 547 14 559 -11 q 541 38 541 24 q 549 90 541 60 q 384 1 434 16 q 302 -14 333 -14 q 157 35 208 -14 q 106 179 106 84 q 189 422 106 303 q 391 602 267 531 q 640 673 516 673 q 685 668 665 673 l 736 890 q 745 947 745 926 m 642 483 q 479 582 605 582 q 309 475 368 582 q 258 281 258 385 q 446 78 258 78 q 503 94 472 78 q 564 147 557 122 l 642 483 z "},"e":{"ha":589,"x_min":104,"x_max":643,"o":"m 643 589 q 256 253 643 446 q 434 82 262 82 q 595 125 512 82 q 354 1 499 33 q 266 -9 309 -9 q 192 6 222 -9 q 141 47 161 21 q 104 166 104 97 q 124 291 104 235 q 180 400 145 347 q 261 502 215 454 q 359 586 307 550 q 569 665 473 665 q 623 643 604 665 q 643 589 643 622 m 473 453 q 481 466 473 453 q 490 502 490 479 q 472 547 490 524 q 424 570 455 570 q 371 554 393 570 q 331 515 349 539 q 300 459 313 490 q 277 397 286 429 q 256 286 260 337 q 408 380 323 303 q 473 453 457 426 z "},"f":{"ha":491,"x_min":-189,"x_max":932,"o":"m -14 -254 q -37 -288 -37 -271 q -3 -317 -37 -319 l -2 -317 q 140 15 90 -207 l 271 581 l 186 581 q 287 648 250 623 q 338 837 318 787 q 379 917 359 886 q 430 977 400 949 q 603 1097 486 1030 q 801 1161 715 1161 q 864 1150 829 1161 q 932 1109 932 1130 q 817 1021 932 1086 q 760 996 774 998 q 779 1017 779 1015 q 722 1054 779 1036 q 650 1069 671 1069 q 573 1061 603 1069 q 447 774 490 973 q 425 673 435 722 l 679 673 q 623 639 665 671 q 560 594 581 608 q 526 581 539 581 l 404 581 l 274 27 q 190 -164 253 -64 q -54 -389 85 -331 q -146 -409 -102 -409 q -189 -385 -189 -409 q -76 -290 -189 -348 q -14 -254 -28 -265 z "},"g":{"ha":665,"x_min":-73,"x_max":858,"o":"m 599 664 l 795 659 q 858 673 829 659 q 762 600 848 641 q 711 581 731 585 q 718 516 718 557 q 701 432 718 475 q 655 355 684 390 q 591 293 627 321 q 517 241 555 264 q 443 198 479 218 q 378 160 407 178 q 316 92 316 120 q 358 34 316 56 q 417 7 381 22 q 483 -20 452 -7 q 544 -49 513 -33 q 598 -84 574 -65 q 653 -170 653 -125 q 450 -343 653 -265 q 209 -408 327 -391 q 155 -412 174 -412 q 114 -411 136 -412 q 67 -405 92 -409 q 18 -394 43 -401 q -27 -376 -7 -387 q -73 -319 -73 -352 q -56 -260 -73 -287 q -14 -211 -40 -234 q 45 -168 12 -188 q 112 -132 79 -149 q 175 -100 145 -115 q 227 -73 205 -85 q 170 -28 186 -57 q 163 -4 163 -18 q 173 24 163 9 q 198 53 182 39 q 232 81 213 67 q 270 106 251 94 q 306 127 289 117 q 334 144 323 137 q 271 135 302 135 q 213 147 239 135 q 168 180 186 159 q 133 282 133 222 q 155 391 133 343 q 212 480 176 439 q 296 555 248 522 q 395 613 343 589 q 599 664 504 664 m 565 437 q 565 471 565 437 q 531 538 565 505 q 442 571 497 571 q 357 554 387 571 q 312 510 328 538 q 285 382 285 463 q 429 226 285 226 q 533 304 494 226 q 565 437 565 369 m 336 -319 q 503 -233 503 -319 q 290 -98 503 -166 q 253 -84 267 -90 q 83 -229 83 -152 q 252 -307 83 -267 q 336 -319 310 -319 z "},"h":{"ha":762,"x_min":133,"x_max":786,"o":"m 331 958 q 290 1008 331 1008 q 227 998 264 1008 q 517 1168 323 1062 l 372 547 q 568 648 471 619 q 632 659 604 659 q 683 651 660 659 q 723 631 705 644 q 761 550 761 600 q 758 522 761 537 l 677 176 q 670 121 670 148 q 683 85 670 95 q 717 75 696 75 q 755 81 738 75 q 786 92 772 87 q 579 -11 680 -11 q 519 45 519 -11 q 525 92 519 68 q 536 137 531 115 l 595 391 q 608 475 608 442 q 600 524 608 507 q 576 549 591 541 q 503 564 552 564 q 426 544 454 564 q 377 491 397 523 q 327 353 347 442 l 279 148 q 274 113 274 124 q 302 80 274 80 q 347 92 314 80 q 233 -2 305 25 q 190 -11 210 -11 q 159 -6 170 -11 q 144 8 149 -1 q 133 50 133 25 q 142 127 133 85 l 323 901 q 331 958 331 934 z "},"i":{"ha":400,"x_min":136,"x_max":529,"o":"m 529 1151 q 494 1004 509 1031 q 448 971 490 996 q 389 938 406 947 q 341 911 353 918 q 376 1059 363 983 l 529 1151 m 241 472 q 197 522 241 522 q 136 512 176 522 q 426 682 340 643 l 315 203 q 306 168 311 186 q 302 131 302 149 q 378 79 302 79 q 422 83 397 79 q 377 52 400 68 q 330 20 354 35 q 226 -13 273 -13 q 157 17 170 -13 q 151 45 151 29 q 157 95 151 69 l 232 416 q 241 472 241 452 z "},"j":{"ha":374,"x_min":-186,"x_max":530,"o":"m 530 1151 q 524 1117 527 1137 q 515 1076 520 1097 q 498 1011 503 1023 q 483 993 494 1000 q 458 977 473 986 q 425 957 443 967 q 390 937 406 947 q 342 911 357 920 q 376 1059 357 957 l 530 1151 m 241 472 q 200 522 241 522 q 137 512 180 522 q 427 682 233 576 l 328 260 q 299 133 313 196 q 269 17 284 69 q 232 -82 254 -35 q 180 -176 210 -130 q 112 -264 149 -222 q 33 -338 75 -306 q -150 -409 -61 -409 q -186 -385 -186 -409 q -113 -311 -186 -354 q -55 -279 -90 -298 q -11 -254 -20 -261 q -35 -288 -35 -271 q -1 -317 -35 -319 l 1 -317 q 117 -73 75 -227 q 140 15 130 -29 l 231 410 q 241 472 241 453 z "},"k":{"ha":724,"x_min":126,"x_max":779,"o":"m 705 579 q 471 342 705 471 q 493 309 478 332 q 528 257 509 286 q 570 198 548 229 q 613 142 592 168 q 682 85 660 85 q 779 112 724 85 q 612 0 703 33 q 551 -12 579 -12 q 504 5 523 -12 q 456 59 484 22 q 307 265 411 117 q 277 121 277 146 q 314 78 277 78 q 345 85 330 78 q 307 56 330 73 q 259 24 284 39 q 167 -14 199 -14 q 126 35 126 -14 q 133 83 126 53 l 324 907 q 332 958 332 935 q 288 1008 332 1008 q 258 1005 273 1008 q 228 998 243 1002 q 370 1088 298 1044 q 517 1168 441 1133 l 372 546 q 562 646 460 612 q 628 656 597 656 q 682 636 659 656 q 705 579 705 615 m 541 444 q 553 489 553 467 q 547 523 553 510 q 529 545 540 536 q 476 564 506 564 q 426 549 447 564 q 389 509 406 534 q 360 453 373 484 q 338 391 348 422 q 322 332 329 360 q 311 284 315 303 q 541 444 492 351 z "},"l":{"ha":382,"x_min":138,"x_max":517,"o":"m 330 932 q 263 1002 330 1002 q 233 1000 248 1002 q 307 1044 270 1021 q 379 1083 343 1066 q 517 1145 454 1118 l 299 210 q 289 171 294 191 q 284 133 284 151 q 291 104 284 114 q 309 88 298 94 q 406 84 344 73 q 358 51 382 68 q 308 19 334 33 q 197 -14 250 -14 q 138 55 138 -14 q 152 144 138 90 l 321 869 q 330 932 330 910 z "},"m":{"ha":1072,"x_min":134,"x_max":1098,"o":"m 399 544 q 654 659 579 659 q 732 602 715 659 q 737 569 737 585 q 735 543 737 553 q 930 646 842 614 q 989 659 965 659 q 1028 651 1013 659 q 1054 631 1044 644 q 1074 573 1074 606 q 1069 522 1074 541 l 994 197 q 982 125 982 149 q 1044 81 982 81 q 1098 92 1069 81 q 1002 26 1029 42 q 891 -10 939 -10 q 829 49 829 -10 q 845 137 829 75 l 905 393 q 917 479 917 447 q 841 564 917 564 q 743 497 785 564 q 696 379 713 449 l 652 186 q 645 137 645 156 q 706 81 645 81 q 760 92 732 81 q 622 5 663 20 q 553 -10 581 -10 q 492 49 492 -10 q 507 137 492 75 l 567 393 q 579 479 579 447 q 503 564 579 564 q 381 438 430 564 q 355 353 366 400 l 306 143 q 302 120 302 131 q 340 78 302 78 q 372 85 355 78 q 189 -14 239 -14 q 149 26 149 -14 q 151 46 149 35 l 242 437 q 253 478 247 457 q 259 521 259 499 q 195 570 259 570 q 134 559 165 570 q 190 593 157 567 q 275 648 252 640 q 353 664 322 664 q 410 612 410 664 q 399 544 410 592 z "},"n":{"ha":787,"x_min":136,"x_max":816,"o":"m 701 137 q 762 81 701 81 q 816 92 787 81 q 720 26 747 42 q 609 -10 656 -10 q 547 49 547 -10 q 563 137 547 75 l 622 391 q 630 454 630 428 q 515 564 630 564 q 374 420 416 564 q 357 353 363 383 l 308 143 q 305 120 305 133 q 342 78 305 78 q 374 85 357 78 q 191 -14 241 -14 q 151 26 151 -14 q 191 208 151 44 q 244 432 231 372 q 261 521 261 507 q 197 570 261 570 q 136 559 168 570 q 195 593 162 568 q 278 648 256 641 q 355 664 321 664 q 412 612 412 664 q 401 547 412 590 q 665 659 557 659 q 751 631 716 659 q 789 551 789 600 q 785 522 789 537 l 707 186 q 701 137 701 156 z "},"o":{"ha":743,"x_min":108,"x_max":800,"o":"m 316 -12 q 229 5 267 -12 q 164 51 191 22 q 108 204 108 112 q 188 422 108 308 q 377 599 261 526 q 598 672 494 672 q 746 610 689 672 q 800 458 800 551 q 721 240 800 353 q 534 62 646 133 q 316 -12 417 -12 m 644 368 q 631 444 644 403 q 593 515 618 485 q 443 581 538 581 q 342 532 386 581 q 270 361 286 470 q 266 295 266 331 q 278 218 266 259 q 315 146 290 177 q 465 79 370 79 q 601 180 549 79 q 644 368 644 265 z "},"p":{"ha":769,"x_min":68,"x_max":826,"o":"m 138 561 q 356 667 282 667 q 411 614 411 667 q 403 562 411 594 q 559 646 509 631 q 640 662 610 662 q 779 614 731 662 q 826 475 826 566 q 745 239 826 355 q 551 60 669 128 q 309 -10 428 -10 q 271 -7 294 -10 l 210 -267 q 208 -286 208 -275 q 256 -321 208 -321 q 300 -310 268 -321 q 187 -404 259 -376 q 140 -412 163 -412 q 68 -336 68 -412 q 75 -279 68 -309 l 254 486 q 259 526 259 511 q 201 574 259 574 q 138 561 174 574 m 674 388 q 496 570 674 570 q 390 508 437 570 l 314 179 q 374 104 332 128 q 471 80 415 80 q 566 110 526 80 q 630 186 606 140 q 674 388 674 271 z "},"q":{"ha":795,"x_min":109,"x_max":936,"o":"m 764 574 q 936 673 825 635 q 824 567 861 620 q 764 425 784 510 l 606 -254 q 604 -277 604 -264 q 643 -321 604 -321 q 687 -310 657 -321 q 568 -404 644 -379 q 519 -412 544 -412 q 464 -330 464 -412 q 472 -266 464 -298 l 553 84 q 502 53 529 69 q 446 22 475 36 q 331 -12 380 -12 q 241 5 281 -12 q 171 50 200 21 q 109 208 109 111 q 193 425 109 314 q 388 594 270 527 q 611 663 507 663 q 764 574 715 663 m 635 420 q 456 570 592 570 q 305 479 357 570 q 263 300 263 406 q 322 140 263 200 q 481 80 381 80 q 530 89 513 80 q 557 104 547 98 l 635 420 z "},"r":{"ha":603,"x_min":134,"x_max":821,"o":"m 352 664 q 410 610 410 664 q 404 566 410 594 q 453 598 425 580 q 510 634 481 617 q 625 675 581 675 q 677 660 652 675 q 738 631 726 631 q 761 634 751 631 q 783 642 772 637 q 821 659 803 650 q 656 549 752 579 q 602 538 625 538 q 565 545 578 538 q 536 560 551 552 q 478 582 498 582 q 446 572 458 582 q 421 545 433 562 q 401 508 410 528 q 385 468 392 488 q 366 403 370 427 l 305 143 q 302 120 302 131 q 340 78 302 78 q 372 85 355 78 q 332 52 350 69 q 296 20 315 35 q 201 -14 252 -14 q 165 -1 180 -14 q 149 24 149 12 q 151 46 149 39 l 241 437 q 252 478 246 457 q 258 521 258 499 q 194 570 258 570 q 134 559 165 570 q 189 592 155 567 q 275 648 252 640 q 352 664 321 664 z "},"s":{"ha":567,"x_min":51,"x_max":648,"o":"m 222 166 q 202 131 202 148 q 220 103 202 113 q 261 87 237 92 q 346 77 302 77 q 414 103 390 77 q 437 168 437 129 q 417 229 437 208 q 367 265 397 250 q 302 291 337 279 q 236 317 267 302 q 166 404 166 350 q 242 528 166 461 q 404 629 308 587 q 553 671 498 671 q 625 661 603 671 q 648 642 648 650 q 605 602 648 623 q 477 526 524 562 q 494 548 494 537 q 483 565 494 559 q 455 574 471 570 q 402 578 429 578 q 317 497 317 578 q 404 410 317 439 q 454 393 429 401 q 504 375 479 385 q 548 353 529 366 q 591 278 591 323 q 570 197 591 234 q 514 128 549 160 q 435 69 479 96 q 345 24 391 43 q 178 -16 248 -16 q 66 12 108 -16 q 51 38 51 23 q 61 66 51 54 q 87 90 71 79 q 122 111 102 101 q 161 131 142 121 q 222 166 212 157 z "},"t":{"ha":466,"x_min":160,"x_max":638,"o":"m 254 -13 q 160 93 160 -13 q 170 165 160 124 l 268 588 l 179 588 q 232 623 205 606 q 284 657 258 640 l 306 753 q 368 793 348 779 q 399 813 387 807 q 423 825 411 819 q 459 846 454 841 l 421 680 l 638 680 q 584 647 627 678 q 485 588 505 588 l 399 588 l 315 224 q 306 147 306 182 q 397 75 306 75 q 453 85 427 75 q 488 100 478 96 q 319 -4 422 22 q 254 -13 286 -13 z "},"u":{"ha":806,"x_min":136,"x_max":836,"o":"m 781 660 q 819 619 819 660 q 816 595 819 607 l 715 164 q 713 149 714 157 q 711 134 711 142 q 730 93 711 104 q 770 83 749 83 q 836 94 802 83 q 785 66 807 84 q 741 31 764 49 q 623 -11 684 -11 q 562 45 562 -11 q 569 98 562 64 q 280 -14 395 -14 q 170 121 170 -14 q 183 221 170 163 l 237 450 q 246 515 246 493 q 186 572 246 572 q 136 562 162 572 q 182 595 157 577 q 235 629 208 614 q 347 665 298 665 q 402 610 402 665 q 387 523 402 583 q 322 245 328 279 q 317 186 317 212 q 327 138 317 159 q 354 103 336 116 q 450 79 385 79 q 548 115 494 79 q 577 134 562 125 l 661 492 q 665 525 665 508 q 629 568 665 568 q 597 562 614 568 q 781 660 730 660 z "},"v":{"ha":719,"x_min":117,"x_max":833,"o":"m 117 545 q 315 657 230 657 q 349 643 334 657 q 376 591 363 629 q 397 505 389 554 q 412 398 406 455 q 422 289 418 342 q 429 125 427 210 q 667 468 616 341 q 681 528 681 502 q 645 564 681 564 q 603 556 627 564 q 651 582 629 566 q 694 615 673 599 q 790 656 747 656 q 833 618 833 656 q 562 186 833 495 q 510 128 529 149 q 475 89 491 107 q 444 57 458 70 q 407 31 430 43 q 360 5 385 18 q 290 -36 298 -26 q 285 188 289 76 q 270 365 281 300 q 255 456 260 430 q 241 506 251 481 q 176 563 220 563 q 117 545 146 563 z "},"w":{"ha":1032,"x_min":127,"x_max":1135,"o":"m 527 306 q 541 330 527 306 q 575 404 555 353 q 595 497 595 454 q 570 576 595 541 q 602 598 578 581 q 641 625 626 614 q 670 643 656 635 q 707 663 700 663 q 720 648 713 663 q 730 613 726 633 q 738 576 734 594 q 749 504 741 557 q 787 140 785 290 q 949 377 909 296 q 985 501 985 451 q 958 563 985 544 q 938 569 949 569 q 902 560 922 569 q 945 586 921 569 q 993 618 968 602 q 1076 660 1053 660 q 1108 654 1098 660 q 1123 639 1118 648 q 1135 589 1135 619 q 1119 518 1135 559 q 1079 434 1104 477 q 1022 347 1054 391 q 959 262 991 302 q 897 186 926 221 q 849 131 867 151 q 819 94 831 110 q 794 66 806 77 q 763 42 783 55 q 719 16 743 30 q 672 -11 694 2 q 637 -30 649 -23 q 622 330 635 198 q 521 183 567 245 q 461 100 475 120 q 439 70 448 80 q 418 52 429 59 q 393 36 408 45 q 360 17 378 26 q 327 -2 343 7 q 298 -19 311 -12 q 279 -30 286 -26 l 281 113 l 281 154 q 209 555 281 479 q 176 571 193 571 q 127 557 151 571 q 319 657 245 657 q 374 595 355 657 q 418 309 405 500 q 420 144 425 206 q 469 217 439 175 q 527 306 499 258 z "},"x":{"ha":741,"x_min":1,"x_max":911,"o":"m 743 581 q 526 366 650 484 q 551 301 538 334 q 577 236 564 269 q 659 88 626 119 q 686 77 672 77 q 740 97 708 77 q 593 -5 688 22 q 540 -13 564 -13 q 507 -6 517 -13 q 477 34 497 1 q 434 124 456 66 q 388 237 411 182 q 197 92 313 170 l 312 92 q 255 57 296 88 q 194 13 214 26 q 159 0 173 0 l 1 0 q 22 12 12 6 q 43 25 32 18 q 67 43 54 32 q 95 66 81 55 q 155 92 131 92 q 349 252 171 92 q 372 274 366 269 q 331 374 352 324 q 297 455 310 423 q 277 507 284 487 q 260 545 270 527 q 206 590 237 590 q 165 577 186 590 q 342 677 272 651 q 366 684 357 684 q 398 660 385 684 q 424 609 412 635 q 449 552 436 583 q 473 493 462 522 q 494 441 485 465 q 508 407 503 418 q 674 581 593 492 l 576 581 q 614 608 592 593 q 653 633 637 623 q 685 653 670 644 q 729 673 720 673 l 911 673 q 872 647 895 661 q 833 621 850 632 q 802 602 817 610 q 758 581 766 581 l 743 581 z "},"y":{"ha":781,"x_min":17,"x_max":825,"o":"m 784 661 q 825 623 825 661 q 823 605 825 614 l 729 205 q 521 -206 674 -27 q 274 -385 412 -333 q 125 -412 203 -412 q 30 -387 64 -412 q 17 -363 17 -376 q 27 -338 17 -351 q 55 -314 38 -326 q 92 -291 71 -302 q 132 -269 112 -279 q 193 -234 182 -242 q 169 -267 169 -249 q 183 -294 169 -284 q 216 -310 197 -304 q 291 -321 250 -321 q 368 -300 331 -321 q 435 -243 406 -279 q 486 -163 465 -208 q 525 -71 508 -119 q 573 103 544 -16 q 281 -12 396 -12 q 165 102 165 -12 q 173 163 165 132 l 229 403 q 245 504 245 475 q 190 572 245 572 q 139 563 168 572 q 238 630 210 614 q 350 666 302 666 q 406 611 406 666 q 377 465 406 585 q 338 300 348 345 q 321 194 321 228 q 330 139 321 161 q 357 104 340 117 q 454 80 389 80 q 583 144 523 80 l 662 483 q 669 528 669 511 q 633 570 669 570 q 600 563 616 570 q 640 591 616 574 q 689 623 663 608 q 784 661 749 661 z "},"z":{"ha":616,"x_min":9,"x_max":741,"o":"m 422 677 l 661 670 q 741 673 701 670 q 671 626 705 652 q 606 566 636 600 q 535 486 576 532 q 444 378 494 439 q 349 264 394 317 q 266 169 304 211 q 178 92 227 126 l 402 92 q 505 89 402 92 q 632 117 564 89 q 564 72 595 93 q 499 34 532 50 q 345 -1 427 -1 q 178 -1 262 -1 q 9 0 94 0 q 99 63 70 35 q 147 114 128 92 q 200 176 165 136 q 279 273 235 217 q 370 382 324 328 q 574 580 476 505 q 507 578 541 578 l 273 585 q 179 581 226 585 q 223 611 207 600 q 256 632 240 622 q 286 651 272 643 q 336 673 319 670 q 422 677 358 677 z "},"{":{"ha":588,"x_min":116,"x_max":888,"o":"m 226 286 q 116 426 226 372 q 183 463 149 438 q 227 494 218 488 q 244 504 237 500 q 260 516 251 508 q 280 541 269 524 q 300 576 291 557 q 333 695 323 632 q 351 791 343 758 q 410 918 370 870 q 501 1008 450 966 q 610 1084 552 1051 q 857 1157 738 1157 q 873 1157 865 1157 q 888 1156 881 1157 q 854 1136 877 1153 q 815 1108 831 1120 q 785 1086 800 1097 q 735 1063 751 1063 l 677 1067 q 607 1058 635 1067 q 514 914 538 989 q 497 840 503 880 q 479 751 490 800 q 451 669 467 703 q 410 608 434 635 q 286 510 372 563 q 380 382 380 460 q 367 316 380 350 q 340 245 355 281 q 300 97 300 149 q 316 5 300 44 q 359 -61 332 -33 q 513 -120 418 -120 q 566 -115 534 -120 q 534 -137 555 -123 q 490 -167 513 -152 q 416 -208 431 -204 q 353 -212 390 -212 q 276 -197 316 -212 q 208 -155 237 -182 q 144 -5 144 -96 q 184 146 144 52 q 213 216 200 181 q 226 286 226 250 z "},"|":{"ha":363,"x_min":74,"x_max":524,"o":"m 524 1153 l 227 -119 q 178 -156 224 -133 q 117 -187 133 -178 q 74 -212 77 -207 l 370 1061 q 467 1122 433 1105 q 524 1153 522 1150 z "},"}":{"ha":586,"x_min":-66,"x_max":707,"o":"m 597 659 q 707 518 597 572 q 527 368 585 476 q 490 255 499 317 q 471 151 481 193 q 432 63 460 110 q 365 -26 404 16 q 277 -102 325 -67 q 176 -161 229 -136 q -34 -213 68 -213 q -66 -211 -50 -213 q -16 -181 -55 -210 q 38 -142 23 -152 q 87 -119 72 -119 l 145 -122 q 216 -113 187 -122 q 309 30 286 -43 q 326 104 319 65 q 344 193 332 144 q 372 276 355 241 q 412 338 389 310 q 537 435 450 382 q 443 562 443 485 q 455 629 443 595 q 483 699 468 663 q 523 848 523 795 q 507 939 523 901 q 463 1006 491 978 q 310 1065 404 1065 q 257 1060 287 1065 q 410 1152 385 1147 q 469 1157 431 1157 q 546 1142 507 1157 q 615 1100 586 1127 q 678 949 678 1040 q 637 799 678 892 q 609 729 622 764 q 597 659 597 694 z "},"~":{"ha":738,"x_min":164,"x_max":839,"o":"m 673 505 l 682 505 q 746 549 707 530 q 805 577 785 567 q 839 601 825 587 q 629 447 745 507 q 527 412 562 412 q 474 427 492 412 q 438 459 455 441 q 403 492 422 477 q 367 507 384 507 q 347 506 351 507 q 332 488 340 497 q 314 467 325 479 q 281 442 304 454 q 236 418 259 429 q 164 378 174 389 q 320 518 214 444 q 506 600 438 600 q 554 583 534 600 q 584 552 573 565 q 608 529 595 540 q 673 505 638 505 z "},"":{"ha":339,"x_min":0,"x_max":0,"o":""},"":{"ha":374,"x_min":121,"x_max":503,"o":"m 503 881 l 350 789 l 305 901 l 458 994 l 503 881 m 140 -20 q 121 7 121 -20 q 139 92 121 38 q 165 180 156 146 q 260 511 252 484 q 275 566 267 537 q 291 620 283 595 q 302 662 298 645 q 310 683 307 678 q 328 695 313 687 q 361 711 343 703 q 422 745 412 734 q 273 87 273 106 q 290 68 273 68 q 317 83 297 68 q 340 100 337 98 l 338 92 q 165 -14 235 16 q 140 -20 149 -20 z "},"":{"ha":636,"x_min":142,"x_max":744,"o":"m 575 559 q 588 572 588 566 q 578 583 588 578 q 553 593 568 589 q 519 601 538 597 q 483 606 500 604 q 433 611 443 611 q 330 530 372 611 q 294 409 294 461 q 308 324 294 356 q 347 270 322 292 q 479 225 399 225 q 613 258 547 225 q 635 264 625 263 l 634 263 q 481 172 606 235 q 457 161 466 165 l 433 57 q 349 1 368 12 l 317 -14 q 279 -35 284 -31 q 292 18 286 -9 q 303 65 298 45 q 311 101 308 85 q 319 130 313 117 l 301 130 q 184 180 229 128 q 142 299 142 230 q 170 420 142 368 q 241 515 198 473 q 440 653 307 580 l 467 770 q 514 805 471 783 q 574 835 557 827 q 621 863 613 854 l 583 703 q 613 705 600 705 q 647 702 627 705 q 689 694 667 699 q 744 665 744 682 q 698 623 744 653 q 633 583 652 593 q 575 559 590 559 z "},"":{"ha":857,"x_min":145,"x_max":1002,"o":"m 145 394 q 298 486 283 486 l 332 486 q 356 591 344 536 q 386 699 368 646 q 507 873 428 818 q 656 963 605 941 q 846 1005 755 1005 q 946 992 909 1005 q 992 974 983 980 q 1002 959 1002 967 q 992 940 1002 950 q 965 918 981 929 q 929 897 949 907 q 890 877 909 886 q 832 854 852 859 l 832 855 l 855 871 q 708 912 846 899 q 678 913 694 913 q 593 903 639 913 q 507 671 545 840 q 490 595 498 629 l 465 486 l 616 486 q 734 526 659 486 q 445 397 600 410 q 424 306 434 351 q 407 232 414 260 q 390 185 399 203 q 368 149 380 168 q 320 92 340 107 l 704 92 q 836 130 770 92 q 592 0 642 0 l 153 0 q 218 62 202 39 q 258 159 245 102 l 313 394 l 145 394 z "},"":{"ha":723,"x_min":0,"x_max":723,"o":"m 317 684 q 479 733 413 733 q 589 690 546 733 q 723 767 689 755 q 705 751 715 758 q 686 736 694 743 l 606 670 q 631 580 631 633 q 529 397 631 488 l 600 307 q 557 279 576 292 q 522 255 538 266 q 490 236 505 245 q 448 214 456 215 q 380 299 448 214 q 237 259 296 259 q 131 294 178 259 q 102 275 120 287 q 65 251 84 263 q 0 217 16 221 l 113 311 q 81 411 81 345 q 135 549 81 485 q 170 585 151 569 l 170 585 l 96 677 l 115 690 q 248 770 227 764 l 317 684 m 324 644 q 254 589 278 644 q 235 503 235 547 q 246 432 235 460 q 278 387 258 405 q 390 348 320 348 q 458 401 433 348 q 479 486 479 446 q 435 602 479 560 q 324 644 391 644 z "},"":{"ha":983,"x_min":255,"x_max":1133,"o":"m 331 177 q 484 269 469 269 l 557 269 l 572 335 l 368 335 q 387 348 374 339 q 414 366 399 356 q 446 387 429 376 q 477 407 463 398 q 522 427 512 427 l 576 427 q 507 705 564 549 q 408 876 464 822 q 346 904 379 904 q 255 871 309 904 q 430 978 336 946 q 492 989 463 989 q 583 937 547 989 q 701 627 655 827 q 726 472 722 541 q 965 774 912 652 q 979 836 979 806 q 960 883 979 865 q 915 901 942 901 q 871 896 888 901 q 915 919 895 903 q 956 951 935 935 q 1050 993 1010 993 q 1133 928 1133 993 q 791 488 1133 812 q 728 427 751 450 l 838 427 q 958 467 891 427 q 844 379 918 415 q 705 342 776 346 l 688 269 l 802 269 q 920 309 859 269 q 731 197 845 230 q 661 183 695 186 q 599 92 635 128 l 817 92 q 759 57 800 87 q 698 13 718 26 q 663 0 678 0 l 427 0 q 492 70 473 40 q 536 177 523 120 l 331 177 z "},"":{"ha":370,"x_min":77,"x_max":526,"o":"m 526 1153 l 401 618 q 356 583 399 604 q 296 554 313 562 q 248 526 256 534 l 373 1061 q 419 1096 376 1076 q 478 1124 462 1116 q 526 1153 517 1144 m 355 416 l 230 -119 q 184 -154 227 -133 q 125 -183 141 -175 q 77 -212 84 -204 l 201 323 q 248 358 205 337 q 307 387 290 378 q 355 416 347 408 z "},"":{"ha":820,"x_min":47,"x_max":962,"o":"m 331 667 q 288 760 288 705 q 316 859 288 815 q 389 943 344 903 q 492 1017 435 983 q 607 1076 549 1051 q 812 1129 730 1129 q 943 1107 890 1129 q 962 1084 962 1098 q 933 1047 962 1069 q 883 1011 904 1025 q 841 985 861 997 q 779 954 795 959 q 798 969 787 958 q 809 990 809 980 q 655 1035 809 1028 q 614 1036 640 1036 q 553 1024 588 1036 q 492 989 517 1012 q 441 852 441 939 q 487 760 441 794 l 487 760 l 488 760 l 488 761 l 488 760 l 487 760 l 487 760 q 604 718 522 734 q 852 591 794 681 q 874 511 874 558 q 782 316 874 405 q 812 232 812 281 q 786 135 812 182 q 715 46 759 88 q 615 -31 671 4 q 500 -92 559 -66 q 288 -146 377 -146 q 61 -95 119 -146 q 47 -66 47 -83 q 57 -35 47 -50 q 84 -5 68 -20 q 122 23 101 9 q 164 47 143 36 q 203 68 184 59 q 233 83 221 77 q 199 32 199 53 q 213 -2 199 11 q 247 -23 226 -14 q 293 -39 267 -33 q 343 -49 319 -45 q 428 -55 387 -55 q 512 -43 469 -55 q 588 -5 555 -31 q 661 144 661 48 q 518 278 661 243 q 439 296 479 288 q 298 336 332 317 q 244 391 265 355 q 223 463 223 426 q 232 527 223 499 q 255 579 241 554 q 331 667 283 627 m 713 357 q 723 423 723 389 q 707 487 723 457 q 666 538 691 516 q 466 618 595 601 q 388 636 427 624 q 372 561 372 601 q 390 492 372 522 q 435 443 407 463 q 500 411 464 422 q 574 390 536 399 q 648 375 612 382 q 713 357 684 368 z "},"":{"ha":543,"x_min":0,"x_max":543,"o":"m 543 937 l 390 844 l 309 940 l 463 1032 l 543 937 m 234 937 l 81 844 l 0 940 l 153 1032 l 234 937 z "},"":{"ha":1108,"x_min":160,"x_max":1193,"o":"m 490 30 q 368 48 429 30 q 260 102 306 66 q 160 323 160 180 q 274 629 160 480 q 545 856 380 768 q 863 945 710 945 q 1095 864 1001 945 q 1193 642 1193 779 q 1048 316 1193 479 q 727 83 912 163 q 490 30 604 30 m 1028 446 q 1040 563 1040 500 q 1013 681 1040 625 q 939 773 985 736 q 703 850 844 850 q 415 720 524 850 q 313 418 313 599 q 415 195 313 278 q 652 119 509 119 q 856 184 764 119 q 1028 446 987 276 m 791 622 q 803 634 803 633 q 695 656 803 656 q 571 602 618 656 q 528 473 528 551 q 581 362 528 403 q 701 325 630 325 q 858 362 781 325 q 719 268 753 283 q 659 245 686 252 q 553 230 606 230 q 470 240 499 230 q 420 270 441 250 q 376 369 376 311 q 399 474 376 428 q 461 561 422 520 q 549 636 499 602 q 651 696 598 671 q 848 749 762 749 q 961 726 949 749 q 812 632 929 694 q 791 622 799 625 z "},"":{"ha":673,"x_min":142,"x_max":747,"o":"m 681 633 q 713 596 681 596 q 747 603 726 596 q 701 578 722 595 q 659 546 680 562 q 567 505 606 505 q 527 539 527 505 q 530 568 527 553 q 347 508 424 508 q 273 537 294 508 q 265 565 265 547 q 278 602 265 582 q 313 643 292 623 q 361 681 334 663 q 414 714 387 699 q 504 755 469 745 q 577 768 539 765 q 585 824 585 800 q 577 863 585 848 q 558 886 570 878 q 502 901 536 901 q 403 884 448 901 q 510 955 475 937 q 641 994 583 994 q 731 949 709 994 q 739 919 739 934 q 737 896 739 904 q 711 776 734 880 q 681 633 681 649 m 142 319 q 295 411 280 411 l 683 411 q 631 380 668 408 q 578 342 593 351 q 530 319 544 319 l 142 319 m 418 650 q 493 599 418 599 q 516 600 505 599 q 538 603 527 602 l 556 678 q 488 689 524 689 q 422 676 453 689 q 418 650 418 662 z "},"":{"ha":849,"x_min":117,"x_max":904,"o":"m 904 572 q 616 363 788 465 q 813 174 748 254 q 730 127 790 167 q 660 81 671 88 q 456 277 532 214 q 526 322 491 300 q 602 367 561 345 q 680 421 642 390 q 752 482 717 452 q 827 533 788 513 q 904 572 865 553 m 565 572 q 277 363 449 465 q 474 174 409 254 q 391 127 451 167 q 321 81 332 88 q 117 277 193 214 q 187 322 152 300 q 262 367 222 345 q 340 421 303 390 q 413 482 378 452 q 488 533 449 513 q 565 572 526 553 z "},"":{"ha":975,"x_min":188,"x_max":1052,"o":"m 188 480 q 341 572 326 572 l 1052 572 q 981 501 997 529 q 953 436 965 473 q 930 358 941 399 q 897 211 913 292 l 739 119 l 774 273 q 849 436 798 378 q 895 480 868 458 l 188 480 z "},"":{"ha":520,"x_min":176,"x_max":536,"o":"m 536 417 q 486 387 526 415 q 432 348 447 358 q 383 325 398 325 l 176 325 q 225 355 186 326 q 279 394 264 384 q 329 417 313 417 l 536 417 z "},"":{"ha":1109,"x_min":161,"x_max":1194,"o":"m 491 30 q 368 47 429 30 q 260 102 307 65 q 161 324 161 181 q 274 631 161 482 q 544 857 380 770 q 864 945 709 945 q 1096 864 1003 945 q 1194 642 1194 779 q 1048 316 1194 479 q 727 83 913 163 q 491 30 604 30 m 747 519 q 753 524 747 519 q 766 540 760 528 q 771 575 771 552 q 756 613 771 597 q 720 636 741 628 q 631 648 688 648 l 598 509 l 694 509 q 747 519 733 509 m 387 223 q 653 119 488 119 q 857 184 764 119 q 1028 446 988 276 q 1041 563 1041 500 q 1013 681 1041 626 q 939 773 985 736 q 704 850 845 850 q 414 718 523 850 q 313 410 313 593 q 381 230 313 307 q 428 345 408 259 l 498 648 l 429 648 q 582 740 567 740 l 746 740 q 911 689 878 740 q 921 652 921 675 q 904 605 921 629 q 861 560 886 581 q 760 496 832 536 q 848 395 797 479 q 893 329 879 344 q 918 315 908 315 q 951 325 935 315 q 822 232 909 256 q 774 225 795 225 q 741 239 753 225 q 715 273 728 252 q 690 318 703 294 q 661 362 677 342 q 577 410 624 410 q 532 317 568 370 q 583 314 556 313 q 634 315 609 315 q 579 281 621 313 q 481 223 500 223 l 387 223 z "},"":{"ha":643,"x_min":0,"x_max":643,"o":"m 643 992 q 589 959 633 990 q 524 913 546 927 q 490 899 503 899 l 0 899 q 50 930 12 902 q 104 969 89 959 q 153 992 138 992 l 643 992 z "},"":{"ha":460,"x_min":234,"x_max":623,"o":"m 332 633 q 293 638 311 633 q 263 653 276 643 q 234 705 234 675 q 241 754 234 735 q 259 789 248 772 q 308 838 281 819 q 362 875 335 857 q 419 909 389 893 q 520 949 491 949 q 566 942 549 949 q 595 924 583 936 q 623 861 623 900 q 542 736 623 793 q 332 633 397 633 m 460 724 q 469 775 469 747 q 450 827 469 802 q 397 857 431 851 q 389 808 389 836 q 407 754 389 779 q 460 724 425 730 z "},"":{"ha":752,"x_min":74,"x_max":792,"o":"m 792 417 q 741 386 779 414 q 688 347 703 357 q 639 325 653 325 l 526 325 l 500 212 q 453 177 496 198 q 393 148 410 157 q 347 120 353 127 l 394 325 l 149 325 q 203 358 161 326 q 268 403 246 389 q 302 417 290 417 l 416 417 l 441 529 q 492 566 444 542 q 563 601 539 589 q 595 621 587 613 l 547 417 l 792 417 m 717 92 q 665 61 702 90 q 612 23 627 33 q 564 0 578 0 l 74 0 q 124 30 85 1 q 178 69 163 59 q 227 92 212 92 l 717 92 z "},"":{"ha":603,"x_min":162,"x_max":750,"o":"m 448 898 q 424 832 424 861 q 427 785 424 804 q 273 694 419 768 q 269 728 269 709 q 275 765 269 746 q 292 801 281 784 q 340 856 311 832 q 402 903 370 880 q 471 945 435 926 q 612 990 553 990 q 737 940 703 990 q 750 888 750 922 q 732 820 750 854 q 686 755 715 785 q 620 698 657 725 q 543 647 583 671 q 465 600 504 623 q 395 555 426 577 q 313 464 323 505 l 649 464 q 615 445 637 461 q 576 416 592 428 q 545 395 560 405 q 496 372 511 372 l 162 372 q 164 379 163 375 q 168 387 165 383 q 380 579 240 505 q 493 644 460 621 q 549 689 526 666 q 598 801 598 740 q 553 876 598 848 q 466 899 517 899 l 457 899 q 448 898 452 899 z "},"":{"ha":606,"x_min":152,"x_max":778,"o":"m 317 884 q 470 977 455 977 l 778 977 q 653 863 720 913 q 515 764 585 812 q 634 748 599 762 q 709 652 709 720 q 621 501 709 566 q 295 364 436 364 q 161 392 197 364 q 152 409 152 399 q 162 429 152 418 q 189 451 173 440 q 225 473 205 462 q 263 494 245 484 q 322 527 313 519 q 304 502 304 513 q 313 484 304 490 q 335 472 321 477 q 365 465 349 467 q 397 460 382 462 q 457 457 427 457 q 530 467 488 457 q 556 547 556 507 q 547 605 556 587 q 522 635 538 623 q 487 654 507 647 q 445 665 467 661 q 360 671 420 669 q 624 884 490 760 l 317 884 z "},"":{"ha":399,"x_min":0,"x_max":399,"o":"m 399 1155 q 103 905 264 1013 q 0 846 48 867 l 2 854 q 104 926 57 884 q 180 997 151 968 q 222 1040 209 1025 q 264 1078 251 1069 q 291 1096 277 1087 q 321 1113 305 1104 q 351 1130 336 1122 q 399 1155 372 1141 z "},"":{"ha":912,"x_min":104,"x_max":899,"o":"m 659 562 q 837 660 792 660 q 882 618 882 660 q 842 432 882 592 q 789 214 802 273 q 774 134 774 144 q 792 93 774 104 q 833 83 811 83 q 899 94 865 83 q 848 66 869 84 q 803 31 826 49 q 686 -11 747 -11 q 625 45 625 -11 q 633 103 625 69 q 413 -9 509 -9 q 332 17 368 -9 l 258 -300 q 210 -334 254 -313 q 150 -365 166 -356 q 104 -392 111 -385 l 290 404 q 302 456 296 430 q 309 509 309 482 q 249 572 309 572 q 198 562 224 572 q 245 595 220 577 q 297 629 270 614 q 409 665 361 665 q 465 610 465 665 q 450 524 465 583 q 386 248 390 277 q 381 193 381 219 q 391 144 381 166 q 418 110 400 123 q 514 85 450 85 q 612 111 575 85 q 640 136 625 121 l 723 492 q 727 525 727 508 q 691 568 727 568 q 659 562 676 568 z "},"":{"ha":948,"x_min":199,"x_max":1141,"o":"m 508 359 q 453 357 488 357 q 370 371 418 357 q 283 410 321 384 q 199 573 199 469 q 335 823 199 705 q 594 964 454 927 q 720 977 644 977 l 1141 977 q 987 884 1002 884 l 963 884 l 763 25 q 735 1 760 14 q 693 -21 711 -12 q 659 -38 675 -30 q 610 -67 620 -57 l 726 434 q 647 390 676 400 l 562 25 q 516 -9 559 12 q 457 -38 474 -30 q 408 -67 418 -57 l 508 359 m 831 884 l 762 884 l 661 451 q 733 463 694 454 l 831 884 m 630 885 q 606 886 618 886 l 583 886 q 407 831 463 886 q 351 659 351 777 q 397 518 351 573 q 532 460 447 460 l 630 885 z "},"":{"ha":323,"x_min":183,"x_max":381,"o":"m 381 479 l 228 387 l 183 500 l 336 592 l 381 479 z "},"":{"ha":324,"x_min":0,"x_max":324,"o":"m 142 -195 q 78 -153 142 -153 q 14 -164 57 -153 q 324 60 291 45 l 165 -73 q 208 -62 181 -62 q 248 -64 235 -62 q 270 -71 260 -66 q 295 -105 295 -82 q 278 -152 295 -128 q 234 -198 261 -175 q 173 -243 207 -221 q 107 -283 140 -265 q 0 -340 53 -314 q 45 -309 22 -322 q 86 -285 69 -296 q 112 -265 102 -275 q 127 -244 121 -256 q 142 -195 142 -218 z "},"":{"ha":453,"x_min":197,"x_max":561,"o":"m 561 478 q 507 445 550 477 q 408 386 427 386 l 197 386 q 232 421 218 408 q 255 448 245 434 q 290 547 272 473 q 372 906 313 646 q 328 879 351 892 q 290 856 306 865 q 264 839 274 846 q 243 828 254 833 q 244 832 244 829 q 246 837 245 834 q 267 853 248 840 q 314 882 286 865 q 376 916 342 898 q 440 950 410 935 q 494 979 471 966 q 525 995 517 991 l 430 587 q 380 496 418 532 q 353 478 368 484 l 561 478 z "},"":{"ha":665,"x_min":162,"x_max":825,"o":"m 435 515 q 372 524 401 515 q 321 551 343 533 q 272 656 272 590 q 342 812 272 730 q 501 938 408 888 q 669 989 597 989 q 779 947 734 989 q 825 839 825 905 q 754 686 825 766 q 596 564 690 615 q 435 515 504 515 m 162 319 q 315 411 300 411 l 703 411 q 650 379 687 407 q 598 341 612 351 q 550 319 564 319 l 162 319 m 516 899 q 447 846 471 899 q 428 763 428 806 q 439 692 428 720 q 471 644 451 665 q 583 604 513 604 q 651 657 625 604 q 671 741 671 699 q 627 858 671 816 q 516 899 583 899 z "},"":{"ha":845,"x_min":106,"x_max":893,"o":"m 536 479 q 689 572 549 483 q 893 375 815 441 q 823 331 858 353 q 747 286 787 308 q 669 232 707 263 q 596 171 632 201 q 522 120 561 140 q 445 81 484 100 q 732 290 561 188 q 536 479 601 399 m 554 375 q 484 331 519 353 q 408 286 448 308 q 330 232 368 263 q 257 171 293 201 q 183 120 222 140 q 106 81 144 100 q 393 290 222 188 q 197 479 262 399 q 248 507 209 482 q 302 541 288 532 q 350 572 334 561 q 554 375 476 441 z "},"":{"ha":1239,"x_min":131,"x_max":1265,"o":"m 1088 229 l 1154 230 q 1255 258 1201 230 q 1265 262 1260 261 q 1263 260 1264 261 q 1250 251 1261 259 q 1215 226 1238 242 q 1167 195 1192 210 q 1066 150 1114 163 q 1016 92 1049 118 l 1159 92 q 1141 80 1154 88 l 1114 62 q 1006 0 1021 0 l 854 0 q 925 95 907 26 q 935 136 930 115 l 576 137 q 646 181 597 144 q 721 237 695 218 q 789 290 747 255 q 870 361 831 324 q 1023 518 942 427 q 1102 571 1042 539 q 1177 610 1162 602 l 1088 229 m 1153 1110 q 765 491 1036 838 q 514 189 602 284 q 379 45 426 94 q 297 -31 332 -3 q 243 -68 262 -58 q 205 -88 224 -79 q 131 -132 153 -114 q 728 553 446 165 q 988 991 899 787 q 994 1005 991 997 q 1004 1023 996 1013 q 1032 1044 1013 1032 q 1073 1067 1051 1056 q 1115 1088 1094 1078 q 1153 1110 1137 1099 m 585 478 q 532 445 574 477 q 432 386 451 386 l 222 386 q 256 421 243 408 q 279 448 270 434 q 314 547 296 473 q 397 906 337 646 q 353 879 375 892 q 314 856 330 865 q 289 839 298 846 q 268 828 279 833 q 269 832 269 829 q 271 837 269 834 q 291 853 272 840 q 338 882 310 865 q 400 916 367 898 q 465 950 434 935 q 518 979 495 966 q 549 995 541 991 l 454 587 q 405 496 442 532 q 377 478 392 484 l 585 478 m 1004 434 q 733 229 886 328 l 956 229 l 1004 434 z "},"":{"ha":1215,"x_min":122,"x_max":1280,"o":"m 956 414 q 803 323 948 395 q 798 356 798 337 q 804 393 798 374 q 821 429 810 412 q 870 485 840 460 q 932 531 899 509 q 1000 574 964 554 q 1141 618 1083 618 q 1267 568 1232 618 q 1280 516 1280 550 q 1262 448 1280 482 q 1216 384 1244 414 q 1149 327 1187 353 q 1073 276 1112 300 q 994 229 1033 252 q 924 184 956 206 q 842 92 853 134 l 1178 92 q 1148 76 1168 91 q 1105 45 1128 62 q 1025 0 1043 0 l 692 0 q 694 8 693 3 q 697 16 695 12 q 909 208 769 135 q 1078 317 1034 272 q 1127 429 1127 368 q 1084 505 1127 477 q 995 528 1045 528 q 977 526 987 528 q 953 460 953 488 q 956 414 953 433 m 1144 1110 q 756 491 1027 838 q 505 189 593 284 q 370 45 417 94 q 288 -31 323 -3 q 234 -68 253 -58 q 197 -88 216 -79 q 122 -132 144 -114 q 720 553 437 165 q 979 991 890 787 q 985 1005 982 997 q 996 1023 987 1013 q 1023 1044 1004 1032 q 1064 1067 1042 1056 q 1106 1088 1085 1078 q 1144 1110 1128 1099 m 576 478 q 523 445 566 477 q 423 386 442 386 l 213 386 q 248 421 234 408 q 270 448 261 434 q 305 547 288 473 q 388 906 328 646 q 344 879 366 892 q 306 856 321 865 q 280 839 290 846 q 259 828 270 833 q 260 832 260 829 q 262 837 260 834 q 282 853 263 840 q 330 882 301 865 q 392 916 358 898 q 456 950 425 935 q 509 979 486 966 q 541 995 532 991 l 446 587 q 396 496 433 532 q 368 478 383 484 l 576 478 z "},"":{"ha":1320,"x_min":164,"x_max":1346,"o":"m 1168 229 l 1234 230 q 1335 258 1282 230 q 1346 262 1341 261 q 1343 260 1345 261 q 1331 251 1342 259 q 1296 226 1319 242 q 1248 195 1272 210 q 1147 150 1194 163 q 1097 92 1131 119 l 1240 92 q 1222 80 1234 88 q 1195 62 1211 72 q 1163 41 1180 52 q 1131 20 1146 30 q 1087 0 1097 0 l 935 0 q 1005 95 987 25 q 1015 136 1010 115 l 656 137 q 727 181 678 144 q 802 237 776 218 q 869 290 827 255 q 951 361 911 324 q 1104 518 1023 427 q 1183 571 1122 539 q 1257 610 1243 602 l 1168 229 m 1234 1110 q 846 491 1118 840 q 594 189 682 284 q 459 45 507 94 q 378 -31 412 -3 q 324 -68 343 -58 q 286 -88 305 -79 q 212 -132 234 -114 q 809 553 526 165 q 1069 991 981 789 q 1074 1005 1072 997 q 1085 1023 1077 1013 q 1113 1044 1093 1032 q 1153 1067 1132 1056 q 1196 1088 1175 1078 q 1234 1110 1217 1099 m 329 884 q 482 977 467 977 l 790 977 q 665 863 732 913 q 528 764 597 812 q 646 748 611 762 q 721 652 721 720 q 633 501 721 566 q 307 364 448 364 q 173 392 207 364 q 164 409 164 399 q 175 429 164 418 q 201 451 185 440 q 237 473 217 462 q 275 494 257 484 q 334 527 326 519 q 316 502 316 513 q 325 484 316 490 q 347 472 334 477 q 377 465 361 467 q 410 460 394 462 q 469 457 439 457 q 542 467 500 457 q 568 547 568 507 q 559 605 568 587 q 534 635 550 623 q 499 654 519 647 q 457 665 479 661 q 372 671 432 669 q 636 884 502 760 l 329 884 m 1084 434 q 814 229 966 328 l 1037 229 l 1084 434 z "},"":{"ha":713,"x_min":100,"x_max":748,"o":"m 681 887 l 528 795 l 483 907 l 636 1000 l 681 887 m 461 34 q 437 22 461 34 q 365 -5 414 10 q 275 -20 316 -20 q 202 -8 233 -20 q 148 26 171 4 q 100 147 100 71 q 205 358 100 264 q 306 439 246 395 q 392 510 365 484 q 467 648 467 584 q 481 681 467 671 q 511 700 494 691 q 546 718 527 709 q 581 734 565 726 q 623 760 620 753 l 623 756 q 483 549 624 654 q 361 451 395 485 q 302 381 327 416 q 248 231 248 303 q 305 113 248 156 q 433 73 358 73 q 551 140 503 73 q 595 272 595 201 q 588 324 595 300 l 741 416 q 748 361 748 391 q 739 300 748 331 q 713 241 729 269 q 638 153 682 189 q 552 87 595 117 q 461 34 509 58 z "},"":{"ha":958,"x_min":-11,"x_max":1023,"o":"m 143 92 q 186 92 151 92 q 247 94 222 92 q 298 100 272 96 q 390 129 356 110 q 230 33 270 48 q 160 11 189 17 q 15 0 102 0 l -11 0 l -9 3 q 36 42 14 22 q 96 99 58 61 q 182 198 134 138 q 275 323 231 259 q 362 451 319 387 q 448 582 404 516 q 538 714 492 648 q 608 820 584 781 q 636 868 631 859 q 648 884 641 876 l 596 884 q 393 855 469 884 q 585 960 509 940 q 693 975 635 974 q 801 976 751 976 q 828 581 815 777 q 852 276 841 385 q 864 149 863 168 q 871 116 865 131 q 926 83 883 83 q 1023 113 970 83 q 970 78 1002 99 q 903 37 938 56 q 773 -12 817 -12 q 716 34 726 -12 q 696 206 701 99 q 684 397 691 313 q 385 359 614 354 q 143 92 276 210 m 593 451 q 680 454 636 451 q 656 757 667 611 q 450 452 559 609 q 460 454 458 454 l 593 451 m 781 1136 q 762 1123 774 1132 q 734 1105 749 1115 q 702 1084 719 1095 q 671 1065 686 1074 q 627 1044 637 1045 q 534 1138 569 1083 q 474 1258 498 1194 q 540 1303 479 1269 q 626 1350 622 1350 q 630 1346 631 1350 q 633 1334 630 1342 q 659 1278 637 1318 q 781 1136 707 1184 z "},"":{"ha":958,"x_min":-11,"x_max":1023,"o":"m 143 92 q 186 92 151 92 q 247 94 222 92 q 298 100 272 96 q 390 129 356 110 q 230 33 270 48 q 160 11 189 17 q 15 0 102 0 l -11 0 l -9 3 q 36 42 14 22 q 96 99 58 61 q 182 198 134 138 q 275 323 231 259 q 362 451 319 387 q 448 582 404 516 q 538 714 492 648 q 608 820 584 781 q 636 868 631 859 q 648 884 641 876 l 596 884 q 393 855 469 884 q 585 960 509 940 q 693 975 635 974 q 801 976 751 976 q 828 581 815 777 q 852 276 841 385 q 864 149 863 168 q 871 116 865 131 q 926 83 883 83 q 1023 113 970 83 q 970 78 1002 99 q 903 37 938 56 q 773 -12 817 -12 q 716 34 726 -12 q 696 206 701 99 q 684 397 691 313 q 385 359 614 354 q 143 92 276 210 m 593 451 q 680 454 636 451 q 656 757 667 611 q 450 452 559 609 q 460 454 458 454 l 593 451 m 960 1326 q 665 1076 826 1183 q 562 1017 610 1038 l 564 1025 q 666 1097 618 1055 q 742 1167 713 1139 q 784 1211 770 1196 q 826 1249 812 1240 q 853 1266 839 1258 q 882 1284 867 1275 q 913 1301 898 1293 q 960 1326 933 1312 z "},"":{"ha":958,"x_min":-11,"x_max":1023,"o":"m 143 92 q 186 92 151 92 q 247 94 222 92 q 298 100 272 96 q 390 129 356 110 q 230 33 270 48 q 160 11 189 17 q 15 0 102 0 l -11 0 l -9 3 q 36 42 14 22 q 96 99 58 61 q 182 198 134 138 q 275 323 231 259 q 362 451 319 387 q 448 582 404 516 q 538 714 492 648 q 608 820 584 781 q 636 868 631 859 q 648 884 641 876 l 596 884 q 393 855 469 884 q 585 960 509 940 q 693 975 635 974 q 801 976 751 976 q 828 581 815 777 q 852 276 841 385 q 864 149 863 168 q 871 116 865 131 q 926 83 883 83 q 1023 113 970 83 q 970 78 1002 99 q 903 37 938 56 q 773 -12 817 -12 q 716 34 726 -12 q 696 206 701 99 q 684 397 691 313 q 385 359 614 354 q 143 92 276 210 m 593 451 q 680 454 636 451 q 656 757 667 611 q 450 452 559 609 q 460 454 458 454 l 593 451 m 827 1036 q 725 1179 821 1036 l 656 1126 q 635 1113 647 1118 q 605 1098 624 1108 q 508 1039 541 1063 l 715 1200 q 848 1284 764 1240 q 862 1290 860 1290 q 865 1288 863 1290 q 869 1283 867 1286 q 888 1257 875 1275 q 978 1128 905 1234 q 827 1036 838 1036 z "},"":{"ha":958,"x_min":-11,"x_max":1065,"o":"m 143 92 q 186 92 151 92 q 247 94 222 92 q 298 100 272 96 q 390 129 356 110 q 230 33 270 48 q 160 11 189 17 q 15 0 102 0 l -11 0 l -9 3 q 36 42 14 22 q 96 99 58 61 q 182 198 134 138 q 275 323 231 259 q 362 451 319 387 q 448 582 404 516 q 538 714 492 648 q 608 820 584 781 q 636 868 631 859 q 648 884 641 876 l 596 884 q 393 855 469 884 q 585 960 509 940 q 693 975 635 974 q 801 976 751 976 q 828 581 815 777 q 852 276 841 385 q 864 149 863 168 q 871 116 865 131 q 926 83 883 83 q 1023 113 970 83 q 970 78 1002 99 q 903 37 938 56 q 773 -12 817 -12 q 716 34 726 -12 q 696 206 701 99 q 684 397 691 313 q 385 359 614 354 q 143 92 276 210 m 593 451 q 680 454 636 451 q 656 757 667 611 q 450 452 559 609 q 460 454 458 454 l 593 451 m 1065 1207 q 753 1045 888 1045 q 691 1061 711 1045 q 660 1087 670 1076 q 638 1107 650 1097 q 585 1128 611 1128 q 535 1118 559 1128 q 485 1093 511 1107 q 436 1064 459 1079 q 399 1041 412 1049 q 635 1205 503 1158 q 712 1221 681 1221 q 757 1215 743 1221 q 783 1199 771 1208 q 807 1179 795 1190 q 833 1158 819 1168 q 897 1137 866 1137 q 949 1144 928 1137 q 990 1163 969 1152 q 1030 1187 1010 1175 q 1065 1207 1049 1199 z "},"":{"ha":958,"x_min":-11,"x_max":1060,"o":"m 143 92 q 186 92 151 92 q 247 94 222 92 q 298 100 272 96 q 390 129 356 110 q 230 33 270 48 q 160 11 189 17 q 15 0 102 0 l -11 0 l -9 3 q 36 42 14 22 q 96 99 58 61 q 182 198 134 138 q 275 323 231 259 q 362 451 319 387 q 448 582 404 516 q 538 714 492 648 q 608 820 584 781 q 636 868 631 859 q 648 884 641 876 l 596 884 q 393 855 469 884 q 585 960 509 940 q 693 975 635 974 q 801 976 751 976 q 828 581 815 777 q 852 276 841 385 q 864 149 863 168 q 871 116 865 131 q 926 83 883 83 q 1023 113 970 83 q 970 78 1002 99 q 903 37 938 56 q 773 -12 817 -12 q 716 34 726 -12 q 696 206 701 99 q 684 397 691 313 q 385 359 614 354 q 143 92 276 210 m 593 451 q 680 454 636 451 q 656 757 667 611 q 450 452 559 609 q 460 454 458 454 l 593 451 m 1060 1137 l 907 1044 l 826 1140 l 979 1232 l 1060 1137 m 751 1137 l 597 1044 l 517 1140 l 670 1232 l 751 1137 z "},"":{"ha":958,"x_min":-12,"x_max":1022,"o":"m 392 855 q 543 946 484 922 q 534 990 534 963 q 551 1049 534 1017 q 595 1111 568 1081 q 657 1167 623 1141 q 729 1213 692 1194 q 864 1256 808 1256 q 944 1225 912 1256 q 977 1156 977 1194 q 962 1090 977 1118 q 923 1034 947 1061 q 802 939 876 981 q 828 562 815 749 q 851 271 840 375 q 862 149 861 168 q 869 116 863 131 q 925 83 882 83 q 1022 113 968 83 q 968 78 1000 99 q 901 37 937 56 q 772 -12 816 -12 q 715 34 725 -12 q 695 206 700 99 q 682 397 690 313 q 384 359 612 354 q 142 92 275 210 q 184 92 149 92 q 245 94 220 92 q 296 100 271 96 q 389 129 355 110 q 228 33 269 48 q 159 11 188 17 q 14 0 101 0 l -12 0 l -10 3 q 35 42 12 22 q 95 99 57 61 q 181 198 133 138 q 274 323 229 259 q 360 451 318 387 q 447 582 403 516 q 537 714 491 648 q 606 820 583 781 q 635 868 630 859 q 646 884 640 876 l 595 884 q 392 855 468 884 m 592 451 q 678 454 635 451 q 655 757 665 611 q 448 452 558 609 q 458 454 456 454 l 592 451 m 800 976 q 824 1055 824 1015 q 796 1131 824 1099 q 722 1164 767 1164 q 694 1133 704 1164 q 689 1087 689 1114 q 697 1041 689 1061 q 720 1006 705 1021 q 800 976 751 977 z "},"":{"ha":1266,"x_min":-11,"x_max":1361,"o":"m 143 92 q 186 92 151 92 q 247 94 222 92 q 298 100 272 96 q 390 129 356 110 q 230 33 271 49 q 160 12 189 18 q 15 0 105 0 l -11 0 l -9 3 q 36 42 14 22 q 96 100 58 61 q 182 199 134 138 q 275 322 231 259 q 362 451 319 386 q 448 582 404 516 q 538 714 492 648 q 608 820 584 781 q 636 868 631 859 q 648 884 641 876 l 596 884 q 393 855 469 884 q 567 955 503 933 q 766 976 632 976 l 1361 976 q 1309 945 1346 973 q 1257 906 1272 916 q 1208 884 1222 884 l 808 884 l 829 555 l 1152 555 q 1110 521 1141 552 q 1062 476 1079 490 q 1033 463 1045 463 l 836 463 q 865 161 857 187 q 883 122 873 135 q 941 92 905 92 l 1189 92 q 1320 127 1229 92 q 1149 26 1273 85 q 1076 0 1093 0 l 829 0 q 759 12 780 0 q 713 77 721 34 q 707 126 709 101 q 701 190 705 151 q 693 286 697 230 q 684 397 688 341 q 385 359 614 354 q 143 92 276 210 m 593 451 q 680 454 636 451 q 656 757 667 611 q 450 452 559 609 q 460 454 458 454 l 593 451 z "},"":{"ha":937,"x_min":149,"x_max":1152,"o":"m 511 -26 q 451 -29 472 -29 q 226 61 307 -29 q 149 293 149 147 q 278 654 149 483 q 589 907 397 810 q 964 1002 778 1002 q 1080 990 1032 1002 q 1140 971 1128 978 q 1152 960 1152 965 q 1139 945 1152 954 q 1108 923 1127 935 q 1066 896 1089 910 q 1023 870 1044 882 q 962 838 972 841 q 970 843 964 840 q 981 852 975 847 q 996 868 996 863 q 966 885 996 873 q 795 909 904 909 q 593 871 686 909 q 437 764 501 832 q 304 398 304 623 q 382 160 304 250 q 612 66 465 66 q 928 143 732 66 q 642 0 807 48 q 536 -22 588 -15 l 476 -73 q 519 -62 492 -62 q 559 -64 547 -62 q 582 -71 571 -66 q 606 -105 606 -82 q 589 -152 606 -128 q 545 -198 572 -175 q 485 -243 518 -221 q 418 -283 451 -265 q 311 -340 364 -314 q 357 -309 333 -322 q 397 -285 380 -296 q 423 -265 414 -275 q 439 -244 432 -256 q 454 -195 454 -218 q 389 -153 454 -153 q 325 -164 368 -153 q 383 -120 353 -142 q 445 -74 412 -99 q 511 -26 478 -50 z "},"":{"ha":775,"x_min":118,"x_max":971,"o":"m 258 884 q 411 976 396 976 l 971 976 q 919 945 956 973 q 867 906 882 916 q 818 884 832 884 l 516 884 l 439 555 l 769 555 q 717 524 754 552 q 665 486 680 495 q 616 463 630 463 l 418 463 l 367 241 q 315 117 351 167 q 286 92 302 99 l 663 92 q 794 127 703 92 q 624 26 747 85 q 550 0 568 0 l 118 0 q 201 119 169 51 q 223 190 212 142 q 251 312 234 238 q 286 463 269 387 l 191 463 q 248 500 220 481 q 304 536 275 519 l 385 884 l 258 884 m 769 1135 q 750 1123 762 1131 q 723 1104 738 1114 q 691 1083 707 1094 q 659 1064 674 1073 q 616 1043 626 1044 q 522 1138 557 1082 q 463 1257 487 1193 q 528 1303 468 1268 q 615 1350 610 1350 q 619 1345 619 1350 q 621 1333 618 1341 q 647 1278 626 1318 q 769 1135 695 1183 z "},"":{"ha":775,"x_min":118,"x_max":987,"o":"m 258 884 q 411 976 396 976 l 971 976 q 919 945 956 973 q 867 906 882 916 q 818 884 832 884 l 516 884 l 439 555 l 769 555 q 717 524 754 552 q 665 486 680 495 q 616 463 630 463 l 418 463 l 367 241 q 315 117 351 167 q 286 92 302 99 l 663 92 q 794 127 703 92 q 624 26 747 85 q 550 0 568 0 l 118 0 q 201 119 169 51 q 223 190 212 142 q 251 312 234 238 q 286 463 269 387 l 191 463 q 248 500 220 481 q 304 536 275 519 l 385 884 l 258 884 m 987 1320 q 692 1069 853 1177 q 589 1010 637 1032 l 591 1019 q 693 1091 646 1049 q 769 1161 740 1133 q 811 1204 798 1190 q 853 1243 840 1234 q 880 1260 866 1252 q 909 1278 894 1269 q 940 1295 925 1286 q 987 1320 960 1306 z "},"":{"ha":775,"x_min":118,"x_max":971,"o":"m 258 884 q 411 976 396 976 l 971 976 q 919 945 956 973 q 867 906 882 916 q 818 884 832 884 l 516 884 l 439 555 l 769 555 q 717 524 754 552 q 665 486 680 495 q 616 463 630 463 l 418 463 l 367 241 q 315 117 351 167 q 286 92 302 99 l 663 92 q 794 127 703 92 q 624 26 747 85 q 550 0 568 0 l 118 0 q 201 119 169 51 q 223 190 212 142 q 251 312 234 238 q 286 463 269 387 l 191 463 q 248 500 220 481 q 304 536 275 519 l 385 884 l 258 884 m 785 1038 q 683 1182 779 1038 l 614 1128 q 593 1116 605 1121 q 563 1101 582 1111 q 466 1042 498 1066 l 673 1202 q 806 1287 722 1243 q 820 1293 818 1293 q 823 1291 821 1293 q 827 1286 825 1289 q 846 1260 833 1278 q 936 1131 863 1236 q 785 1038 796 1038 z "},"":{"ha":775,"x_min":118,"x_max":971,"o":"m 258 884 q 411 976 396 976 l 971 976 q 919 945 956 973 q 867 906 882 916 q 818 884 832 884 l 516 884 l 439 555 l 769 555 q 717 524 754 552 q 665 486 680 495 q 616 463 630 463 l 418 463 l 367 241 q 315 117 351 167 q 286 92 302 99 l 663 92 q 794 127 703 92 q 624 26 747 85 q 550 0 568 0 l 118 0 q 201 119 169 51 q 223 190 212 142 q 251 312 234 238 q 286 463 269 387 l 191 463 q 248 500 220 481 q 304 536 275 519 l 385 884 l 258 884 m 935 1137 l 781 1044 l 701 1141 l 854 1233 l 935 1137 m 625 1137 l 472 1044 l 391 1141 l 545 1233 l 625 1137 z "},"":{"ha":502,"x_min":120,"x_max":722,"o":"m 260 884 q 413 976 398 976 l 722 976 q 668 943 711 975 q 604 898 625 911 q 569 884 582 884 l 518 884 l 374 263 q 316 127 355 185 q 286 92 302 106 l 503 92 q 451 61 488 90 q 399 23 414 33 q 350 0 364 0 l 120 0 q 181 64 166 38 q 218 162 204 102 l 387 884 l 260 884 m 608 1137 q 589 1124 601 1133 q 561 1105 576 1116 q 529 1085 546 1095 q 498 1065 513 1074 q 454 1044 465 1046 q 361 1139 396 1084 q 301 1259 326 1194 q 367 1304 307 1270 q 453 1351 449 1351 q 457 1347 458 1351 q 460 1335 457 1343 q 486 1279 465 1319 q 608 1137 534 1185 z "},"":{"ha":502,"x_min":120,"x_max":813,"o":"m 260 884 q 413 976 398 976 l 722 976 q 668 943 711 975 q 604 898 625 911 q 569 884 582 884 l 518 884 l 374 263 q 316 127 355 185 q 286 92 302 106 l 503 92 q 451 61 488 90 q 399 23 414 33 q 350 0 364 0 l 120 0 q 181 64 166 38 q 218 162 204 102 l 387 884 l 260 884 m 813 1350 q 517 1099 679 1207 q 414 1040 463 1062 l 416 1048 q 518 1121 471 1079 q 594 1191 566 1162 q 637 1234 623 1220 q 679 1273 665 1264 q 706 1290 692 1282 q 735 1308 720 1299 q 766 1324 751 1316 q 813 1350 786 1336 z "},"":{"ha":502,"x_min":120,"x_max":761,"o":"m 260 884 q 413 976 398 976 l 722 976 q 668 943 711 975 q 604 898 625 911 q 569 884 582 884 l 518 884 l 374 263 q 316 127 355 185 q 286 92 302 106 l 503 92 q 451 61 488 90 q 399 23 414 33 q 350 0 364 0 l 120 0 q 181 64 166 38 q 218 162 204 102 l 387 884 l 260 884 m 610 1044 q 508 1188 604 1044 l 439 1135 q 418 1122 430 1127 q 388 1107 407 1117 q 291 1048 323 1072 l 498 1208 q 631 1293 547 1249 q 645 1299 643 1299 q 648 1297 646 1299 q 652 1292 650 1295 q 671 1266 658 1284 q 761 1137 688 1242 q 610 1044 621 1044 z "},"":{"ha":502,"x_min":120,"x_max":803,"o":"m 260 884 q 413 976 398 976 l 722 976 q 668 943 711 975 q 604 898 625 911 q 569 884 582 884 l 518 884 l 374 263 q 316 127 355 185 q 286 92 302 106 l 503 92 q 451 61 488 90 q 399 23 414 33 q 350 0 364 0 l 120 0 q 181 64 166 38 q 218 162 204 102 l 387 884 l 260 884 m 803 1137 l 650 1044 l 569 1141 l 722 1233 l 803 1137 m 494 1137 l 340 1044 l 260 1141 l 413 1233 l 494 1137 z "},"":{"ha":1060,"x_min":132,"x_max":1141,"o":"m 350 0 l 132 0 q 189 73 172 33 q 228 193 213 126 l 281 420 l 132 420 q 191 456 151 426 q 251 499 231 487 q 286 512 271 512 l 302 512 l 389 884 l 240 884 q 299 921 258 890 q 360 963 340 951 q 393 976 380 976 l 694 977 q 997 907 878 977 q 1141 648 1141 823 q 1016 303 1141 458 q 715 79 901 161 q 350 0 534 0 m 871 222 q 961 376 930 286 q 991 555 991 466 q 971 693 991 644 q 917 777 951 743 q 837 832 883 811 q 739 864 791 852 q 521 884 650 884 l 434 512 l 639 512 q 580 476 621 507 q 520 433 540 446 q 486 420 500 420 l 413 420 l 368 230 q 345 159 357 178 q 293 90 328 128 l 518 90 q 871 222 746 90 z "},"":{"ha":1238,"x_min":127,"x_max":1459,"o":"m 1050 884 q 1203 976 1188 976 l 1459 976 q 1400 941 1432 968 q 1309 884 1341 894 q 1285 776 1299 829 q 1248 627 1271 722 q 1082 140 1202 433 q 1067 104 1074 123 q 1052 73 1061 85 q 1027 46 1044 60 q 992 20 1011 33 q 954 -5 972 7 q 924 -23 935 -16 l 924 -12 q 891 91 924 33 q 833 193 882 107 q 494 730 707 412 l 427 437 q 407 347 417 395 q 380 252 396 299 q 285 92 343 144 l 504 92 q 351 0 366 0 l 127 0 q 208 119 182 60 q 273 326 245 205 q 387 884 340 612 l 233 884 q 387 976 372 976 l 642 976 q 573 930 620 967 q 807 578 720 722 q 936 369 895 435 q 1017 233 978 302 q 1171 884 1120 554 l 1050 884 m 1313 1209 q 1000 1047 1135 1047 q 938 1063 959 1047 q 908 1089 918 1078 q 886 1109 898 1099 q 832 1131 859 1131 q 782 1120 806 1131 q 732 1095 758 1109 q 683 1066 707 1081 q 647 1043 660 1051 q 883 1207 750 1160 q 960 1223 928 1223 q 1005 1217 991 1223 q 1031 1201 1019 1211 q 1055 1181 1043 1192 q 1081 1160 1067 1170 q 1145 1139 1114 1139 q 1196 1146 1176 1139 q 1237 1165 1217 1154 q 1277 1189 1258 1177 q 1313 1209 1297 1201 z "},"":{"ha":1188,"x_min":145,"x_max":1286,"o":"m 510 -55 q 370 -36 439 -55 q 252 24 302 -16 q 145 274 145 111 q 263 633 145 460 q 553 901 375 799 q 919 1006 736 1006 q 1177 916 1074 1006 q 1286 669 1286 823 q 1131 290 1286 485 q 779 11 984 108 q 510 -55 640 -55 m 1129 585 q 1101 723 1129 660 q 1024 827 1074 786 q 759 911 926 911 q 503 833 611 911 q 351 635 405 762 q 302 372 302 517 q 406 117 302 205 q 673 35 503 35 q 919 117 810 35 q 1074 320 1017 191 q 1129 585 1129 442 m 913 1159 q 894 1146 906 1155 q 866 1128 882 1138 q 834 1107 851 1118 q 803 1088 818 1097 q 760 1067 770 1068 q 666 1161 701 1106 q 606 1281 631 1217 q 672 1326 612 1292 q 759 1373 754 1373 q 763 1369 763 1373 q 765 1357 762 1365 q 791 1301 770 1341 q 913 1159 839 1207 z "},"":{"ha":1188,"x_min":145,"x_max":1286,"o":"m 510 -55 q 370 -36 439 -55 q 252 24 302 -16 q 145 274 145 111 q 263 633 145 460 q 553 901 375 799 q 919 1006 736 1006 q 1177 916 1074 1006 q 1286 669 1286 823 q 1131 290 1286 485 q 779 11 984 108 q 510 -55 640 -55 m 1129 585 q 1101 723 1129 660 q 1024 827 1074 786 q 759 911 926 911 q 503 833 611 911 q 351 635 405 762 q 302 372 302 517 q 406 117 302 205 q 673 35 503 35 q 919 117 810 35 q 1074 320 1017 191 q 1129 585 1129 442 m 1092 1367 q 796 1117 958 1225 q 693 1058 741 1080 l 695 1066 q 797 1138 750 1097 q 873 1209 844 1180 q 916 1252 902 1238 q 957 1291 944 1282 q 984 1308 970 1299 q 1014 1325 998 1316 q 1044 1342 1029 1334 q 1092 1367 1065 1354 z "},"":{"ha":1188,"x_min":145,"x_max":1286,"o":"m 510 -55 q 370 -36 439 -55 q 252 24 302 -16 q 145 274 145 111 q 263 633 145 460 q 553 901 375 799 q 919 1006 736 1006 q 1177 916 1074 1006 q 1286 669 1286 823 q 1131 290 1286 485 q 779 11 984 108 q 510 -55 640 -55 m 1129 585 q 1101 723 1129 660 q 1024 827 1074 786 q 759 911 926 911 q 503 833 611 911 q 351 635 405 762 q 302 372 302 517 q 406 117 302 205 q 673 35 503 35 q 919 117 810 35 q 1074 320 1017 191 q 1129 585 1129 442 m 935 1057 q 832 1200 928 1057 l 764 1147 q 743 1134 754 1139 q 712 1119 731 1129 q 615 1060 648 1084 l 822 1221 q 956 1305 871 1261 q 969 1311 967 1311 q 972 1309 970 1311 q 976 1304 974 1307 q 995 1278 982 1296 q 1085 1149 1013 1255 q 935 1057 945 1057 z "},"":{"ha":1188,"x_min":145,"x_max":1286,"o":"m 510 -55 q 370 -36 439 -55 q 252 24 302 -16 q 145 274 145 111 q 263 633 145 460 q 553 901 375 799 q 919 1006 736 1006 q 1177 916 1074 1006 q 1286 669 1286 823 q 1131 290 1286 485 q 779 11 984 108 q 510 -55 640 -55 m 1129 585 q 1101 723 1129 660 q 1024 827 1074 786 q 759 911 926 911 q 503 833 611 911 q 351 635 405 762 q 302 372 302 517 q 406 117 302 205 q 673 35 503 35 q 919 117 810 35 q 1074 320 1017 191 q 1129 585 1129 442 m 1206 1232 q 893 1069 1028 1069 q 831 1085 852 1069 q 801 1111 810 1101 q 779 1131 791 1122 q 725 1153 751 1153 q 675 1142 699 1153 q 625 1118 651 1132 q 576 1088 600 1103 q 540 1065 553 1074 q 776 1230 643 1183 q 852 1245 821 1245 q 898 1239 884 1245 q 924 1223 911 1233 q 948 1203 936 1214 q 974 1183 960 1192 q 1038 1161 1006 1161 q 1089 1169 1069 1161 q 1130 1188 1109 1177 q 1170 1211 1151 1199 q 1206 1232 1190 1223 z "},"":{"ha":1188,"x_min":145,"x_max":1286,"o":"m 510 -55 q 370 -36 439 -55 q 252 24 302 -16 q 145 274 145 111 q 263 633 145 460 q 553 901 375 799 q 919 1006 736 1006 q 1177 916 1074 1006 q 1286 669 1286 823 q 1131 290 1286 485 q 779 11 984 108 q 510 -55 640 -55 m 1129 585 q 1101 723 1129 660 q 1024 827 1074 786 q 759 911 926 911 q 503 833 611 911 q 351 635 405 762 q 302 372 302 517 q 406 117 302 205 q 673 35 503 35 q 919 117 810 35 q 1074 320 1017 191 q 1129 585 1129 442 m 1213 1162 l 1059 1069 l 979 1166 l 1132 1258 l 1213 1162 m 903 1162 l 750 1069 l 669 1166 l 823 1258 l 903 1162 z "},"":{"ha":661,"x_min":136,"x_max":711,"o":"m 340 300 q 214 498 268 391 q 293 549 224 511 q 368 590 361 587 q 475 416 412 481 q 518 458 497 437 q 559 497 540 479 q 599 526 579 515 q 640 545 619 536 q 711 587 693 570 q 494 392 608 484 q 633 244 556 313 q 602 227 625 244 q 562 197 578 210 q 530 175 545 185 q 488 151 496 151 q 470 159 480 151 q 447 181 460 168 q 418 211 433 195 q 389 243 404 227 q 351 286 366 269 q 138 151 219 193 l 136 161 q 261 239 199 193 q 340 300 322 286 z "},"":{"ha":1188,"x_min":145,"x_max":1286,"o":"m 1171 1101 q 1095 969 1143 1050 q 1273 764 1232 907 q 1286 662 1286 719 q 1266 541 1286 606 q 1213 413 1247 475 q 1131 291 1178 350 q 1027 179 1083 231 q 907 84 970 127 q 779 11 844 41 q 535 -55 640 -55 q 367 -35 431 -55 q 315 -64 347 -49 q 235 -109 255 -92 q 274 -61 254 -85 q 313 -14 293 -38 q 145 274 145 67 q 263 633 145 460 q 553 901 375 799 q 919 1006 736 1006 q 1010 997 962 1006 q 1082 1054 1023 1023 q 1131 1078 1107 1066 q 1171 1101 1155 1089 m 465 77 q 673 35 552 35 q 919 117 810 35 q 1074 320 1017 191 q 1129 576 1129 442 q 1108 705 1129 657 q 1013 836 1072 791 q 549 180 759 435 q 465 77 507 129 m 937 879 q 770 911 860 911 q 617 890 681 911 q 503 833 553 869 q 414 746 452 796 q 351 635 376 695 q 302 372 302 517 q 412 111 302 199 q 757 589 629 389 q 937 879 836 712 z "},"":{"ha":1179,"x_min":220,"x_max":1413,"o":"m 1413 977 q 1354 940 1394 970 q 1294 897 1314 909 q 1260 884 1274 884 l 1210 884 l 1065 264 q 970 93 1036 149 l 1194 93 q 1135 56 1175 86 q 1075 13 1095 26 q 1041 1 1055 1 l 818 1 q 887 92 874 62 q 906 146 900 121 q 709 40 780 69 q 459 -18 568 -18 q 237 90 284 -18 q 220 175 220 129 q 237 321 220 243 l 368 884 l 254 884 q 273 897 260 888 q 300 916 285 905 q 332 937 315 926 q 363 956 349 947 q 408 977 398 977 l 690 977 q 630 940 670 970 q 570 897 590 909 q 536 884 551 884 l 500 884 l 378 360 q 368 269 368 317 q 389 183 368 221 q 443 121 409 144 q 617 75 507 75 q 846 136 718 75 q 911 170 884 153 l 1078 884 l 951 884 q 969 897 957 888 q 997 916 981 905 q 1028 937 1012 926 q 1060 956 1045 947 q 1104 977 1095 977 l 1413 977 m 979 1044 q 960 1032 972 1040 q 933 1013 948 1023 q 901 992 918 1003 q 869 973 884 982 q 826 952 836 954 q 732 1047 768 991 q 673 1166 697 1102 q 739 1212 678 1177 q 825 1259 821 1259 q 829 1255 829 1259 q 831 1242 829 1251 q 857 1187 836 1227 q 979 1044 905 1093 z "},"":{"ha":1179,"x_min":220,"x_max":1413,"o":"m 1413 977 q 1354 940 1394 970 q 1294 897 1314 909 q 1260 884 1274 884 l 1210 884 l 1065 264 q 970 93 1036 149 l 1194 93 q 1135 56 1175 86 q 1075 13 1095 26 q 1041 1 1055 1 l 818 1 q 887 92 874 62 q 906 146 900 121 q 709 40 780 69 q 459 -18 568 -18 q 237 90 284 -18 q 220 175 220 129 q 237 321 220 243 l 368 884 l 254 884 q 273 897 260 888 q 300 916 285 905 q 332 937 315 926 q 363 956 349 947 q 408 977 398 977 l 690 977 q 630 940 670 970 q 570 897 590 909 q 536 884 551 884 l 500 884 l 378 360 q 368 269 368 317 q 389 183 368 221 q 443 121 409 144 q 617 75 507 75 q 846 136 718 75 q 911 170 884 153 l 1078 884 l 951 884 q 969 897 957 888 q 997 916 981 905 q 1028 937 1012 926 q 1060 956 1045 947 q 1104 977 1095 977 l 1413 977 m 1178 1223 q 882 972 1044 1080 q 779 913 827 935 l 781 922 q 883 994 836 952 q 959 1064 930 1036 q 1002 1107 988 1093 q 1043 1146 1030 1137 q 1070 1163 1057 1155 q 1100 1181 1084 1172 q 1131 1198 1116 1190 q 1178 1223 1151 1209 z "},"":{"ha":1179,"x_min":220,"x_max":1413,"o":"m 1413 977 q 1354 940 1394 970 q 1294 897 1314 909 q 1260 884 1274 884 l 1210 884 l 1065 264 q 970 93 1036 149 l 1194 93 q 1135 56 1175 86 q 1075 13 1095 26 q 1041 1 1055 1 l 818 1 q 887 92 874 62 q 906 146 900 121 q 709 40 780 69 q 459 -18 568 -18 q 237 90 284 -18 q 220 175 220 129 q 237 321 220 243 l 368 884 l 254 884 q 273 897 260 888 q 300 916 285 905 q 332 937 315 926 q 363 956 349 947 q 408 977 398 977 l 690 977 q 630 940 670 970 q 570 897 590 909 q 536 884 551 884 l 500 884 l 378 360 q 368 269 368 317 q 389 183 368 221 q 443 121 409 144 q 617 75 507 75 q 846 136 718 75 q 911 170 884 153 l 1078 884 l 951 884 q 969 897 957 888 q 997 916 981 905 q 1028 937 1012 926 q 1060 956 1045 947 q 1104 977 1095 977 l 1413 977 m 1018 1040 q 916 1184 1011 1040 l 847 1131 q 826 1118 838 1123 q 795 1103 814 1113 q 699 1044 731 1068 l 905 1204 q 1039 1289 954 1245 q 1052 1295 1050 1295 q 1056 1293 1054 1295 q 1059 1288 1057 1291 q 1078 1262 1065 1280 q 1168 1133 1096 1238 q 1018 1040 1029 1040 z "},"":{"ha":1179,"x_min":220,"x_max":1413,"o":"m 1413 977 q 1354 940 1394 970 q 1294 897 1314 909 q 1260 884 1274 884 l 1210 884 l 1065 264 q 970 93 1036 149 l 1194 93 q 1135 56 1175 86 q 1075 13 1095 26 q 1041 1 1055 1 l 818 1 q 887 92 874 62 q 906 146 900 121 q 709 40 780 69 q 459 -18 568 -18 q 237 90 284 -18 q 220 175 220 129 q 237 321 220 243 l 368 884 l 254 884 q 273 897 260 888 q 300 916 285 905 q 332 937 315 926 q 363 956 349 947 q 408 977 398 977 l 690 977 q 630 940 670 970 q 570 897 590 909 q 536 884 551 884 l 500 884 l 378 360 q 368 269 368 317 q 389 183 368 221 q 443 121 409 144 q 617 75 507 75 q 846 136 718 75 q 911 170 884 153 l 1078 884 l 951 884 q 969 897 957 888 q 997 916 981 905 q 1028 937 1012 926 q 1060 956 1045 947 q 1104 977 1095 977 l 1413 977 m 1176 1135 l 1023 1042 l 942 1138 l 1095 1230 l 1176 1135 m 867 1135 l 713 1042 l 633 1138 l 786 1230 l 867 1135 z "},"":{"ha":851,"x_min":146,"x_max":1031,"o":"m 614 422 q 561 207 572 233 q 540 161 551 180 q 490 92 519 121 l 707 92 q 652 58 694 89 q 554 0 574 0 l 317 0 q 382 68 364 39 q 426 174 413 118 l 466 346 q 469 393 469 363 q 410 670 469 500 q 290 883 355 827 q 245 904 264 904 q 214 901 227 904 q 189 893 201 898 q 146 871 170 886 q 320 979 224 947 q 384 989 353 989 q 473 937 438 989 q 593 627 546 825 q 616 472 612 541 q 856 774 803 652 q 869 836 869 806 q 851 883 869 865 q 806 901 833 901 q 762 896 779 901 q 803 918 783 902 q 845 950 823 933 q 941 993 901 993 q 1023 928 1023 993 q 677 484 1023 815 q 614 422 637 446 m 1031 1223 q 736 972 897 1080 q 633 913 681 935 l 635 922 q 737 994 690 952 q 813 1064 784 1036 q 855 1107 842 1093 q 897 1146 884 1137 q 924 1163 910 1155 q 954 1181 938 1172 q 984 1198 969 1190 q 1031 1223 1004 1209 z "},"":{"ha":832,"x_min":107,"x_max":954,"o":"m 610 247 q 412 195 504 195 q 349 198 372 195 q 262 92 320 135 l 475 92 q 421 60 458 88 q 370 22 385 31 q 322 0 339 0 l 107 0 q 206 122 183 51 q 222 180 214 146 l 349 722 l 193 722 q 211 735 199 726 q 238 753 223 743 q 270 774 254 764 q 302 794 287 785 q 346 814 336 814 l 370 814 l 392 909 q 429 935 411 922 q 467 959 448 947 q 508 979 486 970 q 545 1002 529 988 l 502 814 l 709 814 q 875 772 808 814 q 954 629 954 723 q 686 288 954 438 q 610 247 647 265 m 387 320 q 571 289 481 289 q 714 331 661 289 q 789 465 768 372 q 799 543 799 504 q 786 610 799 581 q 752 660 774 640 q 702 692 730 680 q 640 711 673 705 q 509 722 589 722 l 480 722 l 387 320 z "},"":{"ha":867,"x_min":-192,"x_max":982,"o":"m -16 -254 q -40 -288 -40 -271 q -6 -317 -40 -319 l -5 -317 q 75 -184 48 -252 q 137 15 114 -83 l 273 581 l 187 581 q 288 648 251 623 q 340 836 319 785 q 381 918 361 886 q 433 978 402 949 q 567 1075 485 1028 q 699 1142 649 1122 q 798 1161 749 1161 q 879 1147 846 1161 q 936 1108 913 1133 q 982 970 982 1057 q 874 730 982 829 q 773 649 827 686 q 694 590 718 611 q 641 497 641 543 q 727 410 641 439 q 778 393 752 401 q 828 375 803 385 q 871 353 852 366 q 914 278 914 322 q 893 197 914 234 q 838 128 872 160 q 759 69 803 96 q 669 24 714 43 q 501 -16 572 -16 q 389 12 431 -16 q 374 41 374 23 q 396 78 374 60 q 446 112 417 96 q 503 141 474 127 q 545 166 531 155 q 526 131 526 149 q 543 103 526 113 q 585 87 561 92 q 670 77 626 77 q 737 103 713 77 q 760 169 760 130 q 740 229 760 208 q 690 265 720 250 q 625 291 660 279 q 560 317 590 302 q 490 404 490 350 q 600 553 490 466 q 784 731 737 663 q 838 897 838 810 q 779 1021 838 970 q 648 1069 722 1069 q 574 1061 604 1069 q 468 850 506 989 q 449 774 458 812 l 272 27 q 114 -256 236 -119 q -61 -389 31 -350 q -150 -409 -108 -409 q -192 -385 -192 -409 q -79 -289 -192 -349 q -16 -254 -26 -262 z "},"":{"ha":756,"x_min":106,"x_max":777,"o":"m 290 -14 q 106 168 106 -14 q 180 412 106 292 q 365 598 250 526 q 608 673 483 673 q 708 656 663 673 q 777 633 754 640 l 673 188 q 665 135 665 153 q 730 81 665 81 q 771 85 751 81 q 727 54 750 71 q 680 23 704 37 q 576 -11 621 -11 q 514 14 527 -11 q 509 38 509 24 q 517 90 509 60 q 466 55 492 73 q 410 22 439 37 q 290 -14 344 -14 m 254 235 q 414 78 254 78 q 471 94 440 78 q 532 147 525 122 l 610 483 q 557 558 591 534 q 477 582 523 582 q 401 565 431 582 q 348 519 372 547 q 307 454 324 490 q 277 379 289 418 q 254 235 254 302 m 642 833 q 623 820 635 829 q 595 802 610 812 q 563 781 580 791 q 532 762 547 770 q 488 741 498 742 q 395 835 430 780 q 335 955 359 890 q 401 1000 340 966 q 487 1047 483 1047 q 491 1043 492 1047 q 494 1031 491 1039 q 519 975 498 1015 q 642 833 568 881 z "},"":{"ha":756,"x_min":106,"x_max":840,"o":"m 290 -14 q 106 168 106 -14 q 180 412 106 292 q 365 598 250 526 q 608 673 483 673 q 708 656 663 673 q 777 633 754 640 l 673 188 q 665 135 665 153 q 730 81 665 81 q 771 85 751 81 q 727 54 750 71 q 680 23 704 37 q 576 -11 621 -11 q 514 14 527 -11 q 509 38 509 24 q 517 90 509 60 q 466 55 492 73 q 410 22 439 37 q 290 -14 344 -14 m 254 235 q 414 78 254 78 q 471 94 440 78 q 532 147 525 122 l 610 483 q 557 558 591 534 q 477 582 523 582 q 401 565 431 582 q 348 519 372 547 q 307 454 324 490 q 277 379 289 418 q 254 235 254 302 m 840 1011 q 545 761 706 869 q 441 702 490 724 l 444 710 q 546 782 498 741 q 622 853 593 824 q 664 896 650 882 q 706 935 692 926 q 733 952 719 943 q 762 969 747 960 q 793 986 778 978 q 840 1011 813 998 z "},"":{"ha":756,"x_min":106,"x_max":827,"o":"m 290 -14 q 106 168 106 -14 q 180 412 106 292 q 365 598 250 526 q 608 673 483 673 q 708 656 663 673 q 777 633 754 640 l 673 188 q 665 135 665 153 q 730 81 665 81 q 771 85 751 81 q 727 54 750 71 q 680 23 704 37 q 576 -11 621 -11 q 514 14 527 -11 q 509 38 509 24 q 517 90 509 60 q 466 55 492 73 q 410 22 439 37 q 290 -14 344 -14 m 254 235 q 414 78 254 78 q 471 94 440 78 q 532 147 525 122 l 610 483 q 557 558 591 534 q 477 582 523 582 q 401 565 431 582 q 348 519 372 547 q 307 454 324 490 q 277 379 289 418 q 254 235 254 302 m 676 734 q 574 878 669 734 l 505 825 q 484 812 496 817 q 454 797 473 807 q 357 738 389 762 l 564 899 q 697 983 612 939 q 710 989 709 989 q 714 987 712 989 q 718 982 715 985 q 736 956 724 974 q 827 827 754 932 q 676 734 687 734 z "},"":{"ha":756,"x_min":106,"x_max":890,"o":"m 290 -14 q 106 168 106 -14 q 180 412 106 292 q 365 598 250 526 q 608 673 483 673 q 708 656 663 673 q 777 633 754 640 l 673 188 q 665 135 665 153 q 730 81 665 81 q 771 85 751 81 q 727 54 750 71 q 680 23 704 37 q 576 -11 621 -11 q 514 14 527 -11 q 509 38 509 24 q 517 90 509 60 q 466 55 492 73 q 410 22 439 37 q 290 -14 344 -14 m 254 235 q 414 78 254 78 q 471 94 440 78 q 532 147 525 122 l 610 483 q 557 558 591 534 q 477 582 523 582 q 401 565 431 582 q 348 519 372 547 q 307 454 324 490 q 277 379 289 418 q 254 235 254 302 m 890 911 q 578 749 713 749 q 516 765 536 749 q 485 791 495 781 q 463 811 475 802 q 410 833 436 833 q 360 822 384 833 q 310 798 336 812 q 261 768 284 783 q 224 745 237 753 q 460 909 328 863 q 537 925 506 925 q 582 919 568 925 q 608 903 596 913 q 632 883 621 894 q 659 863 644 872 q 722 841 691 841 q 774 849 753 841 q 815 868 794 857 q 855 891 836 879 q 890 911 874 903 z "},"":{"ha":756,"x_min":106,"x_max":850,"o":"m 290 -14 q 106 168 106 -14 q 180 412 106 292 q 365 598 250 526 q 608 673 483 673 q 708 656 663 673 q 777 633 754 640 l 673 188 q 665 135 665 153 q 730 81 665 81 q 771 85 751 81 q 727 54 750 71 q 680 23 704 37 q 576 -11 621 -11 q 514 14 527 -11 q 509 38 509 24 q 517 90 509 60 q 466 55 492 73 q 410 22 439 37 q 290 -14 344 -14 m 254 235 q 414 78 254 78 q 471 94 440 78 q 532 147 525 122 l 610 483 q 557 558 591 534 q 477 582 523 582 q 401 565 431 582 q 348 519 372 547 q 307 454 324 490 q 277 379 289 418 q 254 235 254 302 m 850 842 l 697 749 l 616 845 l 770 937 l 850 842 m 541 842 l 388 749 l 307 845 l 460 937 l 541 842 z "},"":{"ha":756,"x_min":106,"x_max":812,"o":"m 290 -14 q 106 168 106 -14 q 180 412 106 292 q 365 598 250 526 q 608 673 483 673 q 708 656 663 673 q 777 633 754 640 l 673 188 q 665 135 665 153 q 730 81 665 81 q 771 85 751 81 q 727 54 750 71 q 680 23 704 37 q 576 -11 621 -11 q 514 14 527 -11 q 509 38 509 24 q 517 90 509 60 q 466 55 492 73 q 410 22 439 37 q 290 -14 344 -14 m 254 235 q 414 78 254 78 q 471 94 440 78 q 532 147 525 122 l 610 483 q 557 558 591 534 q 477 582 523 582 q 401 565 431 582 q 348 519 372 547 q 307 454 324 490 q 277 379 289 418 q 254 235 254 302 m 617 764 q 599 755 617 764 q 547 734 581 745 q 488 724 513 724 q 442 730 463 724 q 405 749 421 736 q 369 815 369 777 q 386 886 369 854 q 430 947 403 918 q 493 1004 458 977 q 564 1050 528 1030 q 699 1093 644 1093 q 780 1061 747 1093 q 812 991 812 1030 q 795 922 812 953 q 751 863 779 892 q 689 809 724 834 q 617 764 654 783 m 635 812 q 659 891 659 851 q 631 968 659 936 q 557 1001 602 1001 q 530 969 539 1001 q 524 924 524 950 q 532 877 524 897 q 555 843 541 857 q 635 812 586 814 z "},"":{"ha":923,"x_min":46,"x_max":977,"o":"m 977 589 q 590 253 977 446 q 638 125 593 169 q 768 82 684 82 q 929 125 842 82 q 688 1 833 33 q 601 -9 644 -9 q 448 101 481 -9 q 380 63 414 83 q 309 27 345 43 q 157 -10 226 -10 q 57 28 85 -10 q 46 68 46 43 q 59 119 46 93 q 93 170 72 146 q 142 215 115 194 q 198 254 170 237 q 382 328 294 313 q 463 336 421 334 q 486 478 486 437 q 365 585 486 585 q 245 557 307 585 q 369 637 327 616 q 523 679 454 679 q 637 538 650 679 q 903 665 789 665 q 957 643 937 665 q 977 589 977 622 m 824 499 q 806 547 824 524 q 758 570 789 570 q 705 554 727 570 q 665 515 683 539 q 634 459 647 490 q 611 397 621 429 q 590 286 593 338 q 742 374 659 304 q 824 499 824 444 m 201 153 q 300 81 201 81 q 403 125 361 81 q 420 157 416 139 l 441 243 l 328 243 q 226 235 270 243 q 201 153 201 190 z "},"":{"ha":635,"x_min":83,"x_max":781,"o":"m 226 -195 q 161 -153 226 -153 q 97 -164 140 -153 q 163 -114 130 -138 q 233 -63 197 -90 q 304 -11 269 -36 q 118 104 162 -9 q 104 195 104 141 q 128 309 104 249 q 194 424 153 369 q 290 526 235 479 q 405 608 345 574 q 646 683 535 683 q 769 653 721 683 q 781 640 781 647 q 770 622 781 632 q 743 598 760 611 q 706 573 726 586 q 667 549 686 560 q 611 525 625 526 q 623 536 616 528 q 629 549 629 545 q 621 559 629 553 q 599 570 612 565 q 570 579 586 575 q 538 587 554 584 q 479 593 505 593 q 420 579 453 593 q 361 542 387 566 q 316 488 336 519 q 285 422 297 456 q 260 291 260 353 q 275 191 260 229 q 319 130 291 154 q 475 81 374 81 q 639 122 556 81 q 407 1 543 37 q 323 -11 363 -9 l 248 -73 q 292 -62 264 -62 q 331 -64 319 -62 q 354 -71 343 -66 q 378 -105 378 -82 q 361 -152 378 -128 q 317 -198 345 -175 q 257 -243 290 -221 q 190 -283 223 -265 q 83 -340 136 -314 q 129 -309 105 -322 q 169 -285 153 -296 q 195 -265 186 -275 q 211 -244 204 -256 q 226 -195 226 -218 z "},"":{"ha":589,"x_min":104,"x_max":643,"o":"m 643 589 q 256 253 643 446 q 434 82 262 82 q 595 125 512 82 q 354 1 499 33 q 266 -9 309 -9 q 192 6 222 -9 q 141 47 161 21 q 104 166 104 97 q 124 291 104 235 q 180 400 145 347 q 261 502 215 454 q 359 586 307 550 q 569 665 473 665 q 623 643 604 665 q 643 589 643 622 m 473 453 q 481 466 473 453 q 490 502 490 479 q 472 547 490 524 q 424 570 455 570 q 371 554 393 570 q 331 515 349 539 q 300 459 313 490 q 277 397 286 429 q 256 286 260 337 q 408 380 323 303 q 473 453 457 426 m 566 823 q 547 810 559 819 q 520 791 535 802 q 488 771 505 781 q 456 751 471 760 q 413 730 423 732 q 319 825 355 770 q 260 945 284 880 q 326 990 265 956 q 412 1037 408 1037 q 416 1033 416 1037 q 418 1021 416 1029 q 444 965 423 1005 q 566 823 492 871 z "},"":{"ha":587,"x_min":103,"x_max":698,"o":"m 642 589 q 255 253 642 446 q 433 82 262 82 q 595 125 511 82 q 353 1 498 33 q 265 -9 308 -9 q 191 6 222 -9 q 140 47 160 21 q 103 166 103 97 q 124 291 103 235 q 179 400 144 347 q 260 502 214 454 q 359 586 307 550 q 568 665 472 665 q 623 643 603 665 q 642 589 642 622 m 473 453 q 481 466 473 453 q 489 502 489 479 q 472 547 489 524 q 423 570 454 570 q 370 554 392 570 q 330 515 348 539 q 299 459 313 490 q 276 397 286 429 q 256 286 259 337 q 407 380 322 303 q 473 453 456 426 m 698 943 q 402 692 564 800 q 299 633 347 655 l 301 642 q 403 714 356 672 q 479 784 450 755 q 522 827 508 813 q 563 866 550 857 q 590 883 576 875 q 620 901 604 892 q 650 918 635 909 q 698 943 671 929 z "},"":{"ha":589,"x_min":104,"x_max":766,"o":"m 643 589 q 256 253 643 446 q 434 82 262 82 q 595 125 512 82 q 354 1 499 33 q 266 -9 309 -9 q 192 6 222 -9 q 141 47 161 21 q 104 166 104 97 q 124 291 104 235 q 180 400 145 347 q 261 502 215 454 q 359 586 307 550 q 569 665 473 665 q 623 643 604 665 q 643 589 643 622 m 473 453 q 481 466 473 453 q 490 502 490 479 q 472 547 490 524 q 424 570 455 570 q 371 554 393 570 q 331 515 349 539 q 300 459 313 490 q 277 397 286 429 q 256 286 260 337 q 408 380 323 303 q 473 453 457 426 m 616 711 q 513 855 609 711 l 445 802 q 424 789 435 794 q 393 774 412 784 q 296 715 329 739 l 503 876 q 637 960 552 916 q 650 966 648 966 q 653 964 652 966 q 657 959 655 962 q 676 933 663 951 q 766 804 694 909 q 616 711 627 711 z "},"":{"ha":589,"x_min":104,"x_max":764,"o":"m 643 589 q 256 253 643 446 q 434 82 262 82 q 595 125 512 82 q 354 1 499 33 q 266 -9 309 -9 q 192 6 222 -9 q 141 47 161 21 q 104 166 104 97 q 124 291 104 235 q 180 400 145 347 q 261 502 215 454 q 359 586 307 550 q 569 665 473 665 q 623 643 604 665 q 643 589 643 622 m 473 453 q 481 466 473 453 q 490 502 490 479 q 472 547 490 524 q 424 570 455 570 q 371 554 393 570 q 331 515 349 539 q 300 459 313 490 q 277 397 286 429 q 256 286 260 337 q 408 380 323 303 q 473 453 457 426 m 764 820 l 610 727 l 530 823 l 683 916 l 764 820 m 454 820 l 301 727 l 220 823 l 374 916 l 454 820 z "},"":{"ha":399,"x_min":127,"x_max":433,"o":"m 241 472 q 197 522 241 522 q 136 512 176 522 q 426 682 340 643 l 315 203 q 306 168 311 186 q 302 131 302 149 q 378 79 302 79 q 422 83 397 79 q 377 52 400 68 q 330 20 354 35 q 226 -13 273 -13 q 157 17 170 -13 q 151 45 151 29 q 157 95 151 69 l 232 416 q 241 472 241 452 m 433 806 q 414 793 427 802 q 387 774 402 785 q 355 754 372 764 q 323 734 338 743 q 280 713 290 715 q 186 808 222 753 q 127 928 151 863 q 193 973 132 939 q 279 1020 275 1020 q 283 1016 283 1020 q 286 1004 283 1012 q 311 948 290 988 q 433 806 359 854 z "},"":{"ha":404,"x_min":140,"x_max":640,"o":"m 245 472 q 201 522 245 522 q 140 512 180 522 q 430 682 345 643 l 319 203 q 310 168 315 186 q 306 131 306 149 q 382 79 306 79 q 426 83 401 79 q 381 52 404 68 q 334 20 358 35 q 230 -13 277 -13 q 161 17 174 -13 q 155 45 155 29 q 161 95 155 69 l 236 416 q 245 472 245 452 m 640 968 q 344 718 505 826 q 241 659 289 681 l 243 667 q 345 740 298 698 q 421 810 392 781 q 463 853 450 839 q 505 892 492 883 q 532 909 518 901 q 562 926 546 918 q 592 943 577 935 q 640 968 612 955 z "},"":{"ha":400,"x_min":136,"x_max":612,"o":"m 241 472 q 197 522 241 522 q 136 512 176 522 q 426 682 340 643 l 315 203 q 306 168 311 186 q 302 131 302 149 q 378 79 302 79 q 422 83 397 79 q 377 52 400 68 q 330 20 354 35 q 226 -13 273 -13 q 157 17 170 -13 q 151 45 151 29 q 157 95 151 69 l 232 416 q 241 472 241 452 m 461 737 q 359 881 454 737 l 290 827 q 269 815 281 820 q 239 800 258 810 q 142 741 174 765 l 349 901 q 482 986 397 942 q 495 991 494 991 q 499 989 497 991 q 503 985 500 987 q 522 959 509 977 q 612 830 539 935 q 461 737 472 737 z "},"":{"ha":400,"x_min":102,"x_max":646,"o":"m 241 472 q 197 522 241 522 q 136 512 176 522 q 426 682 340 643 l 315 203 q 306 168 311 186 q 302 131 302 149 q 378 79 302 79 q 422 83 397 79 q 377 52 400 68 q 330 20 354 35 q 226 -13 273 -13 q 157 17 170 -13 q 151 45 151 29 q 157 95 151 69 l 232 416 q 241 472 241 452 m 646 838 l 492 745 l 412 841 l 565 933 l 646 838 m 336 838 l 183 745 l 102 841 l 256 933 l 336 838 z "},"":{"ha":769,"x_min":106,"x_max":968,"o":"m 660 644 q 617 802 648 726 l 397 802 q 416 814 404 806 q 443 833 428 823 q 475 854 458 843 q 507 873 492 865 q 551 894 541 894 l 568 894 q 437 1028 514 972 l 441 1027 q 486 1057 448 1027 q 540 1097 525 1086 q 582 1121 574 1121 q 595 1118 589 1121 q 606 1110 600 1114 q 616 1101 611 1105 q 624 1094 621 1096 q 770 894 722 1010 l 968 894 q 910 859 951 890 q 849 814 869 827 q 814 802 829 802 l 800 802 q 820 642 820 719 q 787 368 820 505 q 602 109 754 233 q 408 0 507 32 q 311 -16 357 -16 q 227 1 265 -16 q 163 47 189 18 q 106 200 106 108 q 187 412 106 302 q 377 584 262 515 q 593 654 494 654 q 660 644 627 654 m 642 359 q 628 434 642 395 q 587 502 614 473 q 438 564 532 564 q 338 515 382 564 q 267 347 283 455 q 262 282 262 317 q 275 206 262 246 q 314 137 288 166 q 464 75 369 75 q 598 174 547 75 q 642 359 642 258 z "},"":{"ha":787,"x_min":136,"x_max":945,"o":"m 701 137 q 762 81 701 81 q 816 92 787 81 q 720 26 747 42 q 609 -10 656 -10 q 547 49 547 -10 q 563 137 547 75 l 622 391 q 630 454 630 428 q 515 564 630 564 q 374 420 416 564 q 357 353 363 383 l 308 143 q 305 120 305 133 q 342 78 305 78 q 374 85 357 78 q 191 -14 241 -14 q 151 26 151 -14 q 191 208 151 44 q 244 432 231 372 q 261 521 261 507 q 197 570 261 570 q 136 559 168 570 q 195 593 162 568 q 278 648 256 641 q 355 664 321 664 q 412 612 412 664 q 401 547 412 590 q 665 659 557 659 q 751 631 716 659 q 789 551 789 600 q 785 522 789 537 l 707 186 q 701 137 701 156 m 945 892 q 633 730 768 730 q 571 746 591 730 q 540 772 550 762 q 518 792 530 783 q 465 814 491 814 q 415 803 439 814 q 365 779 391 793 q 316 749 339 764 q 279 726 292 734 q 515 890 382 844 q 592 906 561 906 q 637 900 623 906 q 663 884 651 894 q 687 864 675 875 q 713 844 699 853 q 777 822 746 822 q 829 830 808 822 q 870 849 849 838 q 910 872 890 860 q 945 892 929 884 z "},"":{"ha":743,"x_min":108,"x_max":800,"o":"m 316 -12 q 229 5 267 -12 q 164 51 191 22 q 108 204 108 112 q 188 422 108 308 q 377 599 261 526 q 598 672 494 672 q 746 610 689 672 q 800 458 800 551 q 721 240 800 353 q 534 62 646 133 q 316 -12 417 -12 m 644 368 q 631 444 644 403 q 593 515 618 485 q 443 581 538 581 q 342 532 386 581 q 270 361 286 470 q 266 295 266 331 q 278 218 266 259 q 315 146 290 177 q 465 79 370 79 q 601 180 549 79 q 644 368 644 265 m 600 833 q 581 820 593 829 q 554 802 569 812 q 522 781 538 791 q 490 762 505 770 q 447 741 457 742 q 353 835 389 780 q 294 955 318 890 q 359 1000 299 966 q 446 1047 441 1047 q 450 1043 450 1047 q 452 1031 450 1039 q 478 975 457 1015 q 600 833 526 881 z "},"":{"ha":743,"x_min":108,"x_max":800,"o":"m 316 -12 q 229 5 267 -12 q 164 51 191 22 q 108 204 108 112 q 188 422 108 308 q 377 599 261 526 q 598 672 494 672 q 746 610 689 672 q 800 458 800 551 q 721 240 800 353 q 534 62 646 133 q 316 -12 417 -12 m 644 368 q 631 444 644 403 q 593 515 618 485 q 443 581 538 581 q 342 532 386 581 q 270 361 286 470 q 266 295 266 331 q 278 218 266 259 q 315 146 290 177 q 465 79 370 79 q 601 180 549 79 q 644 368 644 265 m 755 1000 q 460 750 621 858 q 357 691 405 713 l 359 699 q 461 771 414 730 q 537 842 508 813 q 579 885 566 871 q 621 924 608 915 q 648 941 634 932 q 677 958 662 949 q 708 975 693 967 q 755 1000 728 987 z "},"":{"ha":743,"x_min":108,"x_max":803,"o":"m 316 -12 q 229 5 267 -12 q 164 51 191 22 q 108 204 108 112 q 188 422 108 308 q 377 599 261 526 q 598 672 494 672 q 746 610 689 672 q 800 458 800 551 q 721 240 800 353 q 534 62 646 133 q 316 -12 417 -12 m 644 368 q 631 444 644 403 q 593 515 618 485 q 443 581 538 581 q 342 532 386 581 q 270 361 286 470 q 266 295 266 331 q 278 218 266 259 q 315 146 290 177 q 465 79 370 79 q 601 180 549 79 q 644 368 644 265 m 652 745 q 550 889 646 745 l 481 836 q 460 823 472 828 q 430 808 449 818 q 333 749 366 773 l 540 909 q 673 994 589 950 q 687 1000 685 1000 q 690 998 688 1000 q 694 993 692 996 q 713 967 700 985 q 803 838 730 943 q 652 745 663 745 z "},"":{"ha":743,"x_min":108,"x_max":899,"o":"m 316 -12 q 229 5 267 -12 q 164 51 191 22 q 108 204 108 112 q 188 422 108 308 q 377 599 261 526 q 598 672 494 672 q 746 610 689 672 q 800 458 800 551 q 721 240 800 353 q 534 62 646 133 q 316 -12 417 -12 m 644 368 q 631 444 644 403 q 593 515 618 485 q 443 581 538 581 q 342 532 386 581 q 270 361 286 470 q 266 295 266 331 q 278 218 266 259 q 315 146 290 177 q 465 79 370 79 q 601 180 549 79 q 644 368 644 265 m 899 903 q 587 741 722 741 q 525 756 545 741 q 494 782 504 772 q 472 802 484 793 q 419 824 445 824 q 369 813 393 824 q 319 789 345 803 q 270 760 293 774 q 233 736 246 745 q 469 901 336 854 q 546 916 515 916 q 591 910 577 916 q 617 895 605 904 q 641 874 629 885 q 667 854 653 863 q 731 832 700 832 q 783 840 762 832 q 824 859 803 848 q 864 882 844 870 q 899 903 883 895 z "},"":{"ha":743,"x_min":108,"x_max":835,"o":"m 316 -12 q 229 5 267 -12 q 164 51 191 22 q 108 204 108 112 q 188 422 108 308 q 377 599 261 526 q 598 672 494 672 q 746 610 689 672 q 800 458 800 551 q 721 240 800 353 q 534 62 646 133 q 316 -12 417 -12 m 644 368 q 631 444 644 403 q 593 515 618 485 q 443 581 538 581 q 342 532 386 581 q 270 361 286 470 q 266 295 266 331 q 278 218 266 259 q 315 146 290 177 q 465 79 370 79 q 601 180 549 79 q 644 368 644 265 m 835 832 l 682 739 l 601 836 l 754 928 l 835 832 m 526 832 l 372 739 l 292 836 l 445 928 l 526 832 z "},"":{"ha":718,"x_min":136,"x_max":779,"o":"m 604 565 l 450 473 l 406 586 l 559 678 l 604 565 m 779 417 q 725 385 762 413 q 673 347 688 357 q 625 325 640 325 l 136 325 q 188 356 150 327 q 241 395 227 385 q 289 417 274 417 l 779 417 m 511 165 l 357 73 l 313 186 l 466 279 l 511 165 z "},"":{"ha":743,"x_min":89,"x_max":812,"o":"m 377 599 q 489 652 432 633 q 587 672 546 672 q 648 667 629 672 q 722 720 660 692 q 772 742 747 732 q 812 764 796 753 q 726 629 770 694 q 801 458 801 568 q 722 240 801 353 q 534 62 647 134 q 313 -12 417 -12 q 221 9 262 -12 q 171 -17 204 -2 q 89 -58 111 -43 l 176 39 q 108 205 108 102 q 189 422 108 309 q 377 599 264 528 m 294 179 q 566 541 449 370 q 443 581 517 581 q 284 422 333 581 q 266 317 266 362 q 294 179 266 233 m 333 127 q 465 79 385 79 q 601 180 551 79 q 644 357 644 265 q 618 475 644 423 q 333 127 503 320 z "},"":{"ha":806,"x_min":136,"x_max":836,"o":"m 781 660 q 819 619 819 660 q 816 595 819 607 l 715 164 q 713 149 714 157 q 711 134 711 142 q 730 93 711 104 q 770 83 749 83 q 836 94 802 83 q 785 66 807 84 q 741 31 764 49 q 623 -11 684 -11 q 562 45 562 -11 q 569 98 562 64 q 280 -14 395 -14 q 170 121 170 -14 q 183 221 170 163 l 237 450 q 246 515 246 493 q 186 572 246 572 q 136 562 162 572 q 182 595 157 577 q 235 629 208 614 q 347 665 298 665 q 402 610 402 665 q 387 523 402 583 q 322 245 328 279 q 317 186 317 212 q 327 138 317 159 q 354 103 336 116 q 450 79 385 79 q 548 115 494 79 q 577 134 562 125 l 661 492 q 665 525 665 508 q 629 568 665 568 q 597 562 614 568 q 781 660 730 660 m 669 765 q 650 752 663 761 q 623 734 638 744 q 591 713 608 724 q 559 694 574 703 q 516 673 526 674 q 422 767 458 712 q 363 887 387 823 q 429 932 368 898 q 515 979 511 979 q 519 975 519 979 q 522 963 519 971 q 547 907 526 947 q 669 765 595 813 z "},"":{"ha":806,"x_min":136,"x_max":911,"o":"m 781 660 q 819 619 819 660 q 816 595 819 607 l 715 164 q 713 149 714 157 q 711 134 711 142 q 730 93 711 104 q 770 83 749 83 q 836 94 802 83 q 785 66 807 84 q 741 31 764 49 q 623 -11 684 -11 q 562 45 562 -11 q 569 98 562 64 q 280 -14 395 -14 q 170 121 170 -14 q 183 221 170 163 l 237 450 q 246 515 246 493 q 186 572 246 572 q 136 562 162 572 q 182 595 157 577 q 235 629 208 614 q 347 665 298 665 q 402 610 402 665 q 387 523 402 583 q 322 245 328 279 q 317 186 317 212 q 327 138 317 159 q 354 103 336 116 q 450 79 385 79 q 548 115 494 79 q 577 134 562 125 l 661 492 q 665 525 665 508 q 629 568 665 568 q 597 562 614 568 q 781 660 730 660 m 911 964 q 616 713 777 821 q 513 654 561 676 l 515 663 q 617 735 570 693 q 693 805 664 777 q 735 848 722 834 q 777 887 764 878 q 804 904 790 896 q 833 922 818 913 q 864 939 849 930 q 911 964 884 950 z "},"":{"ha":806,"x_min":136,"x_max":836,"o":"m 781 660 q 819 619 819 660 q 816 595 819 607 l 715 164 q 713 149 714 157 q 711 134 711 142 q 730 93 711 104 q 770 83 749 83 q 836 94 802 83 q 785 66 807 84 q 741 31 764 49 q 623 -11 684 -11 q 562 45 562 -11 q 569 98 562 64 q 280 -14 395 -14 q 170 121 170 -14 q 183 221 170 163 l 237 450 q 246 515 246 493 q 186 572 246 572 q 136 562 162 572 q 182 595 157 577 q 235 629 208 614 q 347 665 298 665 q 402 610 402 665 q 387 523 402 583 q 322 245 328 279 q 317 186 317 212 q 327 138 317 159 q 354 103 336 116 q 450 79 385 79 q 548 115 494 79 q 577 134 562 125 l 661 492 q 665 525 665 508 q 629 568 665 568 q 597 562 614 568 q 781 660 730 660 m 669 736 q 567 880 663 736 l 498 827 q 477 814 489 819 q 447 799 466 809 q 350 740 382 764 l 557 901 q 690 985 606 941 q 704 991 702 991 q 707 989 705 991 q 711 984 709 987 q 730 958 717 976 q 820 829 747 935 q 669 736 680 736 z "},"":{"ha":806,"x_min":136,"x_max":854,"o":"m 781 660 q 819 619 819 660 q 816 595 819 607 l 715 164 q 713 149 714 157 q 711 134 711 142 q 730 93 711 104 q 770 83 749 83 q 836 94 802 83 q 785 66 807 84 q 741 31 764 49 q 623 -11 684 -11 q 562 45 562 -11 q 569 98 562 64 q 280 -14 395 -14 q 170 121 170 -14 q 183 221 170 163 l 237 450 q 246 515 246 493 q 186 572 246 572 q 136 562 162 572 q 182 595 157 577 q 235 629 208 614 q 347 665 298 665 q 402 610 402 665 q 387 523 402 583 q 322 245 328 279 q 317 186 317 212 q 327 138 317 159 q 354 103 336 116 q 450 79 385 79 q 548 115 494 79 q 577 134 562 125 l 661 492 q 665 525 665 508 q 629 568 665 568 q 597 562 614 568 q 781 660 730 660 m 854 828 l 701 735 l 621 831 l 774 924 l 854 828 m 545 828 l 392 735 l 311 831 l 465 924 l 545 828 z "},"":{"ha":781,"x_min":17,"x_max":926,"o":"m 784 661 q 825 623 825 661 q 823 605 825 614 l 729 205 q 521 -206 674 -27 q 274 -385 412 -333 q 125 -412 203 -412 q 30 -387 64 -412 q 17 -363 17 -376 q 27 -338 17 -351 q 55 -314 38 -326 q 92 -291 71 -302 q 132 -269 112 -279 q 193 -234 182 -242 q 169 -267 169 -249 q 183 -294 169 -284 q 216 -310 197 -304 q 291 -321 250 -321 q 368 -300 331 -321 q 435 -243 406 -279 q 486 -163 465 -208 q 525 -71 508 -119 q 573 103 544 -16 q 281 -12 396 -12 q 165 102 165 -12 q 173 163 165 132 l 229 403 q 245 504 245 475 q 190 572 245 572 q 139 563 168 572 q 238 630 210 614 q 350 666 302 666 q 406 611 406 666 q 377 465 406 585 q 338 300 348 345 q 321 194 321 228 q 330 139 321 161 q 357 104 340 117 q 454 80 389 80 q 583 144 523 80 l 662 483 q 669 528 669 511 q 633 570 669 570 q 600 563 616 570 q 640 591 616 574 q 689 623 663 608 q 784 661 749 661 m 926 925 q 631 675 792 783 q 528 616 576 637 l 530 624 q 632 696 585 654 q 708 767 679 738 q 750 810 736 795 q 792 848 779 840 q 819 866 805 857 q 848 883 833 874 q 879 900 864 892 q 926 925 899 911 z "},"":{"ha":747,"x_min":45,"x_max":806,"o":"m 409 985 q 456 922 456 985 q 444 840 456 892 l 383 578 q 540 663 490 647 q 621 678 590 678 q 759 630 711 678 q 806 505 806 583 q 785 364 806 427 q 728 245 764 301 q 641 141 691 189 q 533 59 591 94 q 285 -14 410 -14 q 246 -11 262 -14 l 186 -267 q 184 -286 184 -275 q 233 -321 184 -321 q 277 -310 247 -321 q 164 -404 235 -376 q 116 -412 140 -412 q 45 -336 45 -412 q 52 -279 45 -311 l 297 774 q 307 838 307 817 q 259 895 307 895 q 189 878 229 895 q 336 969 291 953 q 409 985 380 985 m 632 251 q 637 269 632 251 q 646 322 642 286 q 650 396 650 359 q 641 470 650 434 q 609 532 631 506 q 476 586 564 586 q 370 524 418 586 l 290 175 q 393 82 315 102 q 450 76 417 76 q 514 90 483 76 q 568 129 545 104 q 607 184 591 153 q 632 251 623 216 z "},"":{"ha":781,"x_min":17,"x_max":865,"o":"m 784 661 q 825 623 825 661 q 823 605 825 614 l 729 205 q 521 -206 674 -27 q 274 -385 412 -333 q 125 -412 203 -412 q 30 -387 64 -412 q 17 -363 17 -376 q 27 -338 17 -351 q 55 -314 38 -326 q 92 -291 71 -302 q 132 -269 112 -279 q 193 -234 182 -242 q 169 -267 169 -249 q 183 -294 169 -284 q 216 -310 197 -304 q 291 -321 250 -321 q 368 -300 331 -321 q 435 -243 406 -279 q 486 -163 465 -208 q 525 -71 508 -119 q 573 103 544 -16 q 281 -12 396 -12 q 165 102 165 -12 q 173 163 165 132 l 229 403 q 245 504 245 475 q 190 572 245 572 q 139 563 168 572 q 238 630 210 614 q 350 666 302 666 q 406 611 406 666 q 377 465 406 585 q 338 300 348 345 q 321 194 321 228 q 330 139 321 161 q 357 104 340 117 q 454 80 389 80 q 583 144 523 80 l 662 483 q 669 528 669 511 q 633 570 669 570 q 600 563 616 570 q 640 591 616 574 q 689 623 663 608 q 784 661 749 661 m 865 826 l 711 733 l 631 829 l 784 922 l 865 826 m 555 826 l 402 733 l 321 829 l 475 922 l 555 826 z "},"":{"ha":958,"x_min":-11,"x_max":1083,"o":"m 143 92 q 186 92 151 92 q 247 94 222 92 q 298 100 272 96 q 390 129 356 110 q 230 33 270 48 q 160 11 189 17 q 15 0 102 0 l -11 0 l -9 3 q 36 42 14 22 q 96 99 58 61 q 182 198 134 138 q 275 323 231 259 q 362 451 319 387 q 448 582 404 516 q 538 714 492 648 q 608 820 584 781 q 636 868 631 859 q 648 884 641 876 l 596 884 q 393 855 469 884 q 585 960 509 940 q 693 975 635 974 q 801 976 751 976 q 828 581 815 777 q 852 276 841 385 q 864 149 863 168 q 871 116 865 131 q 926 83 883 83 q 1023 113 970 83 q 970 78 1002 99 q 903 37 938 56 q 773 -12 817 -12 q 716 34 726 -12 q 696 206 701 99 q 684 397 691 313 q 385 359 614 354 q 143 92 276 210 m 593 451 q 680 454 636 451 q 656 757 667 611 q 450 452 559 609 q 460 454 458 454 l 593 451 m 1083 1120 q 1029 1086 1073 1118 q 964 1041 986 1055 q 930 1027 943 1027 l 440 1027 q 490 1058 452 1029 q 544 1097 529 1086 q 593 1120 578 1120 l 1083 1120 z "},"":{"ha":756,"x_min":106,"x_max":939,"o":"m 290 -14 q 106 168 106 -14 q 180 412 106 292 q 365 598 250 526 q 608 673 483 673 q 708 656 663 673 q 777 633 754 640 l 673 188 q 665 135 665 153 q 730 81 665 81 q 771 85 751 81 q 727 54 750 71 q 680 23 704 37 q 576 -11 621 -11 q 514 14 527 -11 q 509 38 509 24 q 517 90 509 60 q 466 55 492 73 q 410 22 439 37 q 290 -14 344 -14 m 254 235 q 414 78 254 78 q 471 94 440 78 q 532 147 525 122 l 610 483 q 557 558 591 534 q 477 582 523 582 q 401 565 431 582 q 348 519 372 547 q 307 454 324 490 q 277 379 289 418 q 254 235 254 302 m 939 813 q 886 780 929 811 q 821 734 842 748 q 786 720 799 720 l 296 720 q 347 751 308 723 q 400 790 385 780 q 450 813 434 813 l 939 813 z "},"":{"ha":958,"x_min":-11,"x_max":1075,"o":"m 143 92 q 186 92 151 92 q 247 94 222 92 q 298 100 272 96 q 390 129 356 110 q 230 33 270 48 q 160 11 189 17 q 15 0 102 0 l -11 0 l -9 3 q 36 42 14 22 q 96 99 58 61 q 182 198 134 138 q 275 323 231 259 q 362 451 319 387 q 448 582 404 516 q 538 714 492 648 q 608 820 584 781 q 636 868 631 859 q 648 884 641 876 l 596 884 q 393 855 469 884 q 585 960 509 940 q 693 975 635 974 q 801 976 751 976 q 828 581 815 777 q 852 276 841 385 q 864 149 863 168 q 871 116 865 131 q 926 83 883 83 q 1023 113 970 83 q 970 78 1002 99 q 903 37 938 56 q 773 -12 817 -12 q 716 34 726 -12 q 696 206 701 99 q 684 397 691 313 q 385 359 614 354 q 143 92 276 210 m 593 451 q 680 454 636 451 q 656 757 667 611 q 450 452 559 609 q 460 454 458 454 l 593 451 m 1075 1285 q 992 1165 1061 1227 q 770 1038 892 1074 q 703 1027 734 1027 q 647 1037 673 1027 q 601 1063 621 1046 q 536 1175 559 1099 q 533 1192 533 1185 q 543 1206 533 1198 q 569 1222 553 1213 q 603 1240 585 1231 q 639 1257 622 1249 q 686 1285 677 1276 q 724 1184 697 1220 q 776 1133 751 1149 q 826 1118 802 1118 q 863 1125 850 1118 q 887 1143 876 1133 q 915 1182 901 1158 q 949 1218 929 1206 q 994 1241 970 1230 q 1075 1285 1062 1272 z "},"":{"ha":756,"x_min":106,"x_max":888,"o":"m 290 -14 q 106 168 106 -14 q 180 412 106 292 q 365 598 250 526 q 608 673 483 673 q 708 656 663 673 q 777 633 754 640 l 673 188 q 665 135 665 153 q 730 81 665 81 q 771 85 751 81 q 727 54 750 71 q 680 23 704 37 q 576 -11 621 -11 q 514 14 527 -11 q 509 38 509 24 q 517 90 509 60 q 466 55 492 73 q 410 22 439 37 q 290 -14 344 -14 m 254 235 q 414 78 254 78 q 471 94 440 78 q 532 147 525 122 l 610 483 q 557 558 591 534 q 477 582 523 582 q 401 565 431 582 q 348 519 372 547 q 307 454 324 490 q 277 379 289 418 q 254 235 254 302 m 888 984 q 806 864 874 926 q 584 737 706 773 q 517 726 547 726 q 460 736 486 726 q 414 762 435 745 q 349 873 373 798 q 347 890 347 884 q 357 905 347 897 q 382 921 367 912 q 417 939 398 930 q 452 956 435 948 q 500 984 490 975 q 537 883 511 919 q 590 832 564 848 q 639 817 615 817 q 676 824 663 817 q 701 842 690 831 q 729 881 715 857 q 763 917 743 905 q 808 940 783 928 q 888 984 876 971 z "},"":{"ha":958,"x_min":-11,"x_max":1023,"o":"m 143 92 q 186 92 151 92 q 247 94 222 92 q 298 100 272 96 q 390 129 356 110 q 230 33 270 48 q 160 11 189 17 q 15 0 102 0 l -11 0 l -9 3 q 36 42 14 22 q 96 99 58 61 q 182 198 134 138 q 275 323 231 259 q 362 451 319 387 q 448 582 404 516 q 538 714 492 648 q 608 820 584 781 q 636 868 631 859 q 648 884 641 876 l 596 884 q 393 855 469 884 q 585 960 509 940 q 693 975 635 974 q 801 976 751 976 q 828 581 815 777 q 852 276 841 385 q 864 149 863 168 q 871 116 865 131 q 926 83 883 83 q 1023 113 970 83 q 976 82 1004 100 q 916 45 947 63 q 794 -10 839 -1 q 765 -82 765 -51 q 772 -130 765 -113 q 792 -161 780 -148 q 861 -189 819 -189 q 966 -151 895 -189 q 998 -134 983 -141 l 998 -135 q 877 -213 989 -151 q 843 -232 858 -224 q 811 -250 828 -241 q 717 -282 750 -282 q 668 -275 684 -282 q 640 -254 652 -267 q 615 -186 615 -227 q 736 -2 615 -92 q 718 25 722 7 q 706 95 713 43 q 695 230 699 147 q 684 397 691 313 q 385 359 614 354 q 143 92 276 210 m 593 451 q 680 454 636 451 q 656 757 667 611 q 450 452 559 609 q 460 454 458 454 l 593 451 z "},"":{"ha":756,"x_min":106,"x_max":777,"o":"m 665 135 q 730 81 665 81 q 771 85 751 81 q 733 59 753 73 q 693 31 713 45 q 606 -7 645 1 q 544 -130 544 -71 q 571 -198 544 -170 q 640 -227 598 -227 q 745 -188 674 -227 q 777 -172 762 -178 l 777 -172 q 656 -251 768 -188 q 622 -270 637 -261 q 591 -287 608 -278 q 496 -319 528 -319 q 447 -312 463 -319 q 419 -292 431 -304 q 394 -228 394 -264 q 408 -162 394 -192 q 445 -104 422 -132 q 558 -10 488 -53 q 509 39 509 -5 q 517 90 509 60 q 466 55 492 73 q 410 22 439 37 q 290 -14 344 -14 q 106 168 106 -14 q 180 412 106 292 q 365 598 250 526 q 608 673 483 673 q 708 656 663 673 q 777 633 754 640 l 673 188 q 665 135 665 153 m 254 235 q 414 78 254 78 q 471 94 440 78 q 532 147 525 122 l 610 483 q 557 558 591 534 q 477 582 523 582 q 401 565 431 582 q 348 519 372 547 q 307 454 324 490 q 277 379 289 418 q 254 235 254 302 z "},"":{"ha":937,"x_min":149,"x_max":1152,"o":"m 1080 990 q 1104 984 1080 990 q 1140 971 1128 978 q 1152 960 1152 965 q 1139 945 1152 954 q 1108 923 1127 935 q 1066 896 1089 910 q 1023 870 1044 882 q 962 838 972 841 q 970 843 964 840 q 981 852 975 847 q 996 868 996 863 q 966 885 996 873 q 795 909 904 909 q 593 871 686 909 q 437 764 501 832 q 304 398 304 623 q 382 160 304 250 q 612 66 465 66 q 928 143 732 66 q 575 -16 778 26 q 444 -29 511 -29 q 320 -5 377 -29 q 226 61 264 18 q 149 293 149 147 q 278 654 149 483 q 589 907 397 810 q 964 1002 778 1002 q 1080 990 1032 1002 m 1054 1299 q 758 1049 920 1157 q 655 990 703 1012 l 657 998 q 759 1070 712 1029 q 835 1141 806 1112 q 878 1184 864 1170 q 919 1223 906 1214 q 946 1240 932 1232 q 976 1257 960 1249 q 1006 1274 991 1266 q 1054 1299 1027 1286 z "},"":{"ha":635,"x_min":104,"x_max":839,"o":"m 611 525 q 623 536 616 528 q 629 549 629 545 q 621 559 629 553 q 599 570 612 565 q 570 579 586 575 q 538 587 554 584 q 479 593 505 593 q 420 579 453 593 q 361 542 387 566 q 316 488 336 519 q 285 422 297 456 q 260 291 260 353 q 275 191 260 229 q 319 130 291 154 q 475 81 374 81 q 639 122 556 81 q 397 0 535 32 q 309 -11 353 -11 q 226 2 264 -11 q 161 41 188 16 q 104 189 104 94 q 194 424 104 304 q 405 608 278 536 q 646 683 535 683 q 769 653 721 683 q 781 640 781 647 q 770 622 781 632 q 743 598 760 611 q 706 573 726 586 q 667 549 686 560 q 611 525 625 526 m 839 993 q 543 743 705 850 q 440 684 488 705 l 442 692 q 544 764 497 722 q 620 834 591 806 q 663 878 649 863 q 704 916 691 907 q 731 933 718 925 q 761 951 745 942 q 791 968 777 960 q 839 993 812 979 z "},"":{"ha":937,"x_min":149,"x_max":1152,"o":"m 1080 990 q 1104 984 1080 990 q 1140 971 1128 978 q 1152 960 1152 965 q 1139 945 1152 954 q 1108 923 1127 935 q 1066 896 1089 910 q 1023 870 1044 882 q 962 838 972 841 q 970 843 964 840 q 981 852 975 847 q 996 868 996 863 q 966 885 996 873 q 795 909 904 909 q 593 871 686 909 q 437 764 501 832 q 304 398 304 623 q 382 160 304 250 q 612 66 465 66 q 928 143 732 66 q 575 -16 778 26 q 444 -29 511 -29 q 320 -5 377 -29 q 226 61 264 18 q 149 293 149 147 q 278 654 149 483 q 589 907 397 810 q 964 1002 778 1002 q 1080 990 1032 1002 m 910 1040 q 808 1184 903 1040 l 739 1131 q 718 1118 730 1123 q 688 1103 707 1113 q 591 1044 623 1068 l 798 1204 q 931 1289 846 1245 q 944 1295 943 1295 q 948 1293 946 1295 q 951 1288 949 1291 q 970 1262 958 1280 q 1061 1133 988 1238 q 910 1040 921 1040 z "},"":{"ha":635,"x_min":104,"x_max":801,"o":"m 611 525 q 623 536 616 528 q 629 549 629 545 q 621 559 629 553 q 599 570 612 565 q 570 579 586 575 q 538 587 554 584 q 479 593 505 593 q 420 579 453 593 q 361 542 387 566 q 316 488 336 519 q 285 422 297 456 q 260 291 260 353 q 275 191 260 229 q 319 130 291 154 q 475 81 374 81 q 639 122 556 81 q 397 0 535 32 q 309 -11 353 -11 q 226 2 264 -11 q 161 41 188 16 q 104 189 104 94 q 194 424 104 304 q 405 608 278 536 q 646 683 535 683 q 769 653 721 683 q 781 640 781 647 q 770 622 781 632 q 743 598 760 611 q 706 573 726 586 q 667 549 686 560 q 611 525 625 526 m 650 722 q 548 866 644 722 l 479 812 q 458 800 470 805 q 428 785 447 795 q 331 726 363 750 l 538 886 q 671 971 587 927 q 685 977 683 977 q 688 975 686 977 q 692 970 690 972 q 711 944 698 962 q 801 815 728 920 q 650 722 661 722 z "},"":{"ha":937,"x_min":149,"x_max":1152,"o":"m 1080 990 q 1104 984 1080 990 q 1140 971 1128 978 q 1152 960 1152 965 q 1139 945 1152 954 q 1108 923 1127 935 q 1066 896 1089 910 q 1023 870 1044 882 q 962 838 972 841 q 970 843 964 840 q 981 852 975 847 q 996 868 996 863 q 966 885 996 873 q 795 909 904 909 q 593 871 686 909 q 437 764 501 832 q 304 398 304 623 q 382 160 304 250 q 612 66 465 66 q 928 143 732 66 q 575 -16 778 26 q 444 -29 511 -29 q 320 -5 377 -29 q 226 61 264 18 q 149 293 149 147 q 278 654 149 483 q 589 907 397 810 q 964 1002 778 1002 q 1080 990 1032 1002 m 937 1150 l 783 1057 l 703 1154 l 856 1246 l 937 1150 z "},"":{"ha":635,"x_min":104,"x_max":781,"o":"m 611 525 q 623 536 616 528 q 629 549 629 545 q 621 559 629 553 q 599 570 612 565 q 570 579 586 575 q 538 587 554 584 q 479 593 505 593 q 420 579 453 593 q 361 542 387 566 q 316 488 336 519 q 285 422 297 456 q 260 291 260 353 q 275 191 260 229 q 319 130 291 154 q 475 81 374 81 q 639 122 556 81 q 397 0 535 32 q 309 -11 353 -11 q 226 2 264 -11 q 161 41 188 16 q 104 189 104 94 q 194 424 104 304 q 405 608 278 536 q 646 683 535 683 q 769 653 721 683 q 781 640 781 647 q 770 622 781 632 q 743 598 760 611 q 706 573 726 586 q 667 549 686 560 q 611 525 625 526 m 658 814 l 505 722 l 424 818 l 577 910 l 658 814 z "},"":{"ha":937,"x_min":149,"x_max":1152,"o":"m 1080 990 q 1104 984 1080 990 q 1140 971 1128 978 q 1152 960 1152 965 q 1139 945 1152 954 q 1108 923 1127 935 q 1066 896 1089 910 q 1023 870 1044 882 q 962 838 972 841 q 970 843 964 840 q 981 852 975 847 q 996 868 996 863 q 966 885 996 873 q 795 909 904 909 q 593 871 686 909 q 437 764 501 832 q 304 398 304 623 q 382 160 304 250 q 612 66 465 66 q 928 143 732 66 q 575 -16 778 26 q 444 -29 511 -29 q 320 -5 377 -29 q 226 61 264 18 q 149 293 149 147 q 278 654 149 483 q 589 907 397 810 q 964 1002 778 1002 q 1080 990 1032 1002 m 752 1282 q 854 1139 759 1282 l 923 1192 q 944 1205 932 1200 q 975 1220 956 1211 q 1072 1280 1036 1253 l 865 1118 q 822 1089 839 1100 q 789 1068 806 1079 q 757 1048 772 1057 q 719 1028 722 1028 q 710 1035 715 1028 q 691 1060 705 1042 q 652 1116 677 1079 q 602 1190 627 1153 q 752 1282 741 1282 z "},"":{"ha":635,"x_min":104,"x_max":809,"o":"m 611 525 q 623 536 616 528 q 629 549 629 545 q 621 559 629 553 q 599 570 612 565 q 570 579 586 575 q 538 587 554 584 q 479 593 505 593 q 420 579 453 593 q 361 542 387 566 q 316 488 336 519 q 285 422 297 456 q 260 291 260 353 q 275 191 260 229 q 319 130 291 154 q 475 81 374 81 q 639 122 556 81 q 397 0 535 32 q 309 -11 353 -11 q 226 2 264 -11 q 161 41 188 16 q 104 189 104 94 q 194 424 104 304 q 405 608 278 536 q 646 683 535 683 q 769 653 721 683 q 781 640 781 647 q 770 622 781 632 q 743 598 760 611 q 706 573 726 586 q 667 549 686 560 q 611 525 625 526 m 490 950 q 592 806 496 950 l 661 860 q 682 873 670 867 q 712 888 693 878 q 809 947 774 920 l 602 786 q 560 757 576 768 q 526 736 543 747 q 494 716 509 725 q 456 696 460 696 q 448 703 452 696 q 429 728 443 709 q 390 784 415 747 q 339 857 365 821 q 490 950 478 950 z "},"":{"ha":1059,"x_min":131,"x_max":1141,"o":"m 349 0 l 131 0 q 214 140 188 47 q 227 193 221 166 l 389 884 l 239 884 q 275 904 254 889 q 319 936 296 920 q 393 976 374 976 l 694 977 q 997 907 877 977 q 1141 648 1141 823 q 1015 303 1141 458 q 713 79 900 161 q 349 0 534 0 m 870 222 q 960 376 930 286 q 991 555 991 466 q 971 693 991 644 q 917 777 951 743 q 837 832 882 811 q 739 865 791 853 q 520 884 652 884 l 368 230 q 345 158 355 178 q 292 90 327 126 l 517 90 q 870 222 745 90 m 736 1297 q 839 1154 743 1297 l 907 1207 q 928 1220 917 1215 q 959 1235 940 1225 q 1056 1295 1021 1267 l 849 1133 q 807 1104 823 1115 q 773 1083 790 1094 q 741 1063 756 1072 q 703 1043 707 1043 q 694 1050 699 1043 q 676 1075 690 1057 q 637 1131 662 1094 q 586 1204 612 1168 q 736 1297 725 1297 z "},"":{"ha":951,"x_min":106,"x_max":1139,"o":"m 745 947 q 701 998 745 998 q 671 994 686 998 q 641 987 656 991 q 783 1078 712 1033 q 930 1158 854 1122 l 705 188 q 697 135 697 159 q 762 81 697 81 q 803 85 783 81 q 759 54 782 71 q 711 23 736 37 q 607 -11 652 -11 q 547 14 559 -11 q 541 38 541 24 q 549 90 541 60 q 384 1 434 16 q 302 -14 333 -14 q 157 35 208 -14 q 106 179 106 84 q 189 422 106 303 q 391 602 267 531 q 640 673 516 673 q 685 668 665 673 l 736 890 q 745 947 745 926 m 642 483 q 479 582 605 582 q 309 475 368 582 q 258 281 258 385 q 446 78 258 78 q 503 94 472 78 q 564 147 557 122 l 642 483 m 1107 1142 q 1139 1047 1137 1069 l 1139 1044 q 1046 877 1139 952 q 1017 860 1033 866 q 987 842 1000 853 q 1063 935 1040 884 q 1071 973 1071 954 q 1055 993 1071 993 q 1020 978 1047 993 l 984 1069 l 1107 1142 z "},"":{"ha":1060,"x_min":132,"x_max":1141,"o":"m 350 0 l 132 0 q 189 73 172 33 q 228 193 213 126 l 281 420 l 132 420 q 191 456 151 426 q 251 499 231 487 q 286 512 271 512 l 302 512 l 389 884 l 240 884 q 299 921 258 890 q 360 963 340 951 q 393 976 380 976 l 694 977 q 997 907 878 977 q 1141 648 1141 823 q 1016 303 1141 458 q 715 79 901 161 q 350 0 534 0 m 871 222 q 961 376 930 286 q 991 555 991 466 q 971 693 991 644 q 917 777 951 743 q 837 832 883 811 q 739 864 791 852 q 521 884 650 884 l 434 512 l 639 512 q 580 476 621 507 q 520 433 540 446 q 486 420 500 420 l 413 420 l 368 230 q 345 159 357 178 q 293 90 328 128 l 518 90 q 871 222 746 90 z "},"":{"ha":795,"x_min":106,"x_max":1036,"o":"m 745 947 q 701 998 745 998 q 671 994 686 998 q 641 987 656 991 q 783 1078 712 1033 q 930 1158 854 1122 l 862 865 l 1036 865 q 986 835 1025 863 q 932 796 947 806 q 883 773 898 773 l 841 773 l 705 188 q 697 135 697 159 q 762 81 697 81 q 803 85 783 81 q 759 54 782 71 q 711 23 736 37 q 607 -11 652 -11 q 547 14 559 -11 q 541 38 541 24 q 549 90 541 60 q 384 1 434 16 q 302 -14 333 -14 q 157 35 208 -14 q 106 179 106 84 q 189 422 106 303 q 391 602 267 531 q 640 673 516 673 q 685 668 665 673 l 709 773 l 543 773 q 592 803 553 774 q 646 842 631 832 q 696 865 680 865 l 730 865 l 736 890 q 745 947 745 926 m 642 483 q 479 582 605 582 q 309 475 368 582 q 258 281 258 385 q 446 78 258 78 q 503 94 472 78 q 564 147 557 122 l 642 483 z "},"":{"ha":774,"x_min":118,"x_max":983,"o":"m 258 884 q 411 976 396 976 l 971 976 q 919 945 956 973 q 867 906 882 916 q 818 884 832 884 l 516 884 l 439 555 l 769 555 q 717 524 754 552 q 665 486 680 495 q 616 463 630 463 l 418 463 l 367 241 q 315 117 351 167 q 286 92 302 99 l 663 92 q 794 127 703 92 q 624 26 747 85 q 550 0 568 0 l 118 0 q 201 119 169 51 q 223 190 212 142 q 251 312 234 238 q 286 463 269 387 l 191 463 q 248 500 220 481 q 304 536 275 519 l 385 884 l 258 884 m 983 1133 q 929 1100 972 1131 q 864 1054 886 1068 q 829 1040 842 1040 l 340 1040 q 390 1072 351 1043 q 444 1110 429 1100 q 493 1133 477 1133 l 983 1133 z "},"":{"ha":589,"x_min":104,"x_max":819,"o":"m 643 589 q 256 253 643 446 q 434 82 262 82 q 595 125 512 82 q 354 1 499 33 q 266 -9 309 -9 q 192 6 222 -9 q 141 47 161 21 q 104 166 104 97 q 124 291 104 235 q 180 400 145 347 q 261 502 215 454 q 359 586 307 550 q 569 665 473 665 q 623 643 604 665 q 643 589 643 622 m 473 453 q 481 466 473 453 q 490 502 490 479 q 472 547 490 524 q 424 570 455 570 q 371 554 393 570 q 331 515 349 539 q 300 459 313 490 q 277 397 286 429 q 256 286 260 337 q 408 380 323 303 q 473 453 457 426 m 819 825 q 766 791 809 823 q 701 746 722 760 q 666 732 679 732 l 176 732 q 227 763 188 734 q 280 802 265 791 q 330 825 314 825 l 819 825 z "},"":{"ha":774,"x_min":118,"x_max":980,"o":"m 258 884 q 411 976 396 976 l 971 976 q 919 945 956 973 q 867 906 882 916 q 818 884 832 884 l 516 884 l 439 555 l 769 555 q 717 524 754 552 q 665 486 680 495 q 616 463 630 463 l 418 463 l 367 241 q 315 117 351 167 q 286 92 302 99 l 663 92 q 794 127 703 92 q 624 26 747 85 q 550 0 568 0 l 118 0 q 201 119 169 51 q 223 190 212 142 q 251 312 234 238 q 286 463 269 387 l 191 463 q 248 500 220 481 q 304 536 275 519 l 385 884 l 258 884 m 980 1294 q 897 1174 966 1236 q 675 1047 798 1083 q 608 1036 639 1036 q 552 1046 578 1036 q 506 1072 526 1055 q 441 1183 465 1107 q 438 1200 438 1194 q 448 1215 438 1207 q 474 1231 458 1222 q 508 1249 490 1240 q 544 1266 527 1258 q 591 1294 582 1284 q 629 1193 602 1229 q 681 1142 656 1158 q 731 1126 707 1126 q 768 1134 755 1126 q 792 1152 781 1141 q 820 1191 806 1167 q 854 1226 834 1215 q 899 1250 875 1238 q 980 1294 967 1281 z "},"":{"ha":589,"x_min":104,"x_max":766,"o":"m 643 589 q 256 253 643 446 q 434 82 262 82 q 595 125 512 82 q 354 1 499 33 q 266 -9 309 -9 q 192 6 222 -9 q 141 47 161 21 q 104 166 104 97 q 124 291 104 235 q 180 400 145 347 q 261 502 215 454 q 359 586 307 550 q 569 665 473 665 q 623 643 604 665 q 643 589 643 622 m 473 453 q 481 466 473 453 q 490 502 490 479 q 472 547 490 524 q 424 570 455 570 q 371 554 393 570 q 331 515 349 539 q 300 459 313 490 q 277 397 286 429 q 256 286 260 337 q 408 380 323 303 q 473 453 457 426 m 766 956 q 683 836 751 898 q 461 709 583 745 q 394 698 425 698 q 338 707 363 698 q 292 734 312 717 q 227 845 250 769 q 224 862 224 855 q 234 876 224 869 q 260 892 244 884 q 294 910 275 901 q 330 928 313 920 q 377 956 368 946 q 415 855 388 890 q 467 804 441 819 q 516 788 492 788 q 554 795 541 788 q 578 814 567 803 q 606 852 592 829 q 640 888 620 876 q 685 911 661 900 q 766 956 753 943 z "},"":{"ha":774,"x_min":118,"x_max":971,"o":"m 258 884 q 411 976 396 976 l 971 976 q 919 945 956 973 q 867 906 882 916 q 818 884 832 884 l 516 884 l 439 555 l 769 555 q 717 524 754 552 q 665 486 680 495 q 616 463 630 463 l 418 463 l 367 241 q 315 117 351 167 q 286 92 302 99 l 663 92 q 794 127 703 92 q 624 26 747 85 q 550 0 568 0 l 118 0 q 201 119 169 51 q 223 190 212 142 q 251 312 234 238 q 286 463 269 387 l 191 463 q 248 500 220 481 q 304 536 275 519 l 385 884 l 258 884 m 787 1121 l 633 1028 l 553 1124 l 706 1217 l 787 1121 z "},"":{"ha":589,"x_min":104,"x_max":643,"o":"m 643 589 q 256 253 643 446 q 434 82 262 82 q 595 125 512 82 q 354 1 499 33 q 266 -9 309 -9 q 192 6 222 -9 q 141 47 161 21 q 104 166 104 97 q 124 291 104 235 q 180 400 145 347 q 261 502 215 454 q 359 586 307 550 q 569 665 473 665 q 623 643 604 665 q 643 589 643 622 m 473 453 q 481 466 473 453 q 490 502 490 479 q 472 547 490 524 q 424 570 455 570 q 371 554 393 570 q 331 515 349 539 q 300 459 313 490 q 277 397 286 429 q 256 286 260 337 q 408 380 323 303 q 473 453 457 426 m 589 806 l 435 713 l 355 809 l 508 901 l 589 806 z "},"":{"ha":774,"x_min":118,"x_max":971,"o":"m 530 0 q 462 -130 462 -68 q 490 -198 462 -170 q 557 -227 516 -227 q 662 -188 592 -227 q 694 -172 680 -178 l 694 -172 q 574 -251 686 -188 q 540 -270 555 -261 q 509 -287 525 -278 q 414 -319 447 -319 q 365 -312 381 -319 q 336 -292 349 -304 q 312 -227 312 -264 q 328 -158 312 -190 q 370 -96 344 -125 q 493 0 417 -43 l 118 0 q 201 119 169 51 q 223 190 212 142 q 251 312 234 238 q 286 463 269 387 l 191 463 q 248 500 220 481 q 304 536 275 519 l 385 884 l 258 884 q 411 976 396 976 l 971 976 q 919 945 956 973 q 867 906 882 916 q 818 884 832 884 l 516 884 l 439 555 l 769 555 q 717 524 754 552 q 665 486 680 495 q 616 463 630 463 l 418 463 l 367 241 q 315 117 351 167 q 286 92 302 99 l 663 92 q 794 127 703 92 q 624 26 747 85 q 550 0 568 0 l 530 0 z "},"":{"ha":589,"x_min":104,"x_max":643,"o":"m 256 253 q 434 82 262 82 q 595 125 512 82 q 410 17 522 56 q 340 -2 375 5 q 273 -130 273 -71 q 301 -198 273 -170 q 369 -227 328 -227 q 473 -188 404 -227 q 506 -172 491 -178 l 506 -172 q 385 -251 498 -188 q 352 -270 366 -261 q 320 -287 337 -278 q 225 -319 258 -319 q 176 -312 193 -319 q 148 -292 160 -304 q 123 -228 123 -264 q 138 -161 123 -192 q 175 -103 152 -131 q 290 -9 220 -52 q 278 -9 284 -9 l 267 -9 q 141 47 184 -9 q 104 166 104 97 q 124 291 104 235 q 180 400 145 347 q 261 502 215 454 q 359 586 307 550 q 569 665 473 665 q 623 643 604 665 q 643 589 643 622 q 256 253 643 446 m 473 453 q 481 466 473 453 q 490 502 490 479 q 472 547 490 524 q 424 570 455 570 q 371 554 393 570 q 331 515 349 539 q 300 459 313 490 q 277 397 286 429 q 256 286 260 337 q 408 380 323 303 q 473 453 457 426 z "},"":{"ha":774,"x_min":118,"x_max":971,"o":"m 258 884 q 411 976 396 976 l 971 976 q 919 945 956 973 q 867 906 882 916 q 818 884 832 884 l 516 884 l 439 555 l 769 555 q 717 524 754 552 q 665 486 680 495 q 616 463 630 463 l 418 463 l 367 241 q 315 117 351 167 q 286 92 302 99 l 663 92 q 794 127 703 92 q 624 26 747 85 q 550 0 568 0 l 118 0 q 201 119 169 51 q 223 190 212 142 q 251 312 234 238 q 286 463 269 387 l 191 463 q 248 500 220 481 q 304 536 275 519 l 385 884 l 258 884 m 645 1272 q 747 1128 652 1272 l 816 1181 q 837 1194 825 1189 q 867 1209 848 1200 q 964 1269 929 1242 l 758 1107 q 715 1079 732 1089 q 682 1057 699 1068 q 650 1038 665 1046 q 611 1017 615 1017 q 603 1024 608 1017 q 584 1049 598 1031 q 545 1105 570 1068 q 494 1179 520 1142 q 645 1272 633 1272 z "},"":{"ha":589,"x_min":104,"x_max":724,"o":"m 643 589 q 256 253 643 446 q 434 82 262 82 q 595 125 512 82 q 354 1 499 33 q 266 -9 309 -9 q 192 6 222 -9 q 141 47 161 21 q 104 166 104 97 q 124 291 104 235 q 180 400 145 347 q 261 502 215 454 q 359 586 307 550 q 569 665 473 665 q 623 643 604 665 q 643 589 643 622 m 473 453 q 481 466 473 453 q 490 502 490 479 q 472 547 490 524 q 424 570 455 570 q 371 554 393 570 q 331 515 349 539 q 300 459 313 490 q 277 397 286 429 q 256 286 260 337 q 408 380 323 303 q 473 453 457 426 m 404 913 q 507 770 411 913 l 575 823 q 596 836 585 831 q 627 851 608 842 q 724 911 688 884 l 517 749 q 474 721 491 731 q 441 699 458 710 q 409 680 424 688 q 371 659 374 659 q 362 666 367 659 q 343 691 357 673 q 304 747 330 710 q 254 821 279 784 q 404 913 393 913 z "},"":{"ha":1105,"x_min":153,"x_max":1238,"o":"m 1163 981 q 1219 957 1199 969 q 1238 939 1238 945 q 1226 923 1238 932 q 1196 901 1214 913 q 1155 876 1177 889 q 1112 850 1132 863 q 1053 819 1068 825 q 1061 825 1055 821 q 1072 834 1067 829 q 1085 856 1085 845 q 1066 877 1085 866 q 1019 896 1048 888 q 955 909 990 903 q 886 918 920 914 q 767 924 825 924 q 643 904 708 924 q 526 850 578 885 q 432 767 473 816 q 363 661 391 719 q 307 399 307 542 q 396 157 307 247 q 638 68 486 68 q 848 99 754 68 q 905 127 882 110 l 975 422 l 780 422 q 798 434 786 426 q 826 453 810 443 q 858 475 841 464 q 890 494 875 486 q 933 515 924 515 l 1210 515 q 1151 480 1180 503 q 1111 450 1122 458 l 1057 215 q 803 47 959 119 q 510 -26 643 -26 q 252 57 347 -26 q 153 304 153 144 q 275 662 153 492 q 574 918 389 820 q 943 1015 758 1015 q 1163 981 1055 1015 m 908 1057 q 806 1201 901 1057 l 737 1147 q 716 1135 728 1140 q 686 1120 705 1130 q 589 1061 621 1085 l 795 1221 q 929 1306 844 1262 q 942 1312 941 1312 q 946 1310 944 1312 q 949 1305 947 1308 q 968 1279 956 1297 q 1059 1150 986 1255 q 908 1057 919 1057 z "},"":{"ha":665,"x_min":-73,"x_max":858,"o":"m 599 664 l 795 659 q 858 673 829 659 q 762 600 848 641 q 711 581 731 585 q 718 516 718 557 q 701 432 718 475 q 655 355 684 390 q 591 293 627 321 q 517 241 555 264 q 443 198 479 218 q 378 160 407 178 q 316 92 316 120 q 358 34 316 56 q 417 7 381 22 q 483 -20 452 -7 q 544 -49 513 -33 q 598 -84 574 -65 q 653 -170 653 -125 q 450 -343 653 -265 q 209 -408 327 -391 q 155 -412 174 -412 q 114 -411 136 -412 q 67 -405 92 -409 q 18 -394 43 -401 q -27 -376 -7 -387 q -73 -319 -73 -352 q -56 -260 -73 -287 q -14 -211 -40 -234 q 45 -168 12 -188 q 112 -132 79 -149 q 175 -100 145 -115 q 227 -73 205 -85 q 170 -28 186 -57 q 163 -4 163 -18 q 173 24 163 9 q 198 53 182 39 q 232 81 213 67 q 270 106 251 94 q 306 127 289 117 q 334 144 323 137 q 271 135 302 135 q 213 147 239 135 q 168 180 186 159 q 133 282 133 222 q 155 391 133 343 q 212 480 176 439 q 296 555 248 522 q 395 613 343 589 q 599 664 504 664 m 565 437 q 565 471 565 437 q 531 538 565 505 q 442 571 497 571 q 357 554 387 571 q 312 510 328 538 q 285 382 285 463 q 429 226 285 226 q 533 304 494 226 q 565 437 565 369 m 336 -319 q 503 -233 503 -319 q 290 -98 503 -166 q 253 -84 267 -90 q 83 -229 83 -152 q 252 -307 83 -267 q 336 -319 310 -319 m 588 730 q 486 874 581 730 l 417 821 q 396 808 408 813 q 366 793 385 803 q 269 734 301 758 l 475 895 q 609 979 524 935 q 622 985 621 985 q 626 983 624 985 q 629 978 627 981 q 648 952 635 970 q 739 823 666 928 q 588 730 599 730 z "},"":{"ha":1105,"x_min":153,"x_max":1238,"o":"m 1163 981 q 1219 957 1199 969 q 1238 939 1238 945 q 1226 923 1238 932 q 1196 901 1214 913 q 1155 876 1177 889 q 1112 850 1132 863 q 1053 819 1068 825 q 1061 825 1055 821 q 1072 834 1067 829 q 1085 856 1085 845 q 1066 877 1085 866 q 1019 896 1048 888 q 955 909 990 903 q 886 918 920 914 q 767 924 825 924 q 643 904 708 924 q 526 850 578 885 q 432 767 473 816 q 363 661 391 719 q 307 399 307 542 q 396 157 307 247 q 638 68 486 68 q 848 99 754 68 q 905 127 882 110 l 975 422 l 780 422 q 798 434 786 426 q 826 453 810 443 q 858 475 841 464 q 890 494 875 486 q 933 515 924 515 l 1210 515 q 1151 480 1180 503 q 1111 450 1122 458 l 1057 215 q 803 47 959 119 q 510 -26 643 -26 q 252 57 347 -26 q 153 304 153 144 q 275 662 153 492 q 574 918 389 820 q 943 1015 758 1015 q 1163 981 1055 1015 m 1077 1302 q 994 1182 1063 1244 q 772 1055 895 1091 q 705 1044 736 1044 q 649 1054 675 1044 q 603 1080 623 1063 q 538 1192 562 1116 q 535 1208 535 1202 q 545 1223 535 1215 q 571 1239 555 1230 q 605 1257 587 1248 q 641 1274 624 1266 q 688 1302 679 1293 q 726 1201 699 1237 q 778 1150 753 1166 q 828 1135 804 1135 q 865 1142 852 1135 q 889 1160 878 1149 q 917 1199 903 1175 q 951 1235 931 1223 q 996 1258 972 1246 q 1077 1302 1064 1289 z "},"":{"ha":665,"x_min":-73,"x_max":858,"o":"m 599 664 l 795 659 q 858 673 829 659 q 762 600 848 641 q 711 581 731 585 q 718 516 718 557 q 701 432 718 475 q 655 355 684 390 q 591 293 627 321 q 517 241 555 264 q 443 198 479 218 q 378 160 407 178 q 316 92 316 120 q 358 34 316 56 q 417 7 381 22 q 483 -20 452 -7 q 544 -49 513 -33 q 598 -84 574 -65 q 653 -170 653 -125 q 450 -343 653 -265 q 209 -408 327 -391 q 155 -412 174 -412 q 114 -411 136 -412 q 67 -405 92 -409 q 18 -394 43 -401 q -27 -376 -7 -387 q -73 -319 -73 -352 q -56 -260 -73 -287 q -14 -211 -40 -234 q 45 -168 12 -188 q 112 -132 79 -149 q 175 -100 145 -115 q 227 -73 205 -85 q 170 -28 186 -57 q 163 -4 163 -18 q 173 24 163 9 q 198 53 182 39 q 232 81 213 67 q 270 106 251 94 q 306 127 289 117 q 334 144 323 137 q 271 135 302 135 q 213 147 239 135 q 168 180 186 159 q 133 282 133 222 q 155 391 133 343 q 212 480 176 439 q 296 555 248 522 q 395 613 343 589 q 599 664 504 664 m 565 437 q 565 471 565 437 q 531 538 565 505 q 442 571 497 571 q 357 554 387 571 q 312 510 328 538 q 285 382 285 463 q 429 226 285 226 q 533 304 494 226 q 565 437 565 369 m 336 -319 q 503 -233 503 -319 q 290 -98 503 -166 q 253 -84 267 -90 q 83 -229 83 -152 q 252 -307 83 -267 q 336 -319 310 -319 m 774 944 q 692 824 760 886 q 470 697 592 733 q 403 686 433 686 q 347 696 372 686 q 300 722 321 705 q 235 833 259 758 q 233 850 233 844 q 243 865 233 857 q 269 881 253 872 q 303 899 284 890 q 338 916 321 908 q 386 944 376 935 q 424 843 397 879 q 476 792 450 808 q 525 777 501 777 q 563 784 549 777 q 587 802 576 791 q 615 841 601 817 q 649 877 629 865 q 694 900 669 888 q 774 944 762 931 z "},"":{"ha":1105,"x_min":153,"x_max":1238,"o":"m 1163 981 q 1219 957 1199 969 q 1238 939 1238 945 q 1226 923 1238 932 q 1196 901 1214 913 q 1155 876 1177 889 q 1112 850 1132 863 q 1053 819 1068 825 q 1061 825 1055 821 q 1072 834 1067 829 q 1085 856 1085 845 q 1066 877 1085 866 q 1019 896 1048 888 q 955 909 990 903 q 886 918 920 914 q 767 924 825 924 q 643 904 708 924 q 526 850 578 885 q 432 767 473 816 q 363 661 391 719 q 307 399 307 542 q 396 157 307 247 q 638 68 486 68 q 848 99 754 68 q 905 127 882 110 l 975 422 l 780 422 q 798 434 786 426 q 826 453 810 443 q 858 475 841 464 q 890 494 875 486 q 933 515 924 515 l 1210 515 q 1151 480 1180 503 q 1111 450 1122 458 l 1057 215 q 803 47 959 119 q 510 -26 643 -26 q 252 57 347 -26 q 153 304 153 144 q 275 662 153 492 q 574 918 389 820 q 943 1015 758 1015 q 1163 981 1055 1015 m 904 1135 l 751 1042 l 670 1139 l 823 1231 l 904 1135 z "},"":{"ha":665,"x_min":-73,"x_max":858,"o":"m 599 664 l 795 659 q 858 673 829 659 q 762 600 848 641 q 711 581 731 585 q 718 516 718 557 q 701 432 718 475 q 655 355 684 390 q 591 293 627 321 q 517 241 555 264 q 443 198 479 218 q 378 160 407 178 q 316 92 316 120 q 358 34 316 56 q 417 7 381 22 q 483 -20 452 -7 q 544 -49 513 -33 q 598 -84 574 -65 q 653 -170 653 -125 q 450 -343 653 -265 q 209 -408 327 -391 q 155 -412 174 -412 q 114 -411 136 -412 q 67 -405 92 -409 q 18 -394 43 -401 q -27 -376 -7 -387 q -73 -319 -73 -352 q -56 -260 -73 -287 q -14 -211 -40 -234 q 45 -168 12 -188 q 112 -132 79 -149 q 175 -100 145 -115 q 227 -73 205 -85 q 170 -28 186 -57 q 163 -4 163 -18 q 173 24 163 9 q 198 53 182 39 q 232 81 213 67 q 270 106 251 94 q 306 127 289 117 q 334 144 323 137 q 271 135 302 135 q 213 147 239 135 q 168 180 186 159 q 133 282 133 222 q 155 391 133 343 q 212 480 176 439 q 296 555 248 522 q 395 613 343 589 q 599 664 504 664 m 565 437 q 565 471 565 437 q 531 538 565 505 q 442 571 497 571 q 357 554 387 571 q 312 510 328 538 q 285 382 285 463 q 429 226 285 226 q 533 304 494 226 q 565 437 565 369 m 336 -319 q 503 -233 503 -319 q 290 -98 503 -166 q 253 -84 267 -90 q 83 -229 83 -152 q 252 -307 83 -267 q 336 -319 310 -319 m 608 798 l 455 705 l 374 801 l 528 893 l 608 798 z "},"":{"ha":1105,"x_min":153,"x_max":1238,"o":"m 1163 981 q 1219 957 1199 969 q 1238 939 1238 945 q 1226 923 1238 932 q 1196 901 1214 913 q 1155 876 1177 889 q 1112 850 1132 863 q 1053 819 1068 825 q 1061 825 1055 821 q 1072 834 1067 829 q 1085 856 1085 845 q 1066 877 1085 866 q 1019 896 1048 888 q 955 909 990 903 q 886 918 920 914 q 767 924 825 924 q 643 904 708 924 q 526 850 578 885 q 432 767 473 816 q 363 661 391 719 q 307 399 307 542 q 396 157 307 247 q 638 68 486 68 q 848 99 754 68 q 905 127 882 110 l 975 422 l 780 422 q 798 434 786 426 q 826 453 810 443 q 858 475 841 464 q 890 494 875 486 q 933 515 924 515 l 1210 515 q 1151 480 1180 503 q 1111 450 1122 458 l 1057 215 q 803 47 959 119 q 510 -26 643 -26 q 252 57 347 -26 q 153 304 153 144 q 275 662 153 492 q 574 918 389 820 q 943 1015 758 1015 q 1163 981 1055 1015 m 597 -92 q 629 -187 628 -165 l 629 -190 q 537 -357 629 -282 q 507 -375 524 -368 q 477 -392 491 -381 q 553 -299 529 -351 q 562 -261 562 -281 q 545 -241 562 -241 q 511 -256 538 -241 l 475 -165 l 597 -92 z "},"":{"ha":665,"x_min":-73,"x_max":858,"o":"m 599 664 l 795 659 q 858 673 829 659 q 762 600 848 641 q 711 581 731 585 q 718 516 718 557 q 701 432 718 475 q 655 355 684 390 q 591 293 627 321 q 517 241 555 264 q 443 198 479 218 q 378 160 407 178 q 316 92 316 120 q 358 34 316 56 q 417 7 381 22 q 483 -20 452 -7 q 544 -49 513 -33 q 598 -84 574 -65 q 653 -170 653 -125 q 450 -343 653 -265 q 209 -408 327 -391 q 155 -412 174 -412 q 114 -411 136 -412 q 67 -405 92 -409 q 18 -394 43 -401 q -27 -376 -7 -387 q -73 -319 -73 -352 q -56 -260 -73 -287 q -14 -211 -40 -234 q 45 -168 12 -188 q 112 -132 79 -149 q 175 -100 145 -115 q 227 -73 205 -85 q 170 -28 186 -57 q 163 -4 163 -18 q 173 24 163 9 q 198 53 182 39 q 232 81 213 67 q 270 106 251 94 q 306 127 289 117 q 334 144 323 137 q 271 135 302 135 q 213 147 239 135 q 168 180 186 159 q 133 282 133 222 q 155 391 133 343 q 212 480 176 439 q 296 555 248 522 q 395 613 343 589 q 599 664 504 664 m 565 437 q 565 471 565 437 q 531 538 565 505 q 442 571 497 571 q 357 554 387 571 q 312 510 328 538 q 285 382 285 463 q 429 226 285 226 q 533 304 494 226 q 565 437 565 369 m 336 -319 q 503 -233 503 -319 q 290 -98 503 -166 q 253 -84 267 -90 q 83 -229 83 -152 q 252 -307 83 -267 q 336 -319 310 -319 m 528 936 q 520 897 520 917 q 536 878 520 878 q 554 884 544 878 q 571 893 564 890 l 607 803 l 484 729 q 452 823 452 806 l 452 827 q 509 960 452 897 q 542 992 526 979 q 574 1011 558 1005 q 604 1029 591 1018 q 528 936 551 985 z "},"":{"ha":1135,"x_min":119,"x_max":1345,"o":"m 896 884 q 1049 976 1034 976 l 1345 976 q 1295 945 1334 974 q 1240 907 1255 917 q 1192 884 1206 884 l 1155 884 l 1010 263 q 983 176 996 199 q 922 92 964 136 l 1139 92 q 1089 62 1128 90 q 1035 23 1050 33 q 986 0 1001 0 l 756 0 q 817 66 803 42 q 855 162 840 102 l 925 463 l 420 463 l 373 263 q 347 174 357 197 q 286 92 328 136 l 503 92 q 452 62 492 90 q 398 23 413 33 q 349 0 364 0 l 119 0 q 204 113 180 41 q 218 162 212 136 l 386 884 l 259 884 q 412 976 397 976 l 708 976 q 658 945 697 974 q 604 907 618 917 q 555 884 570 884 l 517 884 l 441 555 l 946 555 l 1023 884 l 896 884 m 991 1031 q 889 1175 985 1031 l 821 1122 q 800 1109 811 1114 q 769 1094 788 1104 q 672 1035 705 1059 l 879 1196 q 1013 1280 928 1236 q 1026 1286 1024 1286 q 1029 1284 1027 1286 q 1033 1279 1031 1282 q 1052 1253 1039 1271 q 1142 1124 1069 1230 q 991 1031 1002 1031 z "},"":{"ha":762,"x_min":133,"x_max":786,"o":"m 331 958 q 290 1008 331 1008 q 227 998 264 1008 q 517 1168 323 1062 l 372 547 q 568 648 471 619 q 632 659 604 659 q 683 651 660 659 q 723 631 705 644 q 761 550 761 600 q 758 522 761 537 l 677 176 q 670 121 670 148 q 683 85 670 95 q 717 75 696 75 q 755 81 738 75 q 786 92 772 87 q 579 -11 680 -11 q 519 45 519 -11 q 525 92 519 68 q 536 137 531 115 l 595 391 q 608 475 608 442 q 600 524 608 507 q 576 549 591 541 q 503 564 552 564 q 426 544 454 564 q 377 491 397 523 q 327 353 347 442 l 279 148 q 274 113 274 124 q 302 80 274 80 q 347 92 314 80 q 233 -2 305 25 q 190 -11 210 -11 q 159 -6 170 -11 q 144 8 149 -1 q 133 50 133 25 q 142 127 133 85 l 323 901 q 331 958 331 934 m 600 699 q 520 811 594 699 l 466 769 q 450 759 459 763 q 426 748 441 755 q 351 702 376 721 l 512 827 q 616 893 550 858 q 626 897 625 897 q 629 895 628 897 q 632 892 630 894 q 647 872 637 885 q 717 771 660 853 q 600 699 608 699 z "},"":{"ha":1135,"x_min":119,"x_max":1345,"o":"m 896 884 q 1049 976 1034 976 l 1345 976 q 1295 945 1334 974 q 1240 907 1255 917 q 1192 884 1206 884 l 1155 884 l 1118 728 l 1261 728 q 1211 698 1250 726 q 1156 659 1171 669 q 1107 636 1122 636 l 1097 636 l 1010 263 q 983 176 996 199 q 922 92 964 136 l 1139 92 q 1089 62 1128 90 q 1035 23 1050 33 q 986 0 1001 0 l 756 0 q 817 66 803 42 q 855 162 840 102 l 925 463 l 420 463 l 373 263 q 347 174 357 197 q 286 92 328 136 l 503 92 q 452 62 492 90 q 398 23 413 33 q 349 0 364 0 l 119 0 q 204 113 180 41 q 218 162 212 136 l 328 636 l 187 636 q 237 666 198 637 q 291 705 276 695 q 340 728 325 728 l 349 728 l 386 884 l 259 884 q 412 976 397 976 l 708 976 q 658 945 697 974 q 604 907 618 917 q 555 884 570 884 l 517 884 l 481 728 l 986 728 l 1023 884 l 896 884 m 946 555 l 965 636 l 460 636 l 441 555 l 946 555 z "},"":{"ha":762,"x_min":133,"x_max":786,"o":"m 331 958 q 290 1008 331 1008 q 227 998 264 1008 q 517 1168 323 1062 l 433 811 l 572 811 q 522 781 562 809 q 468 742 483 752 q 419 719 434 719 l 412 719 l 372 547 q 568 648 471 619 q 632 659 604 659 q 683 651 660 659 q 723 631 705 644 q 761 550 761 600 q 758 522 761 537 l 677 176 q 670 121 670 148 q 683 85 670 95 q 717 75 696 75 q 755 81 738 75 q 786 92 772 87 q 579 -11 680 -11 q 519 45 519 -11 q 525 92 519 68 q 536 137 531 115 l 595 391 q 608 475 608 442 q 600 524 608 507 q 576 549 591 541 q 503 564 552 564 q 426 544 454 564 q 377 491 397 523 q 327 353 347 442 l 279 148 q 274 113 274 124 q 302 80 274 80 q 347 92 314 80 q 233 -2 305 25 q 190 -11 210 -11 q 159 -6 170 -11 q 144 8 149 -1 q 133 50 133 25 q 142 127 133 85 l 280 719 l 144 719 q 194 749 155 720 q 248 788 233 778 q 297 811 281 811 l 302 811 l 323 901 q 331 958 331 934 z "},"":{"ha":502,"x_min":120,"x_max":878,"o":"m 260 884 q 413 976 398 976 l 722 976 q 668 943 711 975 q 604 898 625 911 q 569 884 582 884 l 518 884 l 374 263 q 316 127 355 185 q 286 92 302 106 l 503 92 q 451 61 488 90 q 399 23 414 33 q 350 0 364 0 l 120 0 q 181 64 166 38 q 218 162 204 102 l 387 884 l 260 884 m 878 1184 q 565 1022 700 1022 q 503 1038 524 1022 q 472 1064 482 1053 q 450 1084 463 1074 q 397 1105 423 1105 q 347 1095 371 1105 q 297 1070 323 1084 q 248 1041 271 1056 q 212 1018 224 1026 q 448 1182 315 1135 q 524 1198 493 1198 q 569 1192 555 1198 q 595 1176 583 1185 q 620 1156 608 1166 q 646 1135 631 1145 q 709 1114 678 1114 q 761 1121 741 1114 q 802 1140 781 1129 q 842 1164 823 1152 q 878 1184 861 1176 z "},"":{"ha":400,"x_min":62,"x_max":728,"o":"m 241 472 q 197 522 241 522 q 136 512 176 522 q 426 682 340 643 l 315 203 q 306 168 311 186 q 302 131 302 149 q 378 79 302 79 q 422 83 397 79 q 377 52 400 68 q 330 20 354 35 q 226 -13 273 -13 q 157 17 170 -13 q 151 45 151 29 q 157 95 151 69 l 232 416 q 241 472 241 452 m 728 895 q 415 732 550 732 q 353 748 374 732 q 322 774 332 764 q 300 794 313 785 q 247 816 273 816 q 197 805 221 816 q 147 781 173 795 q 98 751 121 766 q 62 728 75 736 q 298 892 165 846 q 374 908 343 908 q 419 902 406 908 q 446 886 433 896 q 470 866 458 877 q 496 846 481 855 q 559 824 528 824 q 611 832 591 824 q 652 851 631 840 q 692 874 673 862 q 728 895 711 886 z "},"":{"ha":502,"x_min":120,"x_max":869,"o":"m 260 884 q 413 976 398 976 l 722 976 q 668 943 711 975 q 604 898 625 911 q 569 884 582 884 l 518 884 l 374 263 q 316 127 355 185 q 286 92 302 106 l 503 92 q 451 61 488 90 q 399 23 414 33 q 350 0 364 0 l 120 0 q 181 64 166 38 q 218 162 204 102 l 387 884 l 260 884 m 869 1131 q 816 1097 859 1128 q 751 1052 772 1065 q 716 1038 729 1038 l 227 1038 q 277 1069 238 1040 q 330 1107 315 1097 q 380 1131 364 1131 l 869 1131 z "},"":{"ha":400,"x_min":64,"x_max":707,"o":"m 241 472 q 197 522 241 522 q 136 512 176 522 q 426 682 340 643 l 315 203 q 306 168 311 186 q 302 131 302 149 q 378 79 302 79 q 422 83 397 79 q 377 52 400 68 q 330 20 354 35 q 226 -13 273 -13 q 157 17 170 -13 q 151 45 151 29 q 157 95 151 69 l 232 416 q 241 472 241 452 m 707 838 q 654 805 697 836 q 589 759 610 773 q 554 745 567 745 l 64 745 q 115 777 76 748 q 168 815 153 805 q 218 838 202 838 l 707 838 z "},"":{"ha":502,"x_min":120,"x_max":825,"o":"m 260 884 q 413 976 398 976 l 722 976 q 668 943 711 975 q 604 898 625 911 q 569 884 582 884 l 518 884 l 374 263 q 316 127 355 185 q 286 92 302 106 l 503 92 q 451 61 488 90 q 399 23 414 33 q 350 0 364 0 l 120 0 q 181 64 166 38 q 218 162 204 102 l 387 884 l 260 884 m 825 1311 q 742 1191 810 1253 q 520 1064 642 1100 q 453 1053 484 1053 q 397 1063 422 1053 q 351 1089 371 1072 q 286 1200 309 1124 q 283 1217 283 1211 q 293 1232 283 1224 q 319 1248 303 1239 q 353 1266 334 1257 q 389 1283 372 1275 q 436 1311 427 1301 q 474 1210 447 1246 q 526 1159 500 1175 q 575 1143 551 1143 q 613 1151 600 1143 q 637 1169 626 1158 q 665 1208 651 1184 q 699 1243 679 1232 q 744 1267 720 1255 q 825 1311 812 1298 z "},"":{"ha":400,"x_min":112,"x_max":654,"o":"m 241 472 q 197 522 241 522 q 136 512 176 522 q 426 682 340 643 l 315 203 q 306 168 311 186 q 302 131 302 149 q 378 79 302 79 q 422 83 397 79 q 377 52 400 68 q 330 20 354 35 q 226 -13 273 -13 q 157 17 170 -13 q 151 45 151 29 q 157 95 151 69 l 232 416 q 241 472 241 452 m 654 979 q 571 859 640 921 q 349 732 471 768 q 282 721 313 721 q 226 730 252 721 q 180 757 200 740 q 115 868 138 792 q 112 885 112 878 q 122 899 112 892 q 148 916 132 907 q 182 933 163 924 q 218 951 201 943 q 265 979 256 969 q 303 878 276 913 q 355 827 330 842 q 405 811 380 811 q 442 819 429 811 q 466 837 455 826 q 494 876 480 852 q 528 911 508 899 q 573 935 549 923 q 654 979 641 966 z "},"":{"ha":502,"x_min":73,"x_max":722,"o":"m 292 0 q 223 -130 223 -68 q 251 -198 223 -170 q 319 -227 277 -227 q 423 -188 353 -227 q 456 -172 441 -178 l 456 -172 q 335 -251 448 -188 q 301 -270 316 -261 q 270 -287 286 -278 q 175 -319 208 -319 q 126 -312 142 -319 q 98 -292 110 -304 q 73 -227 73 -264 q 89 -158 73 -190 q 131 -96 105 -125 q 254 0 178 -43 l 120 0 q 181 64 166 38 q 218 162 204 102 l 387 884 l 260 884 q 413 976 398 976 l 722 976 q 668 943 711 975 q 604 898 625 911 q 569 884 582 884 l 518 884 l 374 263 q 316 127 355 185 q 286 92 302 106 l 503 92 q 451 61 488 90 q 399 23 414 33 q 350 0 364 0 l 292 0 z "},"":{"ha":400,"x_min":60,"x_max":529,"o":"m 302 131 q 378 79 302 79 q 422 83 397 79 q 387 59 405 72 q 351 34 370 46 q 274 -5 309 6 q 210 -130 210 -70 q 237 -198 210 -170 q 306 -227 264 -227 q 411 -188 340 -227 q 443 -172 428 -178 l 443 -172 q 322 -251 435 -188 q 288 -270 303 -261 q 256 -287 273 -278 q 162 -319 195 -319 q 113 -312 130 -319 q 85 -292 97 -304 q 60 -228 60 -264 q 74 -163 60 -193 q 110 -106 87 -133 q 220 -13 153 -54 q 156 19 168 -11 q 151 45 151 31 q 157 95 151 69 l 232 416 q 241 472 241 452 q 197 522 241 522 q 136 512 176 522 q 426 682 340 643 l 315 203 q 306 168 311 186 q 302 131 302 149 m 529 1151 q 494 1004 509 1031 q 448 971 490 996 q 389 938 406 947 q 341 911 353 918 q 376 1059 363 983 l 529 1151 z "},"":{"ha":502,"x_min":120,"x_max":722,"o":"m 260 884 q 413 976 398 976 l 722 976 q 668 943 711 975 q 604 898 625 911 q 569 884 582 884 l 518 884 l 374 263 q 316 127 355 185 q 286 92 302 106 l 503 92 q 451 61 488 90 q 399 23 414 33 q 350 0 364 0 l 120 0 q 181 64 166 38 q 218 162 204 102 l 387 884 l 260 884 m 653 1135 l 500 1042 l 419 1139 l 572 1231 l 653 1135 z "},"":{"ha":400,"x_min":136,"x_max":426,"o":"m 241 472 q 197 522 241 522 q 136 512 176 522 q 426 682 340 643 l 315 203 q 306 168 311 186 q 302 131 302 149 q 378 79 302 79 q 422 83 397 79 q 377 52 400 68 q 330 20 354 35 q 226 -13 273 -13 q 157 17 170 -13 q 151 45 151 29 q 157 95 151 69 l 232 416 q 241 472 241 452 z "},"":{"ha":982,"x_min":120,"x_max":1221,"o":"m 260 884 q 413 976 398 976 l 722 976 q 668 943 711 975 q 604 898 625 911 q 569 884 582 884 l 518 884 l 374 263 q 316 127 355 185 q 286 92 302 106 l 503 92 q 451 61 488 90 q 399 23 414 33 q 350 0 364 0 l 120 0 q 181 64 166 38 q 218 162 204 102 l 387 884 l 260 884 m 759 884 q 912 976 897 976 l 1221 976 q 1162 939 1202 970 q 1102 896 1122 909 q 1068 884 1082 884 l 1017 884 q 932 517 975 699 q 847 151 890 336 q 643 -195 804 -33 q 415 -346 536 -302 q 290 -368 353 -368 q 220 -353 260 -368 q 165 -328 180 -337 q 132 -290 132 -308 q 301 -168 132 -260 q 326 -155 319 -159 q 281 -199 281 -185 q 310 -225 281 -206 q 360 -255 338 -245 q 447 -277 406 -277 q 519 -260 488 -277 q 575 -217 550 -244 q 619 -155 600 -190 q 652 -83 638 -120 q 694 58 671 -33 l 886 884 l 759 884 z "},"":{"ha":774,"x_min":136,"x_max":930,"o":"m 529 1151 q 494 1004 509 1031 q 448 971 490 996 q 389 938 406 947 q 341 911 353 918 q 376 1059 363 983 l 529 1151 m 241 472 q 197 522 241 522 q 136 512 176 522 q 426 682 340 643 l 315 203 q 306 168 311 186 q 302 131 302 149 q 378 79 302 79 q 422 83 397 79 q 377 52 400 68 q 330 20 354 35 q 226 -13 273 -13 q 157 17 170 -13 q 151 45 151 29 q 157 95 151 69 l 232 416 q 241 472 241 452 m 930 1151 q 924 1117 927 1137 q 916 1076 920 1097 q 899 1011 903 1023 q 883 993 894 1000 q 858 977 873 986 q 825 957 843 967 q 790 937 806 947 q 742 911 758 920 q 777 1059 758 957 l 930 1151 m 641 472 q 600 522 641 522 q 537 512 581 522 q 827 682 633 576 l 728 260 q 699 133 713 196 q 669 17 684 69 q 632 -82 654 -35 q 580 -176 610 -130 q 512 -264 549 -222 q 433 -338 475 -306 q 250 -409 339 -409 q 214 -385 214 -409 q 288 -311 214 -354 q 345 -279 311 -298 q 389 -254 380 -261 q 366 -288 366 -271 q 399 -317 366 -319 l 401 -317 q 517 -73 475 -227 q 540 15 530 -29 l 631 410 q 641 472 641 453 z "},"":{"ha":480,"x_min":-370,"x_max":757,"o":"m 257 884 q 410 976 395 976 l 720 976 q 660 939 701 970 q 600 896 620 909 q 566 884 581 884 l 515 884 q 430 517 473 699 q 345 151 388 336 q 141 -195 302 -33 q -87 -346 35 -302 q -212 -368 -149 -368 q -281 -353 -241 -368 q -336 -328 -321 -337 q -370 -290 -370 -308 q -201 -168 -370 -260 q -176 -155 -183 -159 q -220 -199 -220 -185 q -192 -225 -220 -206 q -142 -255 -163 -245 q -55 -277 -96 -277 q 17 -260 -14 -277 q 73 -217 48 -244 q 117 -155 98 -190 q 151 -83 136 -120 q 192 58 170 -33 l 384 884 l 257 884 m 606 1031 q 504 1175 600 1031 l 435 1122 q 414 1109 426 1114 q 384 1094 403 1104 q 287 1035 319 1059 l 494 1196 q 627 1280 543 1236 q 641 1286 639 1286 q 644 1284 642 1286 q 648 1279 646 1282 q 667 1253 654 1271 q 757 1124 684 1230 q 606 1031 617 1031 z "},"":{"ha":374,"x_min":-186,"x_max":616,"o":"m 241 472 q 200 522 241 522 q 137 512 180 522 q 427 682 233 576 l 328 260 q 299 133 313 196 q 269 17 284 69 q 232 -82 254 -35 q 180 -176 210 -130 q 112 -264 149 -222 q 33 -338 75 -306 q -150 -409 -61 -409 q -186 -385 -186 -409 q -113 -311 -186 -354 q -55 -279 -90 -298 q -11 -254 -20 -261 q -35 -288 -35 -271 q -1 -317 -35 -319 l 1 -317 q 117 -73 75 -227 q 140 15 130 -29 l 231 410 q 241 472 241 453 m 465 716 q 363 860 458 716 l 294 806 q 273 794 285 799 q 243 779 262 789 q 146 720 178 744 l 353 880 q 486 965 401 921 q 499 970 498 970 q 503 968 501 970 q 507 964 505 966 q 526 938 513 956 q 616 809 543 914 q 465 716 476 716 z "},"":{"ha":1132,"x_min":121,"x_max":1230,"o":"m 977 884 q 605 589 838 766 q 953 164 879 238 q 1097 91 1025 91 q 1206 123 1138 91 q 999 9 1105 43 q 931 -3 961 -3 q 878 7 901 -3 q 836 34 856 18 q 799 70 817 50 q 731 146 782 90 q 441 493 646 241 q 720 714 644 654 q 840 810 795 775 q 927 884 884 846 l 808 884 q 827 896 814 888 q 854 915 839 905 q 886 936 869 925 q 918 956 903 947 q 962 976 953 976 l 1230 976 q 1172 940 1213 970 q 1111 896 1131 909 q 1077 884 1090 884 l 977 884 m 260 884 q 414 976 399 976 l 723 976 q 671 945 708 973 q 618 906 633 916 q 570 884 584 884 l 519 884 l 374 263 q 347 174 358 195 q 287 92 329 136 l 504 92 q 452 61 489 90 q 399 23 414 33 q 351 0 365 0 l 121 0 q 237 236 197 65 l 387 884 l 260 884 m 611 -60 q 643 -155 642 -134 l 643 -158 q 551 -326 643 -250 q 521 -343 537 -336 q 491 -360 505 -349 q 566 -267 543 -319 q 575 -229 575 -249 q 559 -210 575 -210 q 524 -224 551 -210 l 488 -134 l 611 -60 z "},"":{"ha":724,"x_min":126,"x_max":779,"o":"m 705 579 q 471 342 705 471 q 493 309 478 332 q 528 257 509 286 q 570 198 548 229 q 613 142 592 168 q 682 85 660 85 q 779 112 724 85 q 612 0 703 33 q 551 -12 579 -12 q 504 5 523 -12 q 456 59 484 22 q 307 265 411 117 q 277 121 277 146 q 314 78 277 78 q 345 85 330 78 q 307 56 330 73 q 259 24 284 39 q 167 -14 199 -14 q 126 35 126 -14 q 133 83 126 53 l 324 907 q 332 958 332 935 q 288 1008 332 1008 q 258 1005 273 1008 q 228 998 243 1002 q 370 1088 298 1044 q 517 1168 441 1133 l 372 546 q 562 646 460 612 q 628 656 597 656 q 682 636 659 656 q 705 579 705 615 m 541 444 q 553 489 553 467 q 547 523 553 510 q 529 545 540 536 q 476 564 506 564 q 426 549 447 564 q 389 509 406 534 q 360 453 373 484 q 338 391 348 422 q 322 332 329 360 q 311 284 315 303 q 541 444 492 351 m 407 -66 q 439 -161 437 -140 l 439 -164 q 347 -332 439 -256 q 317 -349 333 -342 q 287 -366 300 -355 q 362 -273 338 -326 q 371 -235 371 -255 q 355 -216 371 -216 q 320 -231 347 -216 l 284 -140 l 407 -66 z "},"":{"ha":724,"x_min":116,"x_max":779,"o":"m 705 579 q 471 342 705 471 q 493 309 478 332 q 528 257 509 286 q 570 198 548 229 q 613 142 592 168 q 682 85 660 85 q 779 112 724 85 q 612 0 703 33 q 551 -12 579 -12 q 504 5 523 -12 q 456 59 484 22 q 307 265 411 117 q 277 121 277 146 q 314 78 277 78 q 345 85 330 78 q 307 56 330 73 q 259 24 284 39 q 167 -14 199 -14 q 126 35 126 -14 q 133 83 126 53 l 212 420 q 220 472 220 449 q 176 522 220 522 q 146 519 161 522 q 116 512 131 515 q 258 602 186 557 q 406 682 329 647 l 372 546 q 562 646 460 612 q 628 656 597 656 q 682 636 659 656 q 705 579 705 615 m 541 444 q 553 489 553 467 q 547 523 553 510 q 529 545 540 536 q 476 564 506 564 q 426 549 447 564 q 389 509 406 534 q 360 453 373 484 q 338 391 348 422 q 322 332 329 360 q 311 284 315 303 q 541 444 492 351 z "},"":{"ha":763,"x_min":114,"x_max":838,"o":"m 260 884 q 414 976 399 976 l 723 976 q 671 945 708 973 q 618 906 633 916 q 570 884 584 884 l 519 884 q 443 546 480 715 q 362 208 405 376 q 323 134 351 163 q 278 92 296 104 l 664 92 q 798 129 745 92 q 618 12 714 45 q 553 0 584 0 l 114 0 q 203 111 181 52 q 219 162 212 134 l 387 884 l 260 884 m 838 1314 q 542 1063 703 1171 q 439 1004 487 1026 l 441 1013 q 543 1085 496 1043 q 619 1155 590 1126 q 661 1198 648 1184 q 703 1237 690 1228 q 730 1254 716 1246 q 760 1272 744 1263 q 790 1289 775 1280 q 838 1314 810 1300 z "},"":{"ha":382,"x_min":138,"x_max":639,"o":"m 330 932 q 263 1002 330 1002 q 233 1000 248 1002 q 307 1044 270 1021 q 379 1083 343 1066 q 517 1145 454 1118 l 299 210 q 289 171 294 191 q 284 133 284 151 q 291 104 284 114 q 309 88 298 94 q 406 84 344 73 q 358 51 382 68 q 308 19 334 33 q 197 -14 250 -14 q 138 55 138 -14 q 152 144 138 90 l 321 869 q 330 932 330 910 m 639 1397 q 343 1147 505 1255 q 240 1088 288 1109 l 242 1096 q 344 1168 297 1126 q 420 1239 391 1210 q 463 1282 449 1267 q 504 1320 491 1312 q 531 1338 517 1329 q 561 1355 545 1346 q 591 1372 576 1364 q 639 1397 612 1383 z "},"":{"ha":763,"x_min":114,"x_max":798,"o":"m 260 884 q 414 976 399 976 l 723 976 q 671 945 708 973 q 618 906 633 916 q 570 884 584 884 l 519 884 q 443 546 480 715 q 362 208 405 376 q 323 134 351 163 q 278 92 296 104 l 664 92 q 798 129 745 92 q 618 12 714 45 q 553 0 584 0 l 114 0 q 203 111 181 52 q 219 162 212 134 l 387 884 l 260 884 m 427 -92 q 458 -187 457 -165 l 458 -190 q 366 -357 458 -282 q 336 -375 353 -368 q 307 -392 320 -381 q 382 -299 358 -351 q 391 -261 391 -281 q 374 -241 391 -241 q 340 -256 367 -241 l 304 -165 l 427 -92 z "},"":{"ha":382,"x_min":113,"x_max":517,"o":"m 330 932 q 263 1002 330 1002 q 233 1000 248 1002 q 307 1044 270 1021 q 379 1083 343 1066 q 517 1145 454 1118 l 299 210 q 289 171 294 191 q 284 133 284 151 q 291 104 284 114 q 309 88 298 94 q 406 84 344 73 q 358 51 382 68 q 308 19 334 33 q 197 -14 250 -14 q 138 55 138 -14 q 152 144 138 90 l 321 869 q 330 932 330 910 m 236 -92 q 268 -187 267 -165 l 268 -190 q 176 -357 268 -282 q 146 -375 162 -368 q 116 -392 130 -381 q 191 -299 168 -351 q 200 -261 200 -281 q 184 -241 200 -241 q 149 -256 176 -241 l 113 -165 l 236 -92 z "},"":{"ha":763,"x_min":114,"x_max":924,"o":"m 260 884 q 414 976 399 976 l 723 976 q 671 945 708 973 q 618 906 633 916 q 570 884 584 884 l 519 884 q 443 546 480 715 q 362 208 405 376 q 323 134 351 163 q 278 92 296 104 l 664 92 q 798 129 745 92 q 618 12 714 45 q 553 0 584 0 l 114 0 q 203 111 181 52 q 219 162 212 134 l 387 884 l 260 884 m 892 1042 q 924 947 922 968 l 924 944 q 831 777 924 852 q 802 759 818 766 q 772 742 785 753 q 848 835 825 784 q 856 873 856 853 q 840 892 856 892 q 805 878 832 892 l 769 968 l 892 1042 z "},"":{"ha":538,"x_min":138,"x_max":720,"o":"m 330 932 q 263 1002 330 1002 q 233 1000 248 1002 q 307 1044 270 1021 q 379 1083 343 1066 q 517 1145 454 1118 l 299 210 q 289 171 294 191 q 284 133 284 151 q 291 104 284 114 q 309 88 298 94 q 406 84 344 73 q 358 51 382 68 q 308 19 334 33 q 197 -14 250 -14 q 138 55 138 -14 q 152 144 138 90 l 321 869 q 330 932 330 910 m 688 1142 q 720 1047 719 1069 l 720 1044 q 628 877 720 952 q 598 860 614 866 q 568 842 582 853 q 644 935 622 884 q 652 973 652 954 q 636 993 652 993 q 602 978 629 993 l 566 1069 l 688 1142 z "},"":{"ha":902,"x_min":114,"x_max":966,"o":"m 260 884 q 414 976 399 976 l 723 976 q 671 945 708 973 q 618 906 633 916 q 570 884 584 884 l 519 884 q 443 546 480 715 q 362 208 405 376 q 323 134 351 163 q 278 92 296 104 l 664 92 q 798 129 745 92 q 618 12 714 45 q 553 0 584 0 l 114 0 q 203 111 181 52 q 219 162 212 134 l 387 884 l 260 884 m 966 479 l 813 387 l 768 500 l 922 592 l 966 479 z "},"":{"ha":620,"x_min":138,"x_max":701,"o":"m 330 932 q 263 1002 330 1002 q 233 1000 248 1002 q 307 1044 270 1021 q 379 1083 343 1066 q 517 1145 454 1118 l 299 210 q 289 171 294 191 q 284 133 284 151 q 291 104 284 114 q 309 88 298 94 q 406 84 344 73 q 358 51 382 68 q 308 19 334 33 q 197 -14 250 -14 q 138 55 138 -14 q 152 144 138 90 l 321 869 q 330 932 330 910 m 701 479 l 548 387 l 503 500 l 656 592 l 701 479 z "},"":{"ha":762,"x_min":113,"x_max":797,"o":"m 562 591 q 605 587 576 587 q 712 611 663 587 q 415 438 578 515 q 388 323 401 380 q 366 229 375 266 q 350 175 357 192 q 332 142 342 158 q 281 92 311 111 l 663 92 q 797 129 745 92 q 617 12 713 45 q 552 0 583 0 l 113 0 q 177 63 160 37 q 218 162 205 105 l 269 376 q 163 342 212 355 l 160 357 q 279 423 243 405 l 387 884 l 260 884 q 413 976 398 976 l 722 976 q 672 946 711 975 q 618 907 633 917 q 569 884 585 884 l 518 884 l 430 504 q 562 591 486 536 z "},"":{"ha":415,"x_min":71,"x_max":589,"o":"m 439 591 q 481 587 454 587 q 589 611 540 587 q 364 471 482 535 l 303 210 q 294 171 299 191 q 289 133 289 151 q 296 104 289 114 q 313 88 302 94 q 410 84 349 73 q 362 51 386 68 q 313 19 338 33 q 202 -14 255 -14 q 143 55 143 -14 q 157 144 143 90 l 216 397 q 73 342 136 361 l 71 357 q 227 448 165 412 l 325 869 q 334 932 334 903 q 268 1002 334 1002 q 237 1000 252 1002 q 311 1044 274 1021 q 384 1083 347 1066 q 522 1145 463 1120 l 383 551 l 439 591 z "},"":{"ha":1237,"x_min":127,"x_max":1459,"o":"m 1050 884 q 1203 976 1188 976 l 1459 976 q 1400 941 1432 968 q 1309 884 1341 894 q 1285 776 1299 829 q 1248 627 1271 722 q 1082 140 1202 433 q 1067 104 1074 123 q 1052 73 1061 85 q 1027 46 1044 60 q 992 20 1011 33 q 954 -5 972 7 q 924 -23 935 -16 l 924 -12 q 891 91 924 33 q 833 193 882 107 q 494 730 707 412 l 427 437 q 407 347 417 395 q 380 252 396 299 q 285 92 343 144 l 504 92 q 351 0 366 0 l 127 0 q 208 119 182 60 q 273 326 245 205 q 387 884 340 612 l 233 884 q 387 976 372 976 l 642 976 q 573 930 620 967 q 807 578 720 722 q 936 369 895 435 q 1017 233 978 302 q 1171 884 1120 554 l 1050 884 m 1272 1253 q 976 1003 1137 1111 q 873 944 921 966 l 875 952 q 977 1024 930 983 q 1053 1095 1024 1066 q 1095 1138 1082 1124 q 1137 1177 1124 1168 q 1164 1194 1150 1185 q 1194 1211 1178 1202 q 1224 1228 1209 1220 q 1272 1253 1244 1240 z "},"":{"ha":787,"x_min":136,"x_max":918,"o":"m 701 137 q 762 81 701 81 q 816 92 787 81 q 720 26 747 42 q 609 -10 656 -10 q 547 49 547 -10 q 563 137 547 75 l 622 391 q 630 454 630 428 q 515 564 630 564 q 374 420 416 564 q 357 353 363 383 l 308 143 q 305 120 305 133 q 342 78 305 78 q 374 85 357 78 q 191 -14 241 -14 q 151 26 151 -14 q 191 208 151 44 q 244 432 231 372 q 261 521 261 507 q 197 570 261 570 q 136 559 168 570 q 195 593 162 568 q 278 648 256 641 q 355 664 321 664 q 412 612 412 664 q 401 547 412 590 q 665 659 557 659 q 751 631 716 659 q 789 551 789 600 q 785 522 789 537 l 707 186 q 701 137 701 156 m 918 1013 q 623 763 784 871 q 519 704 568 726 l 522 712 q 624 784 576 743 q 700 855 671 826 q 742 898 728 884 q 784 937 770 928 q 811 954 797 945 q 840 971 825 962 q 871 988 856 980 q 918 1013 891 1000 z "},"":{"ha":1237,"x_min":127,"x_max":1459,"o":"m 1050 884 q 1203 976 1188 976 l 1459 976 q 1400 941 1432 968 q 1309 884 1341 894 q 1285 776 1299 829 q 1248 627 1271 722 q 1082 140 1202 433 q 1067 104 1074 123 q 1052 73 1061 85 q 1027 46 1044 60 q 992 20 1011 33 q 954 -5 972 7 q 924 -23 935 -16 l 924 -12 q 891 91 924 33 q 833 193 882 107 q 494 730 707 412 l 427 437 q 407 347 417 395 q 380 252 396 299 q 285 92 343 144 l 504 92 q 351 0 366 0 l 127 0 q 208 119 182 60 q 273 326 245 205 q 387 884 340 612 l 233 884 q 387 976 372 976 l 642 976 q 573 930 620 967 q 807 578 720 722 q 936 369 895 435 q 1017 233 978 302 q 1171 884 1120 554 l 1050 884 m 663 -92 q 695 -187 694 -165 l 695 -190 q 603 -357 695 -282 q 573 -375 589 -368 q 543 -392 557 -381 q 618 -299 595 -351 q 627 -261 627 -281 q 611 -241 627 -241 q 576 -256 604 -241 l 541 -165 l 663 -92 z "},"":{"ha":787,"x_min":136,"x_max":816,"o":"m 701 137 q 762 81 701 81 q 816 92 787 81 q 720 26 747 42 q 609 -10 656 -10 q 547 49 547 -10 q 563 137 547 75 l 622 391 q 630 454 630 428 q 515 564 630 564 q 374 420 416 564 q 357 353 363 383 l 308 143 q 305 120 305 133 q 342 78 305 78 q 374 85 357 78 q 191 -14 241 -14 q 151 26 151 -14 q 191 208 151 44 q 244 432 231 372 q 261 521 261 507 q 197 570 261 570 q 136 559 168 570 q 195 593 162 568 q 278 648 256 641 q 355 664 321 664 q 412 612 412 664 q 401 547 412 590 q 665 659 557 659 q 751 631 716 659 q 789 551 789 600 q 785 522 789 537 l 707 186 q 701 137 701 156 m 438 -92 q 470 -187 469 -165 l 470 -190 q 378 -357 470 -282 q 348 -375 364 -368 q 318 -392 332 -381 q 393 -299 370 -351 q 402 -261 402 -281 q 386 -241 402 -241 q 351 -256 378 -241 l 315 -165 l 438 -92 z "},"":{"ha":1237,"x_min":127,"x_max":1459,"o":"m 1050 884 q 1203 976 1188 976 l 1459 976 q 1400 941 1432 968 q 1309 884 1341 894 q 1285 776 1299 829 q 1248 627 1271 722 q 1082 140 1202 433 q 1067 104 1074 123 q 1052 73 1061 85 q 1027 46 1044 60 q 992 20 1011 33 q 954 -5 972 7 q 924 -23 935 -16 l 924 -12 q 891 91 924 33 q 833 193 882 107 q 494 730 707 412 l 427 437 q 407 347 417 395 q 380 252 396 299 q 285 92 343 144 l 504 92 q 351 0 366 0 l 127 0 q 208 119 182 60 q 273 326 245 205 q 387 884 340 612 l 233 884 q 387 976 372 976 l 642 976 q 573 930 620 967 q 807 578 720 722 q 936 369 895 435 q 1017 233 978 302 q 1171 884 1120 554 l 1050 884 m 913 1217 q 1016 1074 920 1217 l 1084 1127 q 1105 1140 1094 1135 q 1136 1155 1117 1145 q 1233 1215 1198 1187 l 1026 1053 q 984 1024 1000 1035 q 950 1003 967 1014 q 918 983 933 992 q 880 963 884 963 q 871 970 876 963 q 853 995 867 977 q 814 1051 839 1014 q 763 1124 789 1088 q 913 1217 902 1217 z "},"":{"ha":787,"x_min":136,"x_max":894,"o":"m 701 137 q 762 81 701 81 q 816 92 787 81 q 720 26 747 42 q 609 -10 656 -10 q 547 49 547 -10 q 563 137 547 75 l 622 391 q 630 454 630 428 q 515 564 630 564 q 374 420 416 564 q 357 353 363 383 l 308 143 q 305 120 305 133 q 342 78 305 78 q 374 85 357 78 q 191 -14 241 -14 q 151 26 151 -14 q 191 208 151 44 q 244 432 231 372 q 261 521 261 507 q 197 570 261 570 q 136 559 168 570 q 195 593 162 568 q 278 648 256 641 q 355 664 321 664 q 412 612 412 664 q 401 547 412 590 q 665 659 557 659 q 751 631 716 659 q 789 551 789 600 q 785 522 789 537 l 707 186 q 701 137 701 156 m 574 956 q 677 812 581 956 l 745 866 q 766 879 755 873 q 797 894 778 884 q 894 954 859 926 l 687 792 q 645 763 661 774 q 611 742 628 753 q 579 722 594 731 q 541 702 545 702 q 532 709 537 702 q 514 734 528 715 q 475 790 500 753 q 424 863 450 827 q 574 956 563 956 z "},"":{"ha":942,"x_min":145,"x_max":971,"o":"m 268 865 q 300 770 298 792 l 300 768 q 208 600 300 675 q 178 583 194 589 q 148 566 161 576 q 224 659 201 608 q 232 696 232 677 q 216 716 232 716 q 181 701 208 716 l 145 792 l 268 865 m 856 137 q 917 81 856 81 q 971 92 942 81 q 875 26 902 42 q 764 -10 812 -10 q 703 49 703 -10 q 718 137 703 75 l 777 391 q 785 454 785 428 q 670 564 785 564 q 530 420 572 564 q 512 353 519 383 l 463 143 q 460 120 460 133 q 498 78 460 78 q 530 85 513 78 q 346 -14 397 -14 q 306 26 306 -14 q 346 208 306 44 q 399 432 386 372 q 416 521 416 507 q 352 570 416 570 q 292 559 323 570 q 350 593 317 568 q 433 648 412 641 q 510 664 477 664 q 568 612 568 664 q 557 547 568 590 q 821 659 713 659 q 907 631 871 659 q 944 551 944 600 q 941 522 944 537 l 863 186 q 856 137 856 156 z "},"":{"ha":1237,"x_min":123,"x_max":1461,"o":"m 1052 884 q 1205 976 1190 976 l 1461 976 q 1406 943 1441 970 q 1311 884 1339 892 q 1153 262 1255 561 q 1088 91 1118 159 q 1019 -28 1059 22 q 927 -127 979 -79 q 814 -218 875 -175 q 690 -293 753 -261 q 454 -363 555 -363 q 379 -350 419 -363 q 323 -328 339 -336 q 288 -290 288 -310 q 294 -276 288 -282 l 305 -264 q 481 -155 388 -189 q 435 -201 435 -184 q 446 -228 435 -217 q 474 -247 457 -239 q 511 -259 490 -254 q 552 -267 532 -264 q 629 -271 587 -271 q 723 -250 672 -271 q 814 -193 774 -229 q 926 -8 899 -119 q 927 3 927 -6 q 921 28 927 12 q 907 62 916 45 q 890 95 899 79 q 856 156 881 111 q 691 429 823 213 q 496 730 600 579 q 329 139 395 221 q 287 92 308 112 l 506 92 q 353 0 368 0 l 123 0 q 237 193 203 68 q 389 884 321 495 l 235 884 q 389 976 374 976 l 644 976 q 604 953 625 970 q 575 930 583 936 q 809 578 722 722 q 938 369 897 435 q 1019 233 980 302 q 1173 884 1122 557 l 1052 884 z "},"":{"ha":787,"x_min":136,"x_max":787,"o":"m 667 650 q 787 541 787 650 q 779 482 787 515 l 662 -21 q 510 -343 623 -190 q 331 -500 430 -453 q 224 -525 280 -525 q 192 -515 199 -525 q 184 -498 184 -506 q 231 -448 188 -469 q 361 -371 317 -404 q 337 -404 337 -387 q 349 -428 337 -421 q 372 -433 361 -434 q 458 -281 427 -363 q 509 -112 489 -199 l 616 350 q 632 450 632 416 q 623 504 632 484 q 598 536 614 524 q 522 558 569 558 q 449 535 475 558 q 404 479 422 512 q 356 346 374 425 l 309 143 q 306 120 306 133 q 343 78 306 78 q 375 85 358 78 q 197 -14 242 -14 q 152 26 152 -14 q 154 46 152 36 l 243 430 q 256 505 256 485 q 196 564 256 564 q 136 553 167 564 q 193 586 160 561 q 278 642 256 634 q 354 657 321 657 q 412 606 412 657 q 408 572 412 589 q 401 540 404 555 q 600 640 493 609 q 667 650 635 650 z "},"":{"ha":1188,"x_min":145,"x_max":1286,"o":"m 510 -55 q 370 -36 439 -55 q 252 24 302 -16 q 145 274 145 111 q 263 633 145 460 q 553 901 375 799 q 919 1006 736 1006 q 1177 916 1074 1006 q 1286 669 1286 823 q 1131 290 1286 485 q 779 11 984 108 q 510 -55 640 -55 m 1129 585 q 1101 723 1129 660 q 1024 827 1074 786 q 759 911 926 911 q 503 833 611 911 q 351 635 405 762 q 302 372 302 517 q 406 117 302 205 q 673 35 503 35 q 919 117 810 35 q 1074 320 1017 191 q 1129 585 1129 442 m 1232 1165 q 1179 1132 1222 1163 q 1114 1086 1135 1100 q 1079 1072 1092 1072 l 589 1072 q 640 1103 601 1075 q 693 1142 678 1132 q 743 1165 727 1165 l 1232 1165 z "},"":{"ha":743,"x_min":108,"x_max":899,"o":"m 316 -12 q 229 5 267 -12 q 164 51 191 22 q 108 204 108 112 q 188 422 108 308 q 377 599 261 526 q 598 672 494 672 q 746 610 689 672 q 800 458 800 551 q 721 240 800 353 q 534 62 646 133 q 316 -12 417 -12 m 644 368 q 631 444 644 403 q 593 515 618 485 q 443 581 538 581 q 342 532 386 581 q 270 361 286 470 q 266 295 266 331 q 278 218 266 259 q 315 146 290 177 q 465 79 370 79 q 601 180 549 79 q 644 368 644 265 m 899 830 q 845 797 888 828 q 780 751 802 765 q 745 737 758 737 l 256 737 q 306 768 267 740 q 359 807 345 797 q 409 830 393 830 l 899 830 z "},"":{"ha":1188,"x_min":145,"x_max":1286,"o":"m 510 -55 q 370 -36 439 -55 q 252 24 302 -16 q 145 274 145 111 q 263 633 145 460 q 553 901 375 799 q 919 1006 736 1006 q 1177 916 1074 1006 q 1286 669 1286 823 q 1131 290 1286 485 q 779 11 984 108 q 510 -55 640 -55 m 1129 585 q 1101 723 1129 660 q 1024 827 1074 786 q 759 911 926 911 q 503 833 611 911 q 351 635 405 762 q 302 372 302 517 q 406 117 302 205 q 673 35 503 35 q 919 117 810 35 q 1074 320 1017 191 q 1129 585 1129 442 m 1154 1314 q 1071 1194 1139 1256 q 849 1067 971 1103 q 782 1056 812 1056 q 726 1065 751 1056 q 680 1092 700 1075 q 614 1203 638 1127 q 612 1220 612 1213 q 622 1234 612 1227 q 648 1251 632 1242 q 682 1269 663 1259 q 718 1286 701 1278 q 765 1314 755 1304 q 803 1213 776 1249 q 855 1162 829 1177 q 904 1146 880 1146 q 942 1154 928 1146 q 966 1172 955 1161 q 994 1211 980 1187 q 1028 1246 1008 1234 q 1073 1270 1048 1258 q 1154 1314 1141 1301 z "},"":{"ha":743,"x_min":108,"x_max":850,"o":"m 316 -12 q 229 5 267 -12 q 164 51 191 22 q 108 204 108 112 q 188 422 108 308 q 377 599 261 526 q 598 672 494 672 q 746 610 689 672 q 800 458 800 551 q 721 240 800 353 q 534 62 646 133 q 316 -12 417 -12 m 644 368 q 631 444 644 403 q 593 515 618 485 q 443 581 538 581 q 342 532 386 581 q 270 361 286 470 q 266 295 266 331 q 278 218 266 259 q 315 146 290 177 q 465 79 370 79 q 601 180 549 79 q 644 368 644 265 m 850 970 q 768 850 836 912 q 546 723 668 759 q 479 712 509 712 q 422 722 448 712 q 376 748 397 731 q 311 859 335 783 q 309 876 309 869 q 319 890 309 883 q 345 907 329 898 q 379 925 360 916 q 414 942 397 934 q 462 970 452 960 q 499 869 473 905 q 552 818 526 833 q 601 802 577 802 q 638 810 625 802 q 663 828 652 817 q 691 867 677 843 q 725 902 705 890 q 770 926 745 914 q 850 970 838 957 z "},"":{"ha":1188,"x_min":145,"x_max":1286,"o":"m 510 -55 q 370 -36 439 -55 q 252 24 302 -16 q 145 274 145 111 q 263 633 145 460 q 553 901 375 799 q 919 1006 736 1006 q 1177 916 1074 1006 q 1286 669 1286 823 q 1131 290 1286 485 q 779 11 984 108 q 510 -55 640 -55 m 1129 585 q 1101 723 1129 660 q 1024 827 1074 786 q 759 911 926 911 q 503 833 611 911 q 351 635 405 762 q 302 372 302 517 q 406 117 302 205 q 673 35 503 35 q 919 117 810 35 q 1074 320 1017 191 q 1129 585 1129 442 m 1259 1360 q 963 1109 1124 1217 q 860 1050 908 1072 l 862 1059 q 964 1131 917 1089 q 1040 1201 1011 1173 q 1082 1244 1069 1230 q 1124 1283 1111 1274 q 1151 1300 1137 1292 q 1181 1318 1165 1309 q 1211 1335 1196 1326 q 1259 1360 1232 1346 m 1076 1360 q 780 1109 941 1217 q 677 1050 725 1072 l 679 1059 q 781 1131 734 1089 q 857 1201 828 1173 q 899 1244 886 1230 q 941 1283 928 1274 q 968 1300 954 1292 q 998 1318 982 1309 q 1028 1335 1013 1326 q 1076 1360 1048 1346 z "},"":{"ha":743,"x_min":108,"x_max":974,"o":"m 316 -12 q 229 5 267 -12 q 164 51 191 22 q 108 204 108 112 q 188 422 108 308 q 377 599 261 526 q 598 672 494 672 q 746 610 689 672 q 800 458 800 551 q 721 240 800 353 q 534 62 646 133 q 316 -12 417 -12 m 644 368 q 631 444 644 403 q 593 515 618 485 q 443 581 538 581 q 342 532 386 581 q 270 361 286 470 q 266 295 266 331 q 278 218 266 259 q 315 146 290 177 q 465 79 370 79 q 601 180 549 79 q 644 368 644 265 m 974 1033 q 678 783 840 890 q 575 724 623 745 l 577 732 q 679 804 632 762 q 755 874 726 846 q 798 918 784 903 q 839 956 826 947 q 866 974 852 965 q 896 991 880 982 q 926 1008 911 1000 q 974 1033 947 1019 m 791 1033 q 495 783 656 890 q 392 724 440 745 l 394 732 q 496 804 449 762 q 572 874 543 846 q 614 918 601 903 q 656 956 643 947 q 683 974 669 965 q 713 991 697 982 q 743 1008 728 1000 q 791 1033 764 1019 z "},"":{"ha":1605,"x_min":145,"x_max":1801,"o":"m 919 1006 q 1159 931 1059 1006 q 1175 941 1164 934 q 1199 956 1186 949 q 1242 976 1232 976 l 1801 976 q 1746 943 1782 970 q 1697 905 1710 915 q 1648 884 1665 884 l 1347 884 l 1270 555 l 1599 555 q 1544 522 1581 550 q 1494 484 1508 494 q 1446 463 1463 463 l 1249 463 l 1198 241 q 1146 117 1178 161 q 1117 92 1133 99 l 1494 92 q 1624 127 1533 92 q 1539 71 1598 104 q 1455 26 1479 38 q 1381 0 1398 0 l 949 0 q 1043 150 1016 69 q 1059 210 1052 178 q 667 -33 880 30 q 516 -55 593 -55 q 370 -36 439 -55 q 252 24 302 -16 q 145 274 145 111 q 263 633 145 460 q 553 901 375 799 q 919 1006 736 1006 m 1022 463 q 1127 532 1063 491 q 1129 576 1129 554 q 1024 827 1129 739 q 759 911 926 911 q 503 833 611 911 q 351 635 405 762 q 302 372 302 517 q 406 117 302 205 q 673 35 503 35 q 972 163 852 35 q 1117 463 1077 274 l 1022 463 z "},"":{"ha":1108,"x_min":108,"x_max":1162,"o":"m 1162 589 q 775 253 1162 446 q 954 82 782 82 q 1115 125 1031 82 q 873 1 1016 33 q 786 -9 828 -9 q 676 28 716 -9 q 627 134 637 66 q 399 1 518 35 q 311 -12 356 -12 q 229 5 267 -12 q 164 51 191 22 q 108 204 108 112 q 188 422 108 308 q 377 599 261 526 q 598 672 494 672 q 769 579 713 672 q 795 513 787 549 q 1010 650 901 611 q 1087 665 1050 665 q 1142 643 1123 665 q 1162 589 1162 622 m 993 450 q 1001 464 993 450 q 1009 500 1009 477 q 992 547 1009 524 q 943 570 975 570 q 890 554 912 570 q 850 515 868 539 q 819 459 832 490 q 796 397 806 429 q 776 286 779 337 q 927 377 846 304 q 993 450 977 422 m 644 368 q 631 444 644 403 q 593 515 618 485 q 443 581 538 581 q 342 532 386 581 q 270 361 286 470 q 266 295 266 331 q 278 218 266 259 q 315 146 290 177 q 465 79 370 79 q 601 180 549 79 q 644 368 644 265 z "},"":{"ha":979,"x_min":130,"x_max":1057,"o":"m 724 976 q 996 821 996 976 q 810 549 996 673 q 663 469 743 504 q 718 431 698 454 q 749 391 738 408 q 771 358 760 375 l 903 163 q 919 138 911 151 q 938 115 928 125 q 983 90 961 90 q 1057 112 1018 90 q 891 6 987 35 q 837 -3 859 -3 q 806 1 815 -3 q 789 14 797 6 q 776 31 782 22 q 764 49 770 40 l 629 249 q 585 315 604 287 q 543 363 566 344 q 408 400 499 400 l 376 263 q 349 174 360 195 q 289 92 331 136 l 506 92 q 451 58 493 90 q 353 0 372 0 l 130 0 q 221 162 197 58 l 389 884 l 243 884 q 396 976 381 976 l 724 976 m 724 526 q 793 581 764 546 q 831 657 822 616 q 841 726 841 699 q 830 778 841 753 q 802 820 820 802 q 761 850 785 838 q 712 870 738 863 q 605 884 665 884 l 521 884 l 431 495 l 536 495 q 724 526 659 495 m 1055 1325 q 759 1075 920 1183 q 656 1016 704 1038 l 658 1024 q 760 1096 713 1055 q 836 1167 807 1138 q 878 1210 865 1196 q 920 1249 907 1240 q 947 1266 933 1257 q 977 1283 961 1274 q 1007 1300 992 1292 q 1055 1325 1027 1312 z "},"":{"ha":603,"x_min":134,"x_max":878,"o":"m 352 664 q 410 610 410 664 q 404 566 410 594 q 453 598 425 580 q 510 634 481 617 q 625 675 581 675 q 677 660 652 675 q 738 631 726 631 q 761 634 751 631 q 783 642 772 637 q 821 659 803 650 q 656 549 752 579 q 602 538 625 538 q 565 545 578 538 q 536 560 551 552 q 478 582 498 582 q 446 572 458 582 q 421 545 433 562 q 401 508 410 528 q 385 468 392 488 q 366 403 370 427 l 305 143 q 302 120 302 131 q 340 78 302 78 q 372 85 355 78 q 332 52 350 69 q 296 20 315 35 q 201 -14 252 -14 q 165 -1 180 -14 q 149 24 149 12 q 151 46 149 39 l 241 437 q 252 478 246 457 q 258 521 258 499 q 194 570 258 570 q 134 559 165 570 q 189 592 155 567 q 275 648 252 640 q 352 664 321 664 m 878 1027 q 582 777 743 884 q 479 718 527 739 l 481 726 q 583 798 536 756 q 659 868 630 840 q 701 911 688 897 q 743 950 730 941 q 770 967 756 959 q 800 985 784 976 q 830 1002 815 994 q 878 1027 850 1013 z "},"":{"ha":979,"x_min":130,"x_max":1057,"o":"m 724 976 q 996 821 996 976 q 810 549 996 673 q 663 469 743 504 q 718 431 698 454 q 749 391 738 408 q 771 358 760 375 l 903 163 q 919 138 911 151 q 938 115 928 125 q 983 90 961 90 q 1057 112 1018 90 q 891 6 987 35 q 837 -3 859 -3 q 806 1 815 -3 q 789 14 797 6 q 776 31 782 22 q 764 49 770 40 l 629 249 q 585 315 604 287 q 543 363 566 344 q 408 400 499 400 l 376 263 q 349 174 360 195 q 289 92 331 136 l 506 92 q 451 58 493 90 q 353 0 372 0 l 130 0 q 221 162 197 58 l 389 884 l 243 884 q 396 976 381 976 l 724 976 m 724 526 q 793 581 764 546 q 831 657 822 616 q 841 726 841 699 q 830 778 841 753 q 802 820 820 802 q 761 850 785 838 q 712 870 738 863 q 605 884 665 884 l 521 884 l 431 495 l 536 495 q 724 526 659 495 m 549 -52 q 581 -147 579 -125 l 581 -150 q 488 -317 581 -242 q 458 -335 475 -328 q 429 -352 442 -341 q 504 -259 480 -311 q 513 -221 513 -241 q 496 -201 513 -201 q 462 -216 489 -201 l 426 -125 l 549 -52 z "},"":{"ha":603,"x_min":87,"x_max":821,"o":"m 352 664 q 410 610 410 664 q 404 566 410 594 q 453 598 425 580 q 510 634 481 617 q 625 675 581 675 q 677 660 652 675 q 738 631 726 631 q 761 634 751 631 q 783 642 772 637 q 821 659 803 650 q 656 549 752 579 q 602 538 625 538 q 565 545 578 538 q 536 560 551 552 q 478 582 498 582 q 446 572 458 582 q 421 545 433 562 q 401 508 410 528 q 385 468 392 488 q 366 403 370 427 l 305 143 q 302 120 302 131 q 340 78 302 78 q 372 85 355 78 q 332 52 350 69 q 296 20 315 35 q 201 -14 252 -14 q 165 -1 180 -14 q 149 24 149 12 q 151 46 149 39 l 241 437 q 252 478 246 457 q 258 521 258 499 q 194 570 258 570 q 134 559 165 570 q 189 592 155 567 q 275 648 252 640 q 352 664 321 664 m 210 -92 q 241 -187 240 -165 l 241 -190 q 149 -357 241 -282 q 119 -375 136 -368 q 90 -392 103 -381 q 165 -299 141 -351 q 174 -261 174 -281 q 157 -241 174 -241 q 123 -256 150 -241 l 87 -165 l 210 -92 z "},"":{"ha":979,"x_min":130,"x_max":1057,"o":"m 724 976 q 996 821 996 976 q 810 549 996 673 q 663 469 743 504 q 718 431 698 454 q 749 391 738 408 q 771 358 760 375 l 903 163 q 919 138 911 151 q 938 115 928 125 q 983 90 961 90 q 1057 112 1018 90 q 891 6 987 35 q 837 -3 859 -3 q 806 1 815 -3 q 789 14 797 6 q 776 31 782 22 q 764 49 770 40 l 629 249 q 585 315 604 287 q 543 363 566 344 q 408 400 499 400 l 376 263 q 349 174 360 195 q 289 92 331 136 l 506 92 q 451 58 493 90 q 353 0 372 0 l 130 0 q 221 162 197 58 l 389 884 l 243 884 q 396 976 381 976 l 724 976 m 724 526 q 793 581 764 546 q 831 657 822 616 q 841 726 841 699 q 830 778 841 753 q 802 820 820 802 q 761 850 785 838 q 712 870 738 863 q 605 884 665 884 l 521 884 l 431 495 l 536 495 q 724 526 659 495 m 679 1277 q 781 1133 686 1277 l 850 1187 q 871 1200 859 1194 q 901 1215 882 1205 q 998 1274 963 1247 l 791 1113 q 749 1084 766 1095 q 715 1063 732 1074 q 684 1043 699 1052 q 645 1023 649 1023 q 637 1029 642 1023 q 618 1055 632 1036 q 579 1111 604 1074 q 528 1184 554 1147 q 679 1277 667 1277 z "},"":{"ha":603,"x_min":134,"x_max":831,"o":"m 352 664 q 410 610 410 664 q 404 566 410 594 q 453 598 425 580 q 510 634 481 617 q 625 675 581 675 q 677 660 652 675 q 738 631 726 631 q 761 634 751 631 q 783 642 772 637 q 821 659 803 650 q 656 549 752 579 q 602 538 625 538 q 565 545 578 538 q 536 560 551 552 q 478 582 498 582 q 446 572 458 582 q 421 545 433 562 q 401 508 410 528 q 385 468 392 488 q 366 403 370 427 l 305 143 q 302 120 302 131 q 340 78 302 78 q 372 85 355 78 q 332 52 350 69 q 296 20 315 35 q 201 -14 252 -14 q 165 -1 180 -14 q 149 24 149 12 q 151 46 149 39 l 241 437 q 252 478 246 457 q 258 521 258 499 q 194 570 258 570 q 134 559 165 570 q 189 592 155 567 q 275 648 252 640 q 352 664 321 664 m 511 973 q 614 829 518 973 l 682 883 q 703 896 692 890 q 734 911 715 901 q 831 970 795 943 l 624 809 q 582 780 598 791 q 548 759 565 770 q 516 739 531 748 q 478 719 481 719 q 469 726 474 719 q 451 751 465 732 q 412 807 437 770 q 361 880 387 844 q 511 973 500 973 z "},"":{"ha":788,"x_min":62,"x_max":922,"o":"m 251 216 q 219 166 219 190 q 231 130 219 143 q 263 108 243 117 q 306 93 282 99 q 353 83 330 87 q 437 77 395 77 q 523 89 478 77 q 604 123 568 100 q 681 278 681 176 q 543 433 681 378 q 463 462 504 448 q 383 491 422 476 q 313 526 344 507 q 245 639 245 570 q 346 812 245 724 q 563 943 432 888 q 766 995 686 995 q 866 983 829 995 q 912 965 903 972 q 922 950 922 958 q 910 930 922 942 q 880 905 898 919 q 839 878 861 892 q 796 852 817 863 q 734 819 745 823 q 765 855 765 840 q 746 880 765 871 q 701 894 726 888 q 617 902 659 902 q 536 894 575 902 q 467 866 496 886 q 399 732 399 823 q 536 582 399 631 q 615 555 574 568 q 694 529 655 543 q 762 494 732 515 q 830 383 830 449 q 802 265 830 317 q 728 170 774 214 q 623 92 682 126 q 502 33 564 57 q 268 -16 372 -16 q 170 -4 215 -16 q 105 19 124 9 q 62 70 62 41 q 251 216 62 127 m 916 1305 q 621 1055 782 1163 q 517 996 566 1018 l 519 1004 q 622 1077 574 1035 q 697 1147 669 1118 q 740 1190 726 1176 q 782 1229 768 1220 q 809 1246 795 1238 q 838 1263 823 1255 q 869 1280 854 1272 q 916 1305 889 1292 z "}}}
